%TF.GenerationSoftware,KiCad,Pcbnew,9.0.0*%
%TF.CreationDate,2025-05-27T07:25:13-06:00*%
%TF.ProjectId,horno_reflujo,686f726e-6f5f-4726-9566-6c756a6f2e6b,rev?*%
%TF.SameCoordinates,Original*%
%TF.FileFunction,Copper,L1,Top*%
%TF.FilePolarity,Positive*%
%FSLAX46Y46*%
G04 Gerber Fmt 4.6, Leading zero omitted, Abs format (unit mm)*
G04 Created by KiCad (PCBNEW 9.0.0) date 2025-05-27 07:25:13*
%MOMM*%
%LPD*%
G01*
G04 APERTURE LIST*
G04 Aperture macros list*
%AMRoundRect*
0 Rectangle with rounded corners*
0 $1 Rounding radius*
0 $2 $3 $4 $5 $6 $7 $8 $9 X,Y pos of 4 corners*
0 Add a 4 corners polygon primitive as box body*
4,1,4,$2,$3,$4,$5,$6,$7,$8,$9,$2,$3,0*
0 Add four circle primitives for the rounded corners*
1,1,$1+$1,$2,$3*
1,1,$1+$1,$4,$5*
1,1,$1+$1,$6,$7*
1,1,$1+$1,$8,$9*
0 Add four rect primitives between the rounded corners*
20,1,$1+$1,$2,$3,$4,$5,0*
20,1,$1+$1,$4,$5,$6,$7,0*
20,1,$1+$1,$6,$7,$8,$9,0*
20,1,$1+$1,$8,$9,$2,$3,0*%
G04 Aperture macros list end*
%TA.AperFunction,ComponentPad*%
%ADD10C,3.000000*%
%TD*%
%TA.AperFunction,ComponentPad*%
%ADD11R,1.700000X1.700000*%
%TD*%
%TA.AperFunction,ComponentPad*%
%ADD12O,1.700000X1.700000*%
%TD*%
%TA.AperFunction,ComponentPad*%
%ADD13RoundRect,0.250000X-0.750000X0.750000X-0.750000X-0.750000X0.750000X-0.750000X0.750000X0.750000X0*%
%TD*%
%TA.AperFunction,ComponentPad*%
%ADD14C,2.000000*%
%TD*%
%TA.AperFunction,ComponentPad*%
%ADD15C,2.500000*%
%TD*%
%TA.AperFunction,ComponentPad*%
%ADD16C,1.600000*%
%TD*%
%TA.AperFunction,ComponentPad*%
%ADD17R,1.300000X1.300000*%
%TD*%
%TA.AperFunction,ComponentPad*%
%ADD18C,1.300000*%
%TD*%
%TA.AperFunction,ComponentPad*%
%ADD19R,1.800000X1.800000*%
%TD*%
%TA.AperFunction,ComponentPad*%
%ADD20O,1.800000X1.800000*%
%TD*%
%TA.AperFunction,ComponentPad*%
%ADD21RoundRect,0.250000X0.750000X-0.750000X0.750000X0.750000X-0.750000X0.750000X-0.750000X-0.750000X0*%
%TD*%
%TA.AperFunction,ComponentPad*%
%ADD22R,1.600000X1.600000*%
%TD*%
%TA.AperFunction,ComponentPad*%
%ADD23RoundRect,0.250000X0.950000X0.550000X-0.950000X0.550000X-0.950000X-0.550000X0.950000X-0.550000X0*%
%TD*%
%TA.AperFunction,ComponentPad*%
%ADD24O,2.400000X1.600000*%
%TD*%
%TA.AperFunction,ComponentPad*%
%ADD25C,1.400000*%
%TD*%
%TA.AperFunction,ComponentPad*%
%ADD26O,1.400000X1.400000*%
%TD*%
%TA.AperFunction,ComponentPad*%
%ADD27C,2.400000*%
%TD*%
%TA.AperFunction,ComponentPad*%
%ADD28O,2.400000X2.400000*%
%TD*%
%TA.AperFunction,ComponentPad*%
%ADD29RoundRect,0.250000X0.550000X-0.550000X0.550000X0.550000X-0.550000X0.550000X-0.550000X-0.550000X0*%
%TD*%
%TA.AperFunction,SMDPad,CuDef*%
%ADD30RoundRect,0.375000X-0.375000X0.625000X-0.375000X-0.625000X0.375000X-0.625000X0.375000X0.625000X0*%
%TD*%
%TA.AperFunction,SMDPad,CuDef*%
%ADD31RoundRect,0.500000X-1.400000X0.500000X-1.400000X-0.500000X1.400000X-0.500000X1.400000X0.500000X0*%
%TD*%
%TA.AperFunction,ComponentPad*%
%ADD32R,2.000000X2.000000*%
%TD*%
%TA.AperFunction,ComponentPad*%
%ADD33O,2.000000X2.000000*%
%TD*%
%TA.AperFunction,ComponentPad*%
%ADD34R,1.700000X2.000000*%
%TD*%
%TA.AperFunction,ComponentPad*%
%ADD35O,1.700000X2.000000*%
%TD*%
%TA.AperFunction,ComponentPad*%
%ADD36R,1.524000X1.524000*%
%TD*%
%TA.AperFunction,ComponentPad*%
%ADD37C,1.524000*%
%TD*%
%TA.AperFunction,ViaPad*%
%ADD38C,0.600000*%
%TD*%
%TA.AperFunction,Conductor*%
%ADD39C,0.200000*%
%TD*%
%TA.AperFunction,Conductor*%
%ADD40C,0.100000*%
%TD*%
G04 APERTURE END LIST*
D10*
%TO.P,F2,1*%
%TO.N,LINE*%
X199030000Y-29972000D03*
%TO.P,F2,2*%
%TO.N,Net-(J8-Pin_1)*%
X176530000Y-29972000D03*
%TD*%
D11*
%TO.P,J15,1,Pin_1*%
%TO.N,GND*%
X37343000Y-44450000D03*
D12*
%TO.P,J15,2,Pin_2*%
%TO.N,+3.3V*%
X39883000Y-44450000D03*
%TO.P,J15,3,Pin_3*%
%TO.N,SPI1_SCK*%
X42423000Y-44450000D03*
%TO.P,J15,4,Pin_4*%
%TO.N,CS_3*%
X44963000Y-44450000D03*
%TO.P,J15,5,Pin_5*%
%TO.N,SPI1_MISO*%
X47503000Y-44450000D03*
%TD*%
D13*
%TO.P,J11,1,Pin_1*%
%TO.N,NEUT*%
X208816500Y-29459000D03*
D14*
%TO.P,J11,2,Pin_2*%
%TO.N,unconnected-(J11-Pin_2-Pad2)*%
X208816500Y-31999000D03*
%TD*%
D11*
%TO.P,J12,1,Pin_1*%
%TO.N,ENCODER_BTN*%
X32526000Y-53342000D03*
D12*
%TO.P,J12,2,Pin_2*%
%TO.N,ENCODER_B*%
X32526000Y-55882000D03*
%TO.P,J12,3,Pin_3*%
%TO.N,ENCODER_A*%
X32526000Y-58422000D03*
%TO.P,J12,4,Pin_4*%
%TO.N,GND*%
X32526000Y-60962000D03*
%TO.P,J12,5,Pin_5*%
X32526000Y-63502000D03*
%TD*%
D11*
%TO.P,J8,1,Pin_1*%
%TO.N,Net-(J8-Pin_1)*%
X170297500Y-30437500D03*
%TD*%
D10*
%TO.P,K1,1*%
%TO.N,NEUT*%
X206366000Y-74930000D03*
D15*
%TO.P,K1,2*%
%TO.N,Net-(D3-A)*%
X204416000Y-68880000D03*
D10*
%TO.P,K1,3*%
%TO.N,Bobina_ventilador*%
X192216000Y-68880000D03*
%TO.P,K1,4*%
%TO.N,unconnected-(K1-Pad4)*%
X192166000Y-80930000D03*
D15*
%TO.P,K1,5*%
%TO.N,+5V*%
X204416000Y-80880000D03*
%TD*%
D16*
%TO.P,RV1,1*%
%TO.N,Net-(C2-Pad1)*%
X168264000Y-42632000D03*
%TO.P,RV1,2*%
%TO.N,NEUT*%
X170064000Y-37632000D03*
%TD*%
D10*
%TO.P,F1,1*%
%TO.N,LINE*%
X199284000Y-41402000D03*
%TO.P,F1,2*%
%TO.N,Net-(C2-Pad1)*%
X176784000Y-41402000D03*
%TD*%
D11*
%TO.P,J2,1,Pin_1*%
%TO.N,Net-(J2-Pin_1)*%
X102108000Y-85090000D03*
D12*
%TO.P,J2,2,Pin_2*%
%TO.N,Net-(J2-Pin_2)*%
X102108000Y-82550000D03*
%TO.P,J2,3,Pin_3*%
%TO.N,+5V*%
X102108000Y-80010000D03*
%TO.P,J2,4,Pin_4*%
%TO.N,GND*%
X102108000Y-77470000D03*
%TO.P,J2,5,Pin_5*%
%TO.N,zero*%
X102108000Y-74930000D03*
%TO.P,J2,6,Pin_6*%
%TO.N,unconnected-(J2-Pin_6-Pad6)*%
X102108000Y-72390000D03*
%TD*%
D17*
%TO.P,Q1,1,E*%
%TO.N,GND*%
X169820000Y-72898000D03*
D18*
%TO.P,Q1,2,B*%
%TO.N,Net-(Q1-B)*%
X171090000Y-74168000D03*
%TO.P,Q1,3,C*%
%TO.N,Net-(D3-A)*%
X169820000Y-75438000D03*
%TD*%
D19*
%TO.P,D3,1,K*%
%TO.N,+5V*%
X211074000Y-79502000D03*
D20*
%TO.P,D3,2,A*%
%TO.N,Net-(D3-A)*%
X211074000Y-69342000D03*
%TD*%
D21*
%TO.P,J7,1,Pin_1*%
%TO.N,Bobina_ventilador*%
X180057500Y-75189000D03*
D14*
%TO.P,J7,2,Pin_2*%
%TO.N,LINE*%
X180057500Y-72649000D03*
%TD*%
D22*
%TO.P,C1,1*%
%TO.N,+5V*%
X88900000Y-36132888D03*
D16*
%TO.P,C1,2*%
%TO.N,GND*%
X88900000Y-38632888D03*
%TD*%
D11*
%TO.P,J14,1,Pin_1*%
%TO.N,GND*%
X51313000Y-44450000D03*
D12*
%TO.P,J14,2,Pin_2*%
%TO.N,+3.3V*%
X53853000Y-44450000D03*
%TO.P,J14,3,Pin_3*%
%TO.N,SPI1_SCK*%
X56393000Y-44450000D03*
%TO.P,J14,4,Pin_4*%
%TO.N,CS_2*%
X58933000Y-44450000D03*
%TO.P,J14,5,Pin_5*%
%TO.N,SPI1_MISO*%
X61473000Y-44450000D03*
%TD*%
D23*
%TO.P,U3,1*%
%TO.N,Net-(OC1-Pad4)*%
X150114000Y-67559000D03*
D24*
%TO.P,U3,2*%
%TO.N,zero*%
X150114000Y-65019000D03*
%TO.P,U3,3*%
%TO.N,/fire*%
X150114000Y-62479000D03*
%TO.P,U3,4*%
%TO.N,Net-(J10-Pin_1)*%
X150114000Y-59939000D03*
%TO.P,U3,5*%
%TO.N,N/C*%
X150114000Y-57399000D03*
%TO.P,U3,6*%
X150114000Y-54859000D03*
%TO.P,U3,7,GND*%
%TO.N,GND*%
X150114000Y-52319000D03*
%TO.P,U3,8*%
%TO.N,N/C*%
X142494000Y-52319000D03*
%TO.P,U3,9*%
X142494000Y-54859000D03*
%TO.P,U3,10*%
X142494000Y-57399000D03*
%TO.P,U3,11*%
X142494000Y-59939000D03*
%TO.P,U3,12*%
%TO.N,Net-(R10-Pad2)*%
X142494000Y-62479000D03*
%TO.P,U3,13*%
%TO.N,/fan*%
X142494000Y-65019000D03*
%TO.P,U3,14,VCC*%
%TO.N,+5V*%
X142494000Y-67559000D03*
%TD*%
D11*
%TO.P,J3,1,Pin_1*%
%TO.N,+5V*%
X113792000Y-81270000D03*
D12*
%TO.P,J3,2,Pin_2*%
%TO.N,Net-(J2-Pin_1)*%
X113792000Y-78730000D03*
%TO.P,J3,3,Pin_3*%
%TO.N,Net-(J2-Pin_2)*%
X113792000Y-76190000D03*
%TO.P,J3,4,Pin_4*%
%TO.N,GND*%
X113792000Y-73650000D03*
%TD*%
D11*
%TO.P,J1,1,Pin_1*%
%TO.N,unconnected-(J1-Pin_1-Pad1)*%
X92202000Y-72390000D03*
D12*
%TO.P,J1,2,Pin_2*%
%TO.N,/zc*%
X92202000Y-74930000D03*
%TO.P,J1,3,Pin_3*%
%TO.N,GND*%
X92202000Y-77470000D03*
%TO.P,J1,4,Pin_4*%
%TO.N,+3.3V*%
X92202000Y-80010000D03*
%TO.P,J1,5,Pin_5*%
%TO.N,I2C1_SDA*%
X92202000Y-82550000D03*
%TO.P,J1,6,Pin_6*%
%TO.N,I2C1_SCL*%
X92202000Y-85090000D03*
%TD*%
D11*
%TO.P,J13,1,Pin_1*%
%TO.N,GND*%
X65283000Y-44450000D03*
D12*
%TO.P,J13,2,Pin_2*%
%TO.N,+3.3V*%
X67823000Y-44450000D03*
%TO.P,J13,3,Pin_3*%
%TO.N,SPI1_SCK*%
X70363000Y-44450000D03*
%TO.P,J13,4,Pin_4*%
%TO.N,CS_1*%
X72903000Y-44450000D03*
%TO.P,J13,5,Pin_5*%
%TO.N,SPI1_MISO*%
X75443000Y-44450000D03*
%TD*%
D25*
%TO.P,R9,1*%
%TO.N,ENCODER_B*%
X36830000Y-56642000D03*
D26*
%TO.P,R9,2*%
%TO.N,+5V*%
X44450000Y-56642000D03*
%TD*%
D21*
%TO.P,J10,1,Pin_1*%
%TO.N,Net-(J10-Pin_1)*%
X158213500Y-57663000D03*
D14*
%TO.P,J10,2,Pin_2*%
%TO.N,GND*%
X158213500Y-55123000D03*
%TD*%
D16*
%TO.P,C5,1*%
%TO.N,+5V*%
X135890000Y-62952000D03*
%TO.P,C5,2*%
%TO.N,GND*%
X135890000Y-57952000D03*
%TD*%
D22*
%TO.P,C9,1*%
%TO.N,+3.3V*%
X126492000Y-60895113D03*
D16*
%TO.P,C9,2*%
%TO.N,GND*%
X126492000Y-58395113D03*
%TD*%
D22*
%TO.P,C8,1*%
%TO.N,+5V*%
X106426000Y-52642888D03*
D16*
%TO.P,C8,2*%
%TO.N,GND*%
X106426000Y-55142888D03*
%TD*%
D27*
%TO.P,R5,1*%
%TO.N,Net-(D1-2)*%
X195834000Y-53594000D03*
D28*
%TO.P,R5,2*%
%TO.N,LINE*%
X211074000Y-53594000D03*
%TD*%
D25*
%TO.P,R11,1*%
%TO.N,ENCODER_BTN*%
X36830000Y-53594000D03*
D26*
%TO.P,R11,2*%
%TO.N,+5V*%
X44450000Y-53594000D03*
%TD*%
D16*
%TO.P,C2,1*%
%TO.N,Net-(C2-Pad1)*%
X157988000Y-41616000D03*
%TO.P,C2,2*%
%TO.N,NEUT*%
X157988000Y-36616000D03*
%TD*%
D11*
%TO.P,J5,1,Pin_1*%
%TO.N,+3.3V*%
X72380000Y-74676000D03*
D12*
%TO.P,J5,2,Pin_2*%
%TO.N,/Rx_mcu_esp01*%
X69840000Y-74676000D03*
%TO.P,J5,3,Pin_3*%
%TO.N,/Tx_mcu_esp01*%
X67300000Y-74676000D03*
%TO.P,J5,4,Pin_4*%
%TO.N,GND*%
X64760000Y-74676000D03*
%TD*%
D25*
%TO.P,R10,1*%
%TO.N,Net-(Q1-B)*%
X152400000Y-74168000D03*
D26*
%TO.P,R10,2*%
%TO.N,Net-(R10-Pad2)*%
X160020000Y-74168000D03*
%TD*%
D27*
%TO.P,R6,1*%
%TO.N,Net-(D1-1)*%
X195834000Y-58928000D03*
D28*
%TO.P,R6,2*%
%TO.N,NEUT*%
X211074000Y-58928000D03*
%TD*%
D29*
%TO.P,OC1,1*%
%TO.N,Net-(D1-+)*%
X174239000Y-61976000D03*
D16*
%TO.P,OC1,2*%
%TO.N,Net-(D1--)*%
X176779000Y-61976000D03*
%TO.P,OC1,3*%
%TO.N,GND*%
X176779000Y-51816000D03*
%TO.P,OC1,4*%
%TO.N,Net-(OC1-Pad4)*%
X174239000Y-51816000D03*
%TD*%
D30*
%TO.P,U1,1,GND*%
%TO.N,GND*%
X120918000Y-56540000D03*
%TO.P,U1,2,VO*%
%TO.N,+3.3V*%
X118618000Y-56540000D03*
D31*
X118618000Y-62840000D03*
D30*
%TO.P,U1,3,VI*%
%TO.N,+5V*%
X116318000Y-56540000D03*
%TD*%
D32*
%TO.P,D1,1,+*%
%TO.N,Net-(D1-+)*%
X184404000Y-54356000D03*
D33*
%TO.P,D1,2,1*%
%TO.N,Net-(D1-1)*%
X184404000Y-59356000D03*
%TO.P,D1,3,-*%
%TO.N,Net-(D1--)*%
X189404000Y-59356000D03*
%TO.P,D1,4,2*%
%TO.N,Net-(D1-2)*%
X189404000Y-54356000D03*
%TD*%
D34*
%TO.P,PS1,1,AC/L*%
%TO.N,Net-(PS1-AC{slash}L)*%
X128548500Y-40308500D03*
D35*
%TO.P,PS1,2,AC/N*%
%TO.N,Net-(PS1-AC{slash}N)*%
X128548500Y-35308500D03*
%TO.P,PS1,3,-Vout*%
%TO.N,GND*%
X99468500Y-45308500D03*
%TO.P,PS1,4,+Vout*%
%TO.N,+5V*%
X99468500Y-30308500D03*
%TD*%
D36*
%TO.P,dev_board1,1,B12*%
%TO.N,unconnected-(dev_board1-B12-Pad1)*%
X49276000Y-68326000D03*
D37*
%TO.P,dev_board1,2,B13*%
%TO.N,unconnected-(dev_board1-B13-Pad2)*%
X51816000Y-68326000D03*
%TO.P,dev_board1,3,B14*%
%TO.N,unconnected-(dev_board1-B14-Pad3)*%
X54356000Y-68326000D03*
%TO.P,dev_board1,4,B15*%
%TO.N,unconnected-(dev_board1-B15-Pad4)*%
X56896000Y-68326000D03*
%TO.P,dev_board1,5,A8*%
%TO.N,/zc*%
X59436000Y-68326000D03*
%TO.P,dev_board1,6,A9*%
%TO.N,/fire*%
X61976000Y-68326000D03*
%TO.P,dev_board1,7,A10*%
%TO.N,/Tx_mcu_esp01*%
X64516000Y-68326000D03*
%TO.P,dev_board1,8,A11*%
%TO.N,/fan*%
X67056000Y-68326000D03*
%TO.P,dev_board1,9,A12*%
%TO.N,unconnected-(dev_board1-A12-Pad9)*%
X69596000Y-68326000D03*
%TO.P,dev_board1,10,A15*%
%TO.N,/Rx_mcu_esp01*%
X72136000Y-68326000D03*
%TO.P,dev_board1,11,B3*%
%TO.N,unconnected-(dev_board1-B3-Pad11)*%
X74676000Y-68326000D03*
%TO.P,dev_board1,12,B4*%
%TO.N,unconnected-(dev_board1-B4-Pad12)*%
X77216000Y-68326000D03*
%TO.P,dev_board1,13,B5*%
%TO.N,unconnected-(dev_board1-B5-Pad13)*%
X79756000Y-68326000D03*
%TO.P,dev_board1,14,B6*%
%TO.N,I2C1_SCL*%
X82296000Y-68326000D03*
%TO.P,dev_board1,15,B7*%
%TO.N,I2C1_SDA*%
X84836000Y-68326000D03*
%TO.P,dev_board1,16,B8*%
%TO.N,unconnected-(dev_board1-B8-Pad16)*%
X87376000Y-68326000D03*
%TO.P,dev_board1,17,B9*%
%TO.N,unconnected-(dev_board1-B9-Pad17)*%
X89916000Y-68326000D03*
%TO.P,dev_board1,18,5V*%
%TO.N,unconnected-(dev_board1-5V-Pad18)*%
X92456000Y-68326000D03*
%TO.P,dev_board1,19,G*%
%TO.N,GND*%
X94996000Y-68326000D03*
%TO.P,dev_board1,20,3.3*%
%TO.N,unconnected-(dev_board1-3.3-Pad20)*%
X97536000Y-68326000D03*
%TO.P,dev_board1,21,VB*%
%TO.N,unconnected-(dev_board1-VB-Pad21)*%
X97536000Y-53086000D03*
%TO.P,dev_board1,22,C13*%
%TO.N,built_in_led*%
X94996000Y-53086000D03*
%TO.P,dev_board1,23,C14*%
%TO.N,unconnected-(dev_board1-C14-Pad23)*%
X92456000Y-53086000D03*
%TO.P,dev_board1,24,C15*%
%TO.N,unconnected-(dev_board1-C15-Pad24)*%
X89916000Y-53086000D03*
%TO.P,dev_board1,25,R*%
%TO.N,unconnected-(dev_board1-R-Pad25)*%
X87376000Y-53086000D03*
%TO.P,dev_board1,26,A0*%
%TO.N,ENCODER_A*%
X84836000Y-53086000D03*
%TO.P,dev_board1,27,A1*%
%TO.N,ENCODER_B*%
X82296000Y-53086000D03*
%TO.P,dev_board1,28,A2*%
%TO.N,ENCODER_BTN*%
X79756000Y-53086000D03*
%TO.P,dev_board1,29,A3*%
%TO.N,unconnected-(dev_board1-A3-Pad29)*%
X77216000Y-53086000D03*
%TO.P,dev_board1,30,A4*%
%TO.N,unconnected-(dev_board1-A4-Pad30)*%
X74676000Y-53086000D03*
%TO.P,dev_board1,31,A5*%
%TO.N,SPI1_SCK*%
X72136000Y-53086000D03*
%TO.P,dev_board1,32,A6*%
%TO.N,SPI1_MISO*%
X69596000Y-53086000D03*
%TO.P,dev_board1,33,A7*%
%TO.N,CS_0*%
X67056000Y-53086000D03*
%TO.P,dev_board1,34,B0*%
%TO.N,CS_1*%
X64516000Y-53086000D03*
%TO.P,dev_board1,35,B1*%
%TO.N,CS_2*%
X61976000Y-53086000D03*
%TO.P,dev_board1,36,B2*%
%TO.N,CS_3*%
X59436000Y-53086000D03*
%TO.P,dev_board1,37,B10*%
%TO.N,unconnected-(dev_board1-B10-Pad37)*%
X56896000Y-53086000D03*
%TO.P,dev_board1,38,3.3*%
%TO.N,unconnected-(dev_board1-3.3-Pad38)*%
X54356000Y-53086000D03*
%TO.P,dev_board1,39,G*%
%TO.N,GND*%
X51816000Y-53086000D03*
%TO.P,dev_board1,40,5V*%
%TO.N,+5V*%
X49276000Y-53086000D03*
%TD*%
D21*
%TO.P,J6,1,Pin_1*%
%TO.N,LINE*%
X208026000Y-43434000D03*
D14*
%TO.P,J6,2,Pin_2*%
%TO.N,NEUT*%
X208026000Y-40894000D03*
%TD*%
D32*
%TO.P,FL1,1,1*%
%TO.N,Net-(C2-Pad1)*%
X149129500Y-43973500D03*
D14*
%TO.P,FL1,2,2*%
%TO.N,Net-(PS1-AC{slash}L)*%
X139129500Y-43973500D03*
%TO.P,FL1,3,3*%
%TO.N,NEUT*%
X149129500Y-33973500D03*
%TO.P,FL1,4,4*%
%TO.N,Net-(PS1-AC{slash}N)*%
X139129500Y-33973500D03*
%TD*%
D25*
%TO.P,R7,1*%
%TO.N,Net-(OC1-Pad4)*%
X166878000Y-53086000D03*
D26*
%TO.P,R7,2*%
%TO.N,+5V*%
X166878000Y-60706000D03*
%TD*%
D25*
%TO.P,R8,1*%
%TO.N,ENCODER_A*%
X36830000Y-59690000D03*
D26*
%TO.P,R8,2*%
%TO.N,+5V*%
X44450000Y-59690000D03*
%TD*%
D11*
%TO.P,J4,1,Pin_1*%
%TO.N,GND*%
X79253000Y-44450000D03*
D12*
%TO.P,J4,2,Pin_2*%
%TO.N,+3.3V*%
X81793000Y-44450000D03*
%TO.P,J4,3,Pin_3*%
%TO.N,SPI1_SCK*%
X84333000Y-44450000D03*
%TO.P,J4,4,Pin_4*%
%TO.N,CS_0*%
X86873000Y-44450000D03*
%TO.P,J4,5,Pin_5*%
%TO.N,SPI1_MISO*%
X89413000Y-44450000D03*
%TD*%
D38*
%TO.N,GND*%
X120904000Y-54864000D03*
%TO.N,+3.3V*%
X67271997Y-40132000D03*
%TO.N,Net-(Q1-B)*%
X166878000Y-74168000D03*
X152400000Y-77470000D03*
%TO.N,I2C1_SCL*%
X82296000Y-73406000D03*
X82296000Y-85090000D03*
%TO.N,/fan*%
X67056000Y-65278000D03*
X139700000Y-65024000D03*
%TO.N,/fire*%
X102108000Y-63246000D03*
X146558000Y-48768000D03*
%TO.N,Net-(R10-Pad2)*%
X160020000Y-69342000D03*
X153543000Y-69469000D03*
%TO.N,I2C1_SDA*%
X84836000Y-73660000D03*
X85090000Y-82550000D03*
%TO.N,/zc*%
X59436000Y-71628000D03*
X96012000Y-74930000D03*
%TO.N,zero*%
X146558000Y-65532000D03*
X137668000Y-70866000D03*
%TD*%
D39*
%TO.N,GND*%
X120918000Y-54878000D02*
X120904000Y-54864000D01*
X120918000Y-56540000D02*
X120918000Y-54878000D01*
%TO.N,Net-(D1-1)*%
X186356000Y-57404000D02*
X194310000Y-57404000D01*
X194310000Y-57404000D02*
X195834000Y-58928000D01*
X184404000Y-59356000D02*
X186356000Y-57404000D01*
%TO.N,Net-(D1-2)*%
X195834000Y-53594000D02*
X190166000Y-53594000D01*
X190166000Y-53594000D02*
X189404000Y-54356000D01*
%TO.N,Net-(D1--)*%
X186022000Y-62738000D02*
X185674000Y-62738000D01*
X189404000Y-59356000D02*
X186022000Y-62738000D01*
X185674000Y-62738000D02*
X184912000Y-61976000D01*
X184912000Y-61976000D02*
X176779000Y-61976000D01*
%TO.N,Net-(D1-+)*%
X179832000Y-59944000D02*
X176271000Y-59944000D01*
X176271000Y-59944000D02*
X174239000Y-61976000D01*
X184404000Y-54356000D02*
X179832000Y-58928000D01*
X179832000Y-58928000D02*
X179832000Y-59944000D01*
%TO.N,+5V*%
X109982000Y-88138000D02*
X113792000Y-84328000D01*
X142494000Y-72644000D02*
X133868000Y-81270000D01*
X44958000Y-53086000D02*
X44450000Y-53594000D01*
X106426000Y-52642888D02*
X112420888Y-52642888D01*
X166878000Y-65278000D02*
X165354000Y-66802000D01*
X44450000Y-53594000D02*
X41148000Y-50292000D01*
X165354000Y-66802000D02*
X165354000Y-82042000D01*
X98552000Y-86614000D02*
X100076000Y-88138000D01*
X142494000Y-67559000D02*
X146309000Y-71374000D01*
X37846000Y-50292000D02*
X33782000Y-46228000D01*
X165354000Y-60706000D02*
X166878000Y-60706000D01*
X33782000Y-37338000D02*
X35560000Y-35560000D01*
X105492500Y-30308500D02*
X99468500Y-30308500D01*
X154686000Y-71374000D02*
X165354000Y-60706000D01*
X135890000Y-62952000D02*
X128778000Y-55840000D01*
X44450000Y-53340000D02*
X44450000Y-59690000D01*
X99314000Y-80010000D02*
X98552000Y-80772000D01*
X112420888Y-52642888D02*
X116318000Y-56540000D01*
X168148000Y-84836000D02*
X202184000Y-84836000D01*
X146309000Y-71374000D02*
X154686000Y-71374000D01*
X128778000Y-55840000D02*
X128778000Y-53594000D01*
X166878000Y-60706000D02*
X166878000Y-65278000D01*
X49276000Y-53086000D02*
X44958000Y-53086000D01*
X98552000Y-80772000D02*
X98552000Y-86614000D01*
X94724388Y-30308500D02*
X88900000Y-36132888D01*
X100076000Y-88138000D02*
X109982000Y-88138000D01*
X209696000Y-80880000D02*
X211074000Y-79502000D01*
X204416000Y-80880000D02*
X209696000Y-80880000D01*
X142494000Y-67559000D02*
X140497000Y-67559000D01*
X88900000Y-35560000D02*
X88900000Y-36132888D01*
X106426000Y-52642888D02*
X106426000Y-37266000D01*
X99468500Y-30308500D02*
X94724388Y-30308500D01*
X202184000Y-83112000D02*
X204416000Y-80880000D01*
X113792000Y-84328000D02*
X113792000Y-81270000D01*
X202184000Y-84836000D02*
X202184000Y-83112000D01*
X133868000Y-81270000D02*
X113792000Y-81270000D01*
X142494000Y-67559000D02*
X142494000Y-72644000D01*
X140497000Y-67559000D02*
X135890000Y-62952000D01*
X102108000Y-80010000D02*
X99314000Y-80010000D01*
X128778000Y-53594000D02*
X105492500Y-30308500D01*
X33782000Y-46228000D02*
X33782000Y-37338000D01*
X41148000Y-50292000D02*
X37846000Y-50292000D01*
X106426000Y-37266000D02*
X99468500Y-30308500D01*
X35560000Y-35560000D02*
X88900000Y-35560000D01*
X165354000Y-82042000D02*
X168148000Y-84836000D01*
%TO.N,Net-(D3-A)*%
X169820000Y-77872000D02*
X169820000Y-75438000D01*
X204878000Y-69342000D02*
X204416000Y-68880000D01*
X204416000Y-68880000D02*
X195318000Y-77978000D01*
X211074000Y-69342000D02*
X204878000Y-69342000D01*
X195318000Y-77978000D02*
X169926000Y-77978000D01*
X169926000Y-77978000D02*
X169820000Y-77872000D01*
%TO.N,Net-(C2-Pad1)*%
X157988000Y-41616000D02*
X167248000Y-41616000D01*
X155630500Y-43973500D02*
X157988000Y-41616000D01*
X176784000Y-41402000D02*
X169494000Y-41402000D01*
X167248000Y-41616000D02*
X168264000Y-42632000D01*
X149129500Y-43973500D02*
X155630500Y-43973500D01*
X169494000Y-41402000D02*
X168264000Y-42632000D01*
%TO.N,LINE*%
X199284000Y-30226000D02*
X199030000Y-29972000D01*
X208026000Y-43434000D02*
X201316000Y-43434000D01*
X199284000Y-41402000D02*
X199284000Y-30226000D01*
X208026000Y-43434000D02*
X209296000Y-43434000D01*
X206502000Y-53848000D02*
X206756000Y-53594000D01*
X211074000Y-45212000D02*
X211074000Y-53594000D01*
X206502000Y-57404000D02*
X206502000Y-53848000D01*
X201316000Y-43434000D02*
X199284000Y-41402000D01*
X206756000Y-53594000D02*
X211074000Y-53594000D01*
X180057500Y-72649000D02*
X187936500Y-64770000D01*
X209296000Y-43434000D02*
X211074000Y-45212000D01*
X187936500Y-64770000D02*
X199136000Y-64770000D01*
X199136000Y-64770000D02*
X206502000Y-57404000D01*
%TO.N,NEUT*%
X208026000Y-40894000D02*
X211582000Y-37338000D01*
X208144000Y-73152000D02*
X213106000Y-73152000D01*
X149129500Y-33973500D02*
X151772000Y-36616000D01*
X214122000Y-54864000D02*
X214122000Y-40894000D01*
X186396000Y-37632000D02*
X197612000Y-26416000D01*
X211074000Y-58928000D02*
X214630000Y-55372000D01*
X157988000Y-36616000D02*
X169048000Y-36616000D01*
X170064000Y-37632000D02*
X186396000Y-37632000D01*
X214630000Y-55372000D02*
X214122000Y-54864000D01*
X203708000Y-26416000D02*
X206751000Y-29459000D01*
X206751000Y-29459000D02*
X208816500Y-29459000D01*
X211582000Y-30226000D02*
X210815000Y-29459000D01*
X197612000Y-26416000D02*
X203708000Y-26416000D01*
X213106000Y-60960000D02*
X211074000Y-58928000D01*
X206366000Y-74930000D02*
X208144000Y-73152000D01*
X210815000Y-29459000D02*
X208816500Y-29459000D01*
X211582000Y-37338000D02*
X211582000Y-30226000D01*
X151772000Y-36616000D02*
X157988000Y-36616000D01*
X169048000Y-36616000D02*
X170064000Y-37632000D01*
X213106000Y-73152000D02*
X213106000Y-60960000D01*
X214122000Y-40894000D02*
X208026000Y-40894000D01*
%TO.N,Net-(PS1-AC{slash}L)*%
X128548500Y-40308500D02*
X135464500Y-40308500D01*
X135464500Y-40308500D02*
X139129500Y-43973500D01*
%TO.N,Net-(PS1-AC{slash}N)*%
X139129500Y-33973500D02*
X137794500Y-35308500D01*
X137794500Y-35308500D02*
X128548500Y-35308500D01*
%TO.N,GND*%
X32526000Y-60962000D02*
X32526000Y-63502000D01*
X99468500Y-44858500D02*
X93242888Y-38632888D01*
X93242888Y-38632888D02*
X88900000Y-38632888D01*
X99468500Y-45308500D02*
X99468500Y-44858500D01*
D40*
%TO.N,SPI1_MISO*%
X60716000Y-41656000D02*
X61473000Y-42413000D01*
X50297000Y-41656000D02*
X60716000Y-41656000D01*
X61473000Y-42413000D02*
X61473000Y-44450000D01*
X89413000Y-44450000D02*
X83825000Y-50038000D01*
X69596000Y-51308000D02*
X69596000Y-53086000D01*
X77729000Y-42164000D02*
X75443000Y-44450000D01*
X62484000Y-41402000D02*
X61473000Y-42413000D01*
X70866000Y-50038000D02*
X69596000Y-51308000D01*
X89413000Y-42159000D02*
X89408000Y-42164000D01*
X89413000Y-44450000D02*
X89413000Y-42159000D01*
X89408000Y-42164000D02*
X77729000Y-42164000D01*
X75443000Y-44450000D02*
X75443000Y-41661000D01*
X47503000Y-44450000D02*
X50297000Y-41656000D01*
X75443000Y-41661000D02*
X75184000Y-41402000D01*
X83825000Y-50038000D02*
X70866000Y-50038000D01*
X75184000Y-41402000D02*
X62484000Y-41402000D01*
%TO.N,CS_2*%
X58933000Y-44450000D02*
X58933000Y-45979000D01*
X58933000Y-45979000D02*
X61976000Y-49022000D01*
X61976000Y-49022000D02*
X61976000Y-53086000D01*
%TO.N,CS_3*%
X44963000Y-45979000D02*
X48514000Y-49530000D01*
X57404000Y-49530000D02*
X59436000Y-51562000D01*
X44963000Y-44450000D02*
X44963000Y-45979000D01*
X59436000Y-51562000D02*
X59436000Y-53086000D01*
X48514000Y-49530000D02*
X57404000Y-49530000D01*
%TO.N,SPI1_SCK*%
X58166000Y-54610000D02*
X70612000Y-54610000D01*
X43434000Y-42926000D02*
X42423000Y-43937000D01*
X60198000Y-45147900D02*
X60198000Y-43180000D01*
X42423000Y-43937000D02*
X42423000Y-44450000D01*
X60198000Y-43180000D02*
X56896000Y-43180000D01*
X74292000Y-45850000D02*
X74292000Y-43304000D01*
X43688000Y-43180000D02*
X43434000Y-42926000D01*
X82809000Y-45974000D02*
X74168000Y-45974000D01*
X70612000Y-54610000D02*
X72136000Y-53086000D01*
X84333000Y-44450000D02*
X82809000Y-45974000D01*
X70363000Y-44450000D02*
X69125050Y-45687950D01*
X70866000Y-42672000D02*
X70363000Y-43175000D01*
X74292000Y-43304000D02*
X73660000Y-42672000D01*
X60738050Y-45687950D02*
X60198000Y-45147900D01*
X70363000Y-43175000D02*
X70363000Y-44450000D01*
X73660000Y-42672000D02*
X70866000Y-42672000D01*
X74168000Y-45974000D02*
X74292000Y-45850000D01*
X56896000Y-43947000D02*
X56393000Y-44450000D01*
X58166000Y-52070000D02*
X58166000Y-54610000D01*
X42423000Y-45471000D02*
X47899000Y-50947000D01*
X69125050Y-45687950D02*
X60738050Y-45687950D01*
X47399240Y-45974000D02*
X46228000Y-44802760D01*
X46228000Y-43180000D02*
X43688000Y-43180000D01*
X57043000Y-50947000D02*
X58166000Y-52070000D01*
X42423000Y-44450000D02*
X42423000Y-45471000D01*
X47899000Y-50947000D02*
X57043000Y-50947000D01*
X56896000Y-43180000D02*
X56896000Y-43947000D01*
X46228000Y-44802760D02*
X46228000Y-43180000D01*
X56393000Y-44450000D02*
X54869000Y-45974000D01*
X54869000Y-45974000D02*
X47399240Y-45974000D01*
D39*
%TO.N,/Tx_mcu_esp01*%
X64516000Y-69850000D02*
X67310000Y-72644000D01*
X67310000Y-72644000D02*
X67300000Y-72654000D01*
X64516000Y-68326000D02*
X64516000Y-69850000D01*
X67300000Y-72654000D02*
X67300000Y-74676000D01*
%TO.N,+3.3V*%
X125032887Y-60895113D02*
X122428000Y-63500000D01*
X72380000Y-74676000D02*
X76190000Y-78486000D01*
X122428000Y-63500000D02*
X121768000Y-62840000D01*
X103378000Y-53340000D02*
X90170000Y-40132000D01*
X92202000Y-80010000D02*
X98298000Y-73914000D01*
X90170000Y-40132000D02*
X67271997Y-40132000D01*
X103632000Y-58166000D02*
X103378000Y-58166000D01*
X126492000Y-60895113D02*
X125032887Y-60895113D01*
X119126000Y-65278000D02*
X119126000Y-63348000D01*
X39883000Y-44450000D02*
X39883000Y-41397000D01*
X101092000Y-69088000D02*
X105029000Y-65151000D01*
X101092000Y-69596000D02*
X101092000Y-69088000D01*
X110617000Y-65151000D02*
X103632000Y-58166000D01*
X103378000Y-58166000D02*
X103378000Y-53340000D01*
X86106000Y-78486000D02*
X87630000Y-80010000D01*
X110744000Y-65278000D02*
X119126000Y-65278000D01*
X40640000Y-40640000D02*
X41148000Y-40132000D01*
X119126000Y-63348000D02*
X118618000Y-62840000D01*
X105029000Y-65151000D02*
X110617000Y-65151000D01*
X76190000Y-78486000D02*
X86106000Y-78486000D01*
X121768000Y-62840000D02*
X118618000Y-62840000D01*
X87630000Y-80010000D02*
X92202000Y-80010000D01*
X41148000Y-40132000D02*
X67271997Y-40132000D01*
X39883000Y-41397000D02*
X40640000Y-40640000D01*
X110617000Y-65151000D02*
X110744000Y-65278000D01*
X98298000Y-73914000D02*
X98298000Y-72390000D01*
X98298000Y-72390000D02*
X101092000Y-69596000D01*
%TO.N,/Rx_mcu_esp01*%
X72136000Y-72380000D02*
X72136000Y-68326000D01*
X69840000Y-74676000D02*
X72136000Y-72380000D01*
%TO.N,Bobina_ventilador*%
X185420000Y-75438000D02*
X185171000Y-75189000D01*
X185674000Y-75438000D02*
X185420000Y-75438000D01*
X192216000Y-68880000D02*
X185674000Y-75422000D01*
X185674000Y-75422000D02*
X185674000Y-75438000D01*
X185171000Y-75189000D02*
X180057500Y-75189000D01*
%TO.N,Net-(OC1-Pad4)*%
X166370000Y-53086000D02*
X166878000Y-53086000D01*
X172969000Y-53086000D02*
X174239000Y-51816000D01*
X151897000Y-67559000D02*
X166370000Y-53086000D01*
X150114000Y-67559000D02*
X151897000Y-67559000D01*
X166878000Y-53086000D02*
X172969000Y-53086000D01*
%TO.N,Net-(Q1-B)*%
X171090000Y-74168000D02*
X166878000Y-74168000D01*
X152400000Y-74168000D02*
X152400000Y-77470000D01*
D40*
%TO.N,CS_0*%
X86873000Y-44450000D02*
X82047000Y-49276000D01*
X82047000Y-49276000D02*
X69850000Y-49276000D01*
X69850000Y-49276000D02*
X67056000Y-52070000D01*
X67056000Y-52070000D02*
X67056000Y-53086000D01*
%TO.N,CS_1*%
X69855000Y-47498000D02*
X68072000Y-47498000D01*
X72903000Y-44450000D02*
X69855000Y-47498000D01*
D39*
X64775000Y-52827000D02*
X64516000Y-53086000D01*
D40*
X68072000Y-47498000D02*
X64516000Y-51054000D01*
X64516000Y-51054000D02*
X64516000Y-53086000D01*
D39*
%TO.N,I2C1_SCL*%
X82296000Y-85090000D02*
X92202000Y-85090000D01*
X82296000Y-68326000D02*
X82296000Y-73406000D01*
%TO.N,/fan*%
X139705000Y-65019000D02*
X139700000Y-65024000D01*
X142494000Y-65019000D02*
X139705000Y-65019000D01*
X67056000Y-65278000D02*
X67056000Y-68326000D01*
%TO.N,/fire*%
X61976000Y-68326000D02*
X61976000Y-65786000D01*
X146558000Y-58923000D02*
X150114000Y-62479000D01*
X146558000Y-48768000D02*
X146558000Y-58923000D01*
X61976000Y-65786000D02*
X64262000Y-63500000D01*
X101854000Y-63500000D02*
X102108000Y-63246000D01*
X64262000Y-63500000D02*
X101854000Y-63500000D01*
%TO.N,Net-(R10-Pad2)*%
X142494000Y-62479000D02*
X144013000Y-62479000D01*
X144013000Y-62479000D02*
X145288000Y-63754000D01*
X153162000Y-69850000D02*
X153543000Y-69469000D01*
X145288000Y-68326000D02*
X146812000Y-69850000D01*
X153670000Y-69342000D02*
X153543000Y-69469000D01*
X146812000Y-69850000D02*
X153162000Y-69850000D01*
X160020000Y-69342000D02*
X160020000Y-74168000D01*
X145288000Y-63754000D02*
X145288000Y-68326000D01*
%TO.N,ENCODER_A*%
X39370000Y-61722000D02*
X39370000Y-59436000D01*
X39370000Y-59436000D02*
X38862000Y-59436000D01*
X60960000Y-58166000D02*
X54864000Y-64262000D01*
X81534000Y-58166000D02*
X60960000Y-58166000D01*
X41910000Y-64262000D02*
X39370000Y-61722000D01*
X38862000Y-59436000D02*
X38608000Y-59690000D01*
X54864000Y-64262000D02*
X41910000Y-64262000D01*
X38608000Y-59690000D02*
X36830000Y-59690000D01*
X33794000Y-59690000D02*
X36830000Y-59690000D01*
X32526000Y-58422000D02*
X33794000Y-59690000D01*
X84836000Y-53086000D02*
X84836000Y-54864000D01*
X84836000Y-54864000D02*
X81534000Y-58166000D01*
%TO.N,ENCODER_BTN*%
X78232000Y-55880000D02*
X79756000Y-54356000D01*
X32526000Y-53342000D02*
X36578000Y-53342000D01*
X57912000Y-55880000D02*
X78232000Y-55880000D01*
X36830000Y-53594000D02*
X41656000Y-53594000D01*
X43180000Y-61976000D02*
X51816000Y-61976000D01*
X51816000Y-61976000D02*
X57912000Y-55880000D01*
X42164000Y-60960000D02*
X43180000Y-61976000D01*
X41656000Y-53594000D02*
X42164000Y-54102000D01*
X79756000Y-54356000D02*
X79756000Y-53086000D01*
X42164000Y-54102000D02*
X42164000Y-60960000D01*
X36578000Y-53342000D02*
X36830000Y-53594000D01*
%TO.N,ENCODER_B*%
X60198000Y-57150000D02*
X80518000Y-57150000D01*
X36830000Y-56642000D02*
X40894000Y-56642000D01*
X54356000Y-62992000D02*
X60198000Y-57150000D01*
X41656000Y-62230000D02*
X42418000Y-62992000D01*
X32526000Y-55882000D02*
X36070000Y-55882000D01*
X40894000Y-56642000D02*
X41656000Y-57404000D01*
X82296000Y-55372000D02*
X82296000Y-53086000D01*
X42418000Y-62992000D02*
X54356000Y-62992000D01*
X41656000Y-57404000D02*
X41656000Y-62230000D01*
X36070000Y-55882000D02*
X36830000Y-56642000D01*
X80518000Y-57150000D02*
X82296000Y-55372000D01*
%TO.N,I2C1_SDA*%
X84836000Y-68326000D02*
X84836000Y-73660000D01*
X85090000Y-82550000D02*
X92202000Y-82550000D01*
%TO.N,/zc*%
X59436000Y-71628000D02*
X59436000Y-68326000D01*
X92202000Y-74930000D02*
X96012000Y-74930000D01*
%TO.N,Net-(J8-Pin_1)*%
X170763000Y-29972000D02*
X170297500Y-30437500D01*
X176530000Y-29972000D02*
X170763000Y-29972000D01*
%TO.N,zero*%
X147325000Y-65019000D02*
X150114000Y-65019000D01*
X102108000Y-74930000D02*
X106172000Y-70866000D01*
X146558000Y-65532000D02*
X146812000Y-65532000D01*
X106172000Y-70866000D02*
X137668000Y-70866000D01*
X146812000Y-65532000D02*
X147325000Y-65019000D01*
%TO.N,Net-(J2-Pin_2)*%
X102108000Y-82550000D02*
X108468000Y-76190000D01*
X108468000Y-76190000D02*
X113792000Y-76190000D01*
%TO.N,Net-(J10-Pin_1)*%
X158213500Y-57663000D02*
X152390000Y-57663000D01*
X152390000Y-57663000D02*
X150114000Y-59939000D01*
%TO.N,Net-(J2-Pin_1)*%
X111770000Y-78730000D02*
X113792000Y-78730000D01*
X105410000Y-85090000D02*
X111770000Y-78730000D01*
X102108000Y-85090000D02*
X105410000Y-85090000D01*
%TD*%
M02*
