%TF.GenerationSoftware,KiCad,Pcbnew,9.0.0*%
%TF.CreationDate,2025-05-27T07:27:55-06:00*%
%TF.ProjectId,horno_reflujo,686f726e-6f5f-4726-9566-6c756a6f2e6b,rev?*%
%TF.SameCoordinates,Original*%
%TF.FileFunction,Soldermask,Top*%
%TF.FilePolarity,Negative*%
%FSLAX46Y46*%
G04 Gerber Fmt 4.6, Leading zero omitted, Abs format (unit mm)*
G04 Created by KiCad (PCBNEW 9.0.0) date 2025-05-27 07:27:55*
%MOMM*%
%LPD*%
G01*
G04 APERTURE LIST*
G04 Aperture macros list*
%AMRoundRect*
0 Rectangle with rounded corners*
0 $1 Rounding radius*
0 $2 $3 $4 $5 $6 $7 $8 $9 X,Y pos of 4 corners*
0 Add a 4 corners polygon primitive as box body*
4,1,4,$2,$3,$4,$5,$6,$7,$8,$9,$2,$3,0*
0 Add four circle primitives for the rounded corners*
1,1,$1+$1,$2,$3*
1,1,$1+$1,$4,$5*
1,1,$1+$1,$6,$7*
1,1,$1+$1,$8,$9*
0 Add four rect primitives between the rounded corners*
20,1,$1+$1,$2,$3,$4,$5,0*
20,1,$1+$1,$4,$5,$6,$7,0*
20,1,$1+$1,$6,$7,$8,$9,0*
20,1,$1+$1,$8,$9,$2,$3,0*%
G04 Aperture macros list end*
%ADD10C,2.700000*%
%ADD11C,3.000000*%
%ADD12R,1.700000X1.700000*%
%ADD13O,1.700000X1.700000*%
%ADD14RoundRect,0.250000X-0.750000X0.750000X-0.750000X-0.750000X0.750000X-0.750000X0.750000X0.750000X0*%
%ADD15C,2.000000*%
%ADD16C,2.500000*%
%ADD17C,1.600000*%
%ADD18R,1.300000X1.300000*%
%ADD19C,1.300000*%
%ADD20R,1.800000X1.800000*%
%ADD21O,1.800000X1.800000*%
%ADD22RoundRect,0.250000X0.750000X-0.750000X0.750000X0.750000X-0.750000X0.750000X-0.750000X-0.750000X0*%
%ADD23R,1.600000X1.600000*%
%ADD24RoundRect,0.250000X0.950000X0.550000X-0.950000X0.550000X-0.950000X-0.550000X0.950000X-0.550000X0*%
%ADD25O,2.400000X1.600000*%
%ADD26C,2.200000*%
%ADD27C,1.400000*%
%ADD28O,1.400000X1.400000*%
%ADD29C,2.400000*%
%ADD30O,2.400000X2.400000*%
%ADD31RoundRect,0.250000X0.550000X-0.550000X0.550000X0.550000X-0.550000X0.550000X-0.550000X-0.550000X0*%
%ADD32RoundRect,0.375000X-0.375000X0.625000X-0.375000X-0.625000X0.375000X-0.625000X0.375000X0.625000X0*%
%ADD33RoundRect,0.500000X-1.400000X0.500000X-1.400000X-0.500000X1.400000X-0.500000X1.400000X0.500000X0*%
%ADD34R,2.000000X2.000000*%
%ADD35O,2.000000X2.000000*%
%ADD36R,1.700000X2.000000*%
%ADD37O,1.700000X2.000000*%
%ADD38R,1.524000X1.524000*%
%ADD39C,1.524000*%
G04 APERTURE END LIST*
D10*
%TO.C,F2*%
X187780000Y-29972000D03*
D11*
X199030000Y-29972000D03*
X176530000Y-29972000D03*
%TD*%
D12*
%TO.C,J15*%
X37343000Y-44450000D03*
D13*
X39883000Y-44450000D03*
X42423000Y-44450000D03*
X44963000Y-44450000D03*
X47503000Y-44450000D03*
%TD*%
D14*
%TO.C,J11*%
X208816500Y-29459000D03*
D15*
X208816500Y-31999000D03*
%TD*%
D12*
%TO.C,J12*%
X32526000Y-53342000D03*
D13*
X32526000Y-55882000D03*
X32526000Y-58422000D03*
X32526000Y-60962000D03*
X32526000Y-63502000D03*
%TD*%
D12*
%TO.C,J8*%
X170297500Y-30437500D03*
%TD*%
D11*
%TO.C,K1*%
X206366000Y-74930000D03*
D16*
X204416000Y-68880000D03*
D11*
X192216000Y-68880000D03*
X192166000Y-80930000D03*
D16*
X204416000Y-80880000D03*
%TD*%
D17*
%TO.C,RV1*%
X168264000Y-42632000D03*
X170064000Y-37632000D03*
%TD*%
D10*
%TO.C,F1*%
X188034000Y-41402000D03*
D11*
X199284000Y-41402000D03*
X176784000Y-41402000D03*
%TD*%
D12*
%TO.C,J2*%
X102108000Y-85090000D03*
D13*
X102108000Y-82550000D03*
X102108000Y-80010000D03*
X102108000Y-77470000D03*
X102108000Y-74930000D03*
X102108000Y-72390000D03*
%TD*%
D18*
%TO.C,Q1*%
X169820000Y-72898000D03*
D19*
X171090000Y-74168000D03*
X169820000Y-75438000D03*
%TD*%
D20*
%TO.C,D3*%
X211074000Y-79502000D03*
D21*
X211074000Y-69342000D03*
%TD*%
D22*
%TO.C,J7*%
X180057500Y-75189000D03*
D15*
X180057500Y-72649000D03*
%TD*%
D23*
%TO.C,C1*%
X88900000Y-36132888D03*
D17*
X88900000Y-38632888D03*
%TD*%
D12*
%TO.C,J14*%
X51313000Y-44450000D03*
D13*
X53853000Y-44450000D03*
X56393000Y-44450000D03*
X58933000Y-44450000D03*
X61473000Y-44450000D03*
%TD*%
D24*
%TO.C,U3*%
X150114000Y-67559000D03*
D25*
X150114000Y-65019000D03*
X150114000Y-62479000D03*
X150114000Y-59939000D03*
X150114000Y-57399000D03*
X150114000Y-54859000D03*
X150114000Y-52319000D03*
X142494000Y-52319000D03*
X142494000Y-54859000D03*
X142494000Y-57399000D03*
X142494000Y-59939000D03*
X142494000Y-62479000D03*
X142494000Y-65019000D03*
X142494000Y-67559000D03*
%TD*%
D12*
%TO.C,J3*%
X113792000Y-81270000D03*
D13*
X113792000Y-78730000D03*
X113792000Y-76190000D03*
X113792000Y-73650000D03*
%TD*%
D12*
%TO.C,J1*%
X92202000Y-72390000D03*
D13*
X92202000Y-74930000D03*
X92202000Y-77470000D03*
X92202000Y-80010000D03*
X92202000Y-82550000D03*
X92202000Y-85090000D03*
%TD*%
D26*
%TO.C,H3*%
X214122000Y-85598000D03*
%TD*%
D12*
%TO.C,J13*%
X65283000Y-44450000D03*
D13*
X67823000Y-44450000D03*
X70363000Y-44450000D03*
X72903000Y-44450000D03*
X75443000Y-44450000D03*
%TD*%
D27*
%TO.C,R9*%
X36830000Y-56642000D03*
D28*
X44450000Y-56642000D03*
%TD*%
D22*
%TO.C,J10*%
X158213500Y-57663000D03*
D15*
X158213500Y-55123000D03*
%TD*%
D26*
%TO.C,H4*%
X35550000Y-27575000D03*
%TD*%
D17*
%TO.C,C5*%
X135890000Y-62952000D03*
X135890000Y-57952000D03*
%TD*%
D23*
%TO.C,C9*%
X126492000Y-60895113D03*
D17*
X126492000Y-58395113D03*
%TD*%
D23*
%TO.C,C8*%
X106426000Y-52642888D03*
D17*
X106426000Y-55142888D03*
%TD*%
D29*
%TO.C,R5*%
X195834000Y-53594000D03*
D30*
X211074000Y-53594000D03*
%TD*%
D27*
%TO.C,R11*%
X36830000Y-53594000D03*
D28*
X44450000Y-53594000D03*
%TD*%
D17*
%TO.C,C2*%
X157988000Y-41616000D03*
X157988000Y-36616000D03*
%TD*%
D12*
%TO.C,J5*%
X72380000Y-74676000D03*
D13*
X69840000Y-74676000D03*
X67300000Y-74676000D03*
X64760000Y-74676000D03*
%TD*%
D27*
%TO.C,R10*%
X152400000Y-74168000D03*
D28*
X160020000Y-74168000D03*
%TD*%
D29*
%TO.C,R6*%
X195834000Y-58928000D03*
D30*
X211074000Y-58928000D03*
%TD*%
D31*
%TO.C,OC1*%
X174239000Y-61976000D03*
D17*
X176779000Y-61976000D03*
X176779000Y-51816000D03*
X174239000Y-51816000D03*
%TD*%
D32*
%TO.C,U1*%
X120918000Y-56540000D03*
X118618000Y-56540000D03*
D33*
X118618000Y-62840000D03*
D32*
X116318000Y-56540000D03*
%TD*%
D34*
%TO.C,D1*%
X184404000Y-54356000D03*
D35*
X184404000Y-59356000D03*
X189404000Y-59356000D03*
X189404000Y-54356000D03*
%TD*%
D36*
%TO.C,PS1*%
X128548500Y-40308500D03*
D37*
X128548500Y-35308500D03*
X99468500Y-45308500D03*
X99468500Y-30308500D03*
%TD*%
D38*
%TO.C,dev_board1*%
X49276000Y-68326000D03*
D39*
X51816000Y-68326000D03*
X54356000Y-68326000D03*
X56896000Y-68326000D03*
X59436000Y-68326000D03*
X61976000Y-68326000D03*
X64516000Y-68326000D03*
X67056000Y-68326000D03*
X69596000Y-68326000D03*
X72136000Y-68326000D03*
X74676000Y-68326000D03*
X77216000Y-68326000D03*
X79756000Y-68326000D03*
X82296000Y-68326000D03*
X84836000Y-68326000D03*
X87376000Y-68326000D03*
X89916000Y-68326000D03*
X92456000Y-68326000D03*
X94996000Y-68326000D03*
X97536000Y-68326000D03*
X97536000Y-53086000D03*
X94996000Y-53086000D03*
X92456000Y-53086000D03*
X89916000Y-53086000D03*
X87376000Y-53086000D03*
X84836000Y-53086000D03*
X82296000Y-53086000D03*
X79756000Y-53086000D03*
X77216000Y-53086000D03*
X74676000Y-53086000D03*
X72136000Y-53086000D03*
X69596000Y-53086000D03*
X67056000Y-53086000D03*
X64516000Y-53086000D03*
X61976000Y-53086000D03*
X59436000Y-53086000D03*
X56896000Y-53086000D03*
X54356000Y-53086000D03*
X51816000Y-53086000D03*
X49276000Y-53086000D03*
%TD*%
D22*
%TO.C,J6*%
X208026000Y-43434000D03*
D15*
X208026000Y-40894000D03*
%TD*%
D34*
%TO.C,FL1*%
X149129500Y-43973500D03*
D15*
X139129500Y-43973500D03*
X149129500Y-33973500D03*
X139129500Y-33973500D03*
%TD*%
D27*
%TO.C,R7*%
X166878000Y-53086000D03*
D28*
X166878000Y-60706000D03*
%TD*%
D27*
%TO.C,R8*%
X36830000Y-59690000D03*
D28*
X44450000Y-59690000D03*
%TD*%
D12*
%TO.C,J4*%
X79253000Y-44450000D03*
D13*
X81793000Y-44450000D03*
X84333000Y-44450000D03*
X86873000Y-44450000D03*
X89413000Y-44450000D03*
%TD*%
M02*
