M48
; DRILL file {KiCad 9.0.0} date 2025-05-27T07:28:03-0600
; FORMAT={-:-/ absolute / metric / decimal}
; #@! TF.CreationDate,2025-05-27T07:28:03-06:00
; #@! TF.GenerationSoftware,Kicad,Pcbnew,9.0.0
; #@! TF.FileFunction,Plated,1,2,PTH
FMAT,2
METRIC
; #@! TA.AperFunction,Plated,PTH,ViaDrill
T1C0.300
; #@! TA.AperFunction,Plated,PTH,ComponentDrill
T2C0.600
; #@! TA.AperFunction,Plated,PTH,ComponentDrill
T3C0.700
; #@! TA.AperFunction,Plated,PTH,ComponentDrill
T4C0.750
; #@! TA.AperFunction,Plated,PTH,ComponentDrill
T5C0.762
; #@! TA.AperFunction,Plated,PTH,ComponentDrill
T6C0.800
; #@! TA.AperFunction,Plated,PTH,ComponentDrill
T7C0.900
; #@! TA.AperFunction,Plated,PTH,ComponentDrill
T8C1.000
; #@! TA.AperFunction,Plated,PTH,ComponentDrill
T9C1.200
; #@! TA.AperFunction,Plated,PTH,ComponentDrill
T10C1.300
%
G90
G05
T1
X59.436Y-71.628
X67.056Y-65.278
X67.272Y-40.132
X82.296Y-73.406
X82.296Y-85.09
X84.836Y-73.66
X85.09Y-82.55
X96.012Y-74.93
X102.108Y-63.246
X120.904Y-54.864
X137.668Y-70.866
X139.7Y-65.024
X146.558Y-48.768
X146.558Y-65.532
X152.4Y-77.47
X153.543Y-69.469
X160.02Y-69.342
X166.878Y-74.168
T2
X168.264Y-42.632
X170.064Y-37.632
T3
X36.83Y-53.594
X36.83Y-56.642
X36.83Y-59.69
X44.45Y-53.594
X44.45Y-56.642
X44.45Y-59.69
X139.13Y-33.974
X139.13Y-43.974
X149.13Y-33.974
X149.13Y-43.974
X152.4Y-74.168
X160.02Y-74.168
X166.878Y-53.086
X166.878Y-60.706
T4
X169.82Y-72.898
X169.82Y-75.438
X171.09Y-74.168
T5
X49.276Y-53.086
X49.276Y-68.326
X51.816Y-53.086
X51.816Y-68.326
X54.356Y-53.086
X54.356Y-68.326
X56.896Y-53.086
X56.896Y-68.326
X59.436Y-53.086
X59.436Y-68.326
X61.976Y-53.086
X61.976Y-68.326
X64.516Y-53.086
X64.516Y-68.326
X67.056Y-53.086
X67.056Y-68.326
X69.596Y-53.086
X69.596Y-68.326
X72.136Y-53.086
X72.136Y-68.326
X74.676Y-53.086
X74.676Y-68.326
X77.216Y-53.086
X77.216Y-68.326
X79.756Y-53.086
X79.756Y-68.326
X82.296Y-53.086
X82.296Y-68.326
X84.836Y-53.086
X84.836Y-68.326
X87.376Y-53.086
X87.376Y-68.326
X89.916Y-53.086
X89.916Y-68.326
X92.456Y-53.086
X92.456Y-68.326
X94.996Y-53.086
X94.996Y-68.326
X97.536Y-53.086
X97.536Y-68.326
T6
X88.9Y-36.133
X88.9Y-38.633
X106.426Y-52.643
X106.426Y-55.143
X126.492Y-58.395
X126.492Y-60.895
X135.89Y-57.952
X135.89Y-62.952
X142.494Y-52.319
X142.494Y-54.859
X142.494Y-57.399
X142.494Y-59.939
X142.494Y-62.479
X142.494Y-65.019
X142.494Y-67.559
X150.114Y-52.319
X150.114Y-54.859
X150.114Y-57.399
X150.114Y-59.939
X150.114Y-62.479
X150.114Y-65.019
X150.114Y-67.559
X157.988Y-36.616
X157.988Y-41.616
X174.239Y-51.816
X174.239Y-61.976
X176.779Y-51.816
X176.779Y-61.976
T7
X211.074Y-69.342
X211.074Y-79.502
T8
X32.526Y-53.342
X32.526Y-55.882
X32.526Y-58.422
X32.526Y-60.962
X32.526Y-63.502
X37.343Y-44.45
X39.883Y-44.45
X42.423Y-44.45
X44.963Y-44.45
X47.503Y-44.45
X51.313Y-44.45
X53.853Y-44.45
X56.393Y-44.45
X58.933Y-44.45
X61.473Y-44.45
X64.76Y-74.676
X65.283Y-44.45
X67.3Y-74.676
X67.823Y-44.45
X69.84Y-74.676
X70.363Y-44.45
X72.38Y-74.676
X72.903Y-44.45
X75.443Y-44.45
X79.253Y-44.45
X81.793Y-44.45
X84.333Y-44.45
X86.873Y-44.45
X89.413Y-44.45
X92.202Y-72.39
X92.202Y-74.93
X92.202Y-77.47
X92.202Y-80.01
X92.202Y-82.55
X92.202Y-85.09
X99.468Y-30.308
X99.468Y-45.308
X102.108Y-72.39
X102.108Y-74.93
X102.108Y-77.47
X102.108Y-80.01
X102.108Y-82.55
X102.108Y-85.09
X113.792Y-73.65
X113.792Y-76.19
X113.792Y-78.73
X113.792Y-81.27
X128.548Y-35.308
X128.548Y-40.308
X170.297Y-30.438
X184.404Y-54.356
X184.404Y-59.356
X189.404Y-54.356
X189.404Y-59.356
X204.416Y-68.88
X204.416Y-80.88
T9
X158.213Y-55.123
X158.213Y-57.663
X180.058Y-72.649
X180.058Y-75.189
X195.834Y-53.594
X195.834Y-58.928
X208.026Y-40.894
X208.026Y-43.434
X208.816Y-29.459
X208.816Y-31.999
X211.074Y-53.594
X211.074Y-58.928
T10
X176.53Y-29.972
X176.784Y-41.402
X192.166Y-80.93
X192.216Y-68.88
X199.03Y-29.972
X199.284Y-41.402
X206.366Y-74.93
M30
