%TF.GenerationSoftware,KiCad,Pcbnew,9.0.0*%
%TF.CreationDate,2025-05-27T07:27:55-06:00*%
%TF.ProjectId,horno_reflujo,686f726e-6f5f-4726-9566-6c756a6f2e6b,rev?*%
%TF.SameCoordinates,Original*%
%TF.FileFunction,Copper,L2,Bot*%
%TF.FilePolarity,Positive*%
%FSLAX46Y46*%
G04 Gerber Fmt 4.6, Leading zero omitted, Abs format (unit mm)*
G04 Created by KiCad (PCBNEW 9.0.0) date 2025-05-27 07:27:55*
%MOMM*%
%LPD*%
G01*
G04 APERTURE LIST*
G04 Aperture macros list*
%AMRoundRect*
0 Rectangle with rounded corners*
0 $1 Rounding radius*
0 $2 $3 $4 $5 $6 $7 $8 $9 X,Y pos of 4 corners*
0 Add a 4 corners polygon primitive as box body*
4,1,4,$2,$3,$4,$5,$6,$7,$8,$9,$2,$3,0*
0 Add four circle primitives for the rounded corners*
1,1,$1+$1,$2,$3*
1,1,$1+$1,$4,$5*
1,1,$1+$1,$6,$7*
1,1,$1+$1,$8,$9*
0 Add four rect primitives between the rounded corners*
20,1,$1+$1,$2,$3,$4,$5,0*
20,1,$1+$1,$4,$5,$6,$7,0*
20,1,$1+$1,$6,$7,$8,$9,0*
20,1,$1+$1,$8,$9,$2,$3,0*%
G04 Aperture macros list end*
%TA.AperFunction,EtchedComponent*%
%ADD10C,0.000000*%
%TD*%
%TA.AperFunction,ComponentPad*%
%ADD11C,3.000000*%
%TD*%
%TA.AperFunction,ComponentPad*%
%ADD12R,1.700000X1.700000*%
%TD*%
%TA.AperFunction,ComponentPad*%
%ADD13O,1.700000X1.700000*%
%TD*%
%TA.AperFunction,ComponentPad*%
%ADD14RoundRect,0.250000X-0.750000X0.750000X-0.750000X-0.750000X0.750000X-0.750000X0.750000X0.750000X0*%
%TD*%
%TA.AperFunction,ComponentPad*%
%ADD15C,2.000000*%
%TD*%
%TA.AperFunction,ComponentPad*%
%ADD16C,2.500000*%
%TD*%
%TA.AperFunction,ComponentPad*%
%ADD17C,1.600000*%
%TD*%
%TA.AperFunction,ComponentPad*%
%ADD18R,1.300000X1.300000*%
%TD*%
%TA.AperFunction,ComponentPad*%
%ADD19C,1.300000*%
%TD*%
%TA.AperFunction,ComponentPad*%
%ADD20R,1.800000X1.800000*%
%TD*%
%TA.AperFunction,ComponentPad*%
%ADD21O,1.800000X1.800000*%
%TD*%
%TA.AperFunction,ComponentPad*%
%ADD22RoundRect,0.250000X0.750000X-0.750000X0.750000X0.750000X-0.750000X0.750000X-0.750000X-0.750000X0*%
%TD*%
%TA.AperFunction,ComponentPad*%
%ADD23R,1.600000X1.600000*%
%TD*%
%TA.AperFunction,ComponentPad*%
%ADD24RoundRect,0.250000X0.950000X0.550000X-0.950000X0.550000X-0.950000X-0.550000X0.950000X-0.550000X0*%
%TD*%
%TA.AperFunction,ComponentPad*%
%ADD25O,2.400000X1.600000*%
%TD*%
%TA.AperFunction,ComponentPad*%
%ADD26C,1.400000*%
%TD*%
%TA.AperFunction,ComponentPad*%
%ADD27O,1.400000X1.400000*%
%TD*%
%TA.AperFunction,ComponentPad*%
%ADD28C,2.400000*%
%TD*%
%TA.AperFunction,ComponentPad*%
%ADD29O,2.400000X2.400000*%
%TD*%
%TA.AperFunction,ComponentPad*%
%ADD30RoundRect,0.250000X0.550000X-0.550000X0.550000X0.550000X-0.550000X0.550000X-0.550000X-0.550000X0*%
%TD*%
%TA.AperFunction,ComponentPad*%
%ADD31R,2.000000X2.000000*%
%TD*%
%TA.AperFunction,ComponentPad*%
%ADD32O,2.000000X2.000000*%
%TD*%
%TA.AperFunction,ComponentPad*%
%ADD33R,1.700000X2.000000*%
%TD*%
%TA.AperFunction,ComponentPad*%
%ADD34O,1.700000X2.000000*%
%TD*%
%TA.AperFunction,ComponentPad*%
%ADD35R,1.524000X1.524000*%
%TD*%
%TA.AperFunction,ComponentPad*%
%ADD36C,1.524000*%
%TD*%
%TA.AperFunction,ViaPad*%
%ADD37C,0.600000*%
%TD*%
%TA.AperFunction,Conductor*%
%ADD38C,0.200000*%
%TD*%
G04 APERTURE END LIST*
D10*
%TA.AperFunction,EtchedComponent*%
%TO.C,G\u002A\u002A\u002A*%
G36*
X39448699Y-82891505D02*
G01*
X39536821Y-82962298D01*
X39482890Y-83086221D01*
X39454002Y-83111255D01*
X39336908Y-83132275D01*
X39285334Y-83015666D01*
X39300086Y-82956439D01*
X39412334Y-82888666D01*
X39448699Y-82891505D01*
G37*
%TD.AperFunction*%
%TA.AperFunction,EtchedComponent*%
G36*
X43758688Y-82890496D02*
G01*
X43883498Y-82970395D01*
X43922234Y-83111433D01*
X43848505Y-83234581D01*
X43728366Y-83296605D01*
X43630379Y-83272966D01*
X43603334Y-83100333D01*
X43628097Y-82961982D01*
X43732991Y-82888666D01*
X43758688Y-82890496D01*
G37*
%TD.AperFunction*%
%TA.AperFunction,EtchedComponent*%
G36*
X39572395Y-83425841D02*
G01*
X39676337Y-83515713D01*
X39670894Y-83643289D01*
X39634668Y-83683857D01*
X39493770Y-83733222D01*
X39350737Y-83704568D01*
X39285334Y-83605675D01*
X39301875Y-83536831D01*
X39418025Y-83425100D01*
X39418470Y-83424929D01*
X39572395Y-83425841D01*
G37*
%TD.AperFunction*%
%TA.AperFunction,EtchedComponent*%
G36*
X46971162Y-83020467D02*
G01*
X47106000Y-83153109D01*
X47146420Y-83356341D01*
X47019212Y-83580499D01*
X46886466Y-83702106D01*
X46754454Y-83731274D01*
X46676768Y-83601744D01*
X46651334Y-83311999D01*
X46659526Y-83060239D01*
X46701004Y-82922520D01*
X46797622Y-82915882D01*
X46971162Y-83020467D01*
G37*
%TD.AperFunction*%
%TA.AperFunction,EtchedComponent*%
G36*
X41484104Y-83013346D02*
G01*
X41602495Y-83151358D01*
X41642839Y-83359656D01*
X41515879Y-83580499D01*
X41433816Y-83653704D01*
X41214215Y-83729902D01*
X41007297Y-83676398D01*
X40860994Y-83514883D01*
X40823237Y-83267049D01*
X40878875Y-83095218D01*
X41044302Y-82940691D01*
X41263711Y-82906618D01*
X41484104Y-83013346D01*
G37*
%TD.AperFunction*%
%TA.AperFunction,EtchedComponent*%
G36*
X42452264Y-82910436D02*
G01*
X42624156Y-82971237D01*
X42689523Y-83003872D01*
X42822938Y-83170996D01*
X42831682Y-83389146D01*
X42708287Y-83602285D01*
X42580665Y-83708280D01*
X42441758Y-83734201D01*
X42360065Y-83602689D01*
X42333334Y-83311999D01*
X42335813Y-83159698D01*
X42349144Y-82964870D01*
X42370156Y-82888666D01*
X42452264Y-82910436D01*
G37*
%TD.AperFunction*%
%TA.AperFunction,EtchedComponent*%
G36*
X45364401Y-82990266D02*
G01*
X45383822Y-83012728D01*
X45455794Y-83211751D01*
X45449320Y-83450361D01*
X45364401Y-83633733D01*
X45355932Y-83641915D01*
X45151837Y-83732247D01*
X44925323Y-83689187D01*
X44738548Y-83523666D01*
X44663455Y-83396337D01*
X44648966Y-83266042D01*
X44738548Y-83100333D01*
X44745955Y-83089358D01*
X44936180Y-82929678D01*
X45163048Y-82893003D01*
X45364401Y-82990266D01*
G37*
%TD.AperFunction*%
%TA.AperFunction,EtchedComponent*%
G36*
X50884667Y-75677997D02*
G01*
X50884667Y-76923936D01*
X50884667Y-78993999D01*
X50884667Y-81237666D01*
X50884667Y-81660999D01*
X50884667Y-83311999D01*
X50884667Y-84116333D01*
X50884667Y-87460666D01*
X42418001Y-87460666D01*
X33951334Y-87460666D01*
X33951334Y-83311999D01*
X37253334Y-83311999D01*
X37253957Y-83490583D01*
X37262459Y-83759879D01*
X37287734Y-83910061D01*
X37338298Y-83975192D01*
X37422667Y-83989333D01*
X37467314Y-83986840D01*
X37534637Y-83952835D01*
X37572183Y-83851734D01*
X37588466Y-83649476D01*
X37592001Y-83311999D01*
X37591378Y-83133415D01*
X37582876Y-82864120D01*
X37557601Y-82713938D01*
X37507037Y-82648807D01*
X37422667Y-82634666D01*
X37378021Y-82637158D01*
X37310698Y-82671164D01*
X37273152Y-82772265D01*
X37256869Y-82974523D01*
X37253334Y-83311999D01*
X33951334Y-83311999D01*
X33951334Y-82514031D01*
X37676667Y-82514031D01*
X37676667Y-83294015D01*
X37676772Y-83311999D01*
X37678563Y-83619405D01*
X37689508Y-83866102D01*
X37716450Y-84002850D01*
X37766307Y-84061524D01*
X37846001Y-84073999D01*
X37870644Y-84073353D01*
X37963043Y-84038536D01*
X38005265Y-83919913D01*
X38015334Y-83675015D01*
X38015334Y-83276031D01*
X38442149Y-83696182D01*
X38868964Y-84116333D01*
X38844316Y-83354333D01*
X38843897Y-83341503D01*
X38826134Y-82971640D01*
X38798732Y-82742202D01*
X38759580Y-82634666D01*
X39031334Y-82634666D01*
X39031334Y-83354333D01*
X39031334Y-84073999D01*
X39306501Y-84068269D01*
X39619122Y-84023249D01*
X39866688Y-83908647D01*
X39991114Y-83745375D01*
X40020422Y-83691098D01*
X40037513Y-83798833D01*
X40074317Y-83928807D01*
X40216667Y-83989333D01*
X40261314Y-83986840D01*
X40328637Y-83952835D01*
X40366183Y-83851734D01*
X40382466Y-83649476D01*
X40386001Y-83311999D01*
X40385615Y-83201298D01*
X40488697Y-83201298D01*
X40494760Y-83311999D01*
X40504583Y-83491335D01*
X40661167Y-83773035D01*
X40874282Y-83946119D01*
X41177157Y-84036384D01*
X41478649Y-83991565D01*
X41736386Y-83819927D01*
X41907996Y-83529740D01*
X41928576Y-83455810D01*
X41927467Y-83122455D01*
X41901957Y-83073284D01*
X42050144Y-83073284D01*
X42065392Y-83448641D01*
X42065768Y-83455810D01*
X42093783Y-83989333D01*
X42409043Y-83989333D01*
X42667783Y-83961586D01*
X42921738Y-83825609D01*
X43083008Y-83561714D01*
X43108683Y-83482520D01*
X43116432Y-83360541D01*
X43264667Y-83360541D01*
X43265359Y-83548950D01*
X43273617Y-83830648D01*
X43296486Y-83988804D01*
X43340497Y-84054297D01*
X43412182Y-84058007D01*
X43528683Y-83971348D01*
X43613831Y-83776632D01*
X43618085Y-83757191D01*
X43657509Y-83618646D01*
X43680676Y-83608333D01*
X43704203Y-83676075D01*
X43796852Y-83828845D01*
X43798184Y-83830577D01*
X43918984Y-83933887D01*
X44079792Y-84019035D01*
X44220417Y-84060601D01*
X44280667Y-84033167D01*
X44280534Y-84030504D01*
X44241500Y-83919740D01*
X44153978Y-83735933D01*
X44084001Y-83548883D01*
X44111645Y-83438807D01*
X44118406Y-83433704D01*
X44171714Y-83311999D01*
X44365334Y-83311999D01*
X44370866Y-83435767D01*
X44441132Y-83656997D01*
X44625830Y-83854806D01*
X44708874Y-83919641D01*
X44953763Y-84033167D01*
X45001767Y-84055421D01*
X45279828Y-84024521D01*
X45557180Y-83826512D01*
X45702925Y-83646006D01*
X45811673Y-83339485D01*
X45806813Y-83311999D01*
X45889334Y-83311999D01*
X45889704Y-83339485D01*
X45893377Y-83612007D01*
X45912065Y-83841677D01*
X45951172Y-83957430D01*
X46016334Y-83989333D01*
X46312667Y-83989333D01*
X46693667Y-83989333D01*
X46888542Y-83976539D01*
X47184829Y-83870328D01*
X47357392Y-83651043D01*
X47413334Y-83311999D01*
X47399741Y-83128588D01*
X47286892Y-82849730D01*
X47053902Y-82687318D01*
X46693667Y-82634666D01*
X46312667Y-82634666D01*
X46312667Y-83311999D01*
X46312667Y-83989333D01*
X46016334Y-83989333D01*
X46072586Y-83967770D01*
X46115649Y-83868101D01*
X46137352Y-83659533D01*
X46143334Y-83311999D01*
X46139291Y-83011991D01*
X46120603Y-82782321D01*
X46081497Y-82666569D01*
X46016334Y-82634666D01*
X45960083Y-82656228D01*
X45917020Y-82755897D01*
X45895316Y-82964465D01*
X45889334Y-83311999D01*
X45806813Y-83311999D01*
X45758662Y-83039696D01*
X45544171Y-82769192D01*
X45487258Y-82723542D01*
X45198170Y-82574698D01*
X44919801Y-82589914D01*
X44625830Y-82769192D01*
X44529949Y-82856743D01*
X44399461Y-83053833D01*
X44365334Y-83311999D01*
X44171714Y-83311999D01*
X44173428Y-83308087D01*
X44196001Y-83098315D01*
X44191026Y-83006175D01*
X44106959Y-82790788D01*
X43904910Y-82671448D01*
X43566567Y-82634666D01*
X43264667Y-82634666D01*
X43264667Y-83149316D01*
X43264667Y-83360541D01*
X43116432Y-83360541D01*
X43129850Y-83149316D01*
X43007429Y-82880169D01*
X42759806Y-82700234D01*
X42405370Y-82634666D01*
X42379284Y-82634743D01*
X42212352Y-82647498D01*
X42110560Y-82703988D01*
X42060845Y-82835491D01*
X42050144Y-83073284D01*
X41901957Y-83073284D01*
X41779773Y-82837776D01*
X41503677Y-82641711D01*
X41356588Y-82596337D01*
X41047455Y-82600442D01*
X40783910Y-82723922D01*
X40589732Y-82934851D01*
X40488697Y-83201298D01*
X40385615Y-83201298D01*
X40385378Y-83133415D01*
X40376876Y-82864120D01*
X40351601Y-82713938D01*
X40301037Y-82648807D01*
X40216667Y-82634666D01*
X40149124Y-82641656D01*
X40083371Y-82698177D01*
X40053850Y-82844989D01*
X40046813Y-83121499D01*
X40046757Y-83166848D01*
X40043752Y-83415611D01*
X40028649Y-83518120D01*
X39990864Y-83494736D01*
X39919813Y-83365821D01*
X39831191Y-83154760D01*
X39793334Y-82980588D01*
X39761786Y-82835077D01*
X39599170Y-82686454D01*
X39310734Y-82634666D01*
X39031334Y-82634666D01*
X38759580Y-82634666D01*
X38756105Y-82625122D01*
X38692667Y-82592333D01*
X38655847Y-82599634D01*
X38578859Y-82708845D01*
X38539018Y-82964749D01*
X38512368Y-83337166D01*
X38094518Y-82925599D01*
X37676667Y-82514031D01*
X33951334Y-82514031D01*
X33951334Y-78993999D01*
X33951334Y-78951666D01*
X40895311Y-78951666D01*
X40949082Y-79247999D01*
X40951818Y-79262841D01*
X41100301Y-79804065D01*
X41329048Y-80338441D01*
X41603543Y-80784914D01*
X41702401Y-80918242D01*
X41890328Y-81188054D01*
X42028575Y-81406999D01*
X42173390Y-81660999D01*
X42125811Y-81364666D01*
X42124894Y-81359235D01*
X42061599Y-81151155D01*
X41935381Y-80838887D01*
X41766260Y-80463820D01*
X41574252Y-80067343D01*
X41379378Y-79690843D01*
X41201654Y-79375710D01*
X41061099Y-79163333D01*
X40895311Y-78951666D01*
X33951334Y-78951666D01*
X33951334Y-76930188D01*
X40386828Y-76930188D01*
X40387870Y-77019821D01*
X40410483Y-77290237D01*
X40471245Y-77561845D01*
X40581542Y-77862432D01*
X40752759Y-78219782D01*
X40996283Y-78661681D01*
X41323501Y-79215915D01*
X41432909Y-79399762D01*
X41680825Y-79830906D01*
X41901112Y-80233094D01*
X42073142Y-80568066D01*
X42176284Y-80797560D01*
X42342186Y-81237666D01*
X42300067Y-80681744D01*
X42252012Y-80297680D01*
X42143235Y-79859763D01*
X41964531Y-79396244D01*
X41702393Y-78872872D01*
X41343316Y-78255396D01*
X41125155Y-77890802D01*
X40899932Y-77500958D01*
X40711913Y-77161759D01*
X40587392Y-76919666D01*
X40387655Y-76496333D01*
X40386828Y-76930188D01*
X33951334Y-76930188D01*
X33951334Y-75734333D01*
X40516263Y-75734333D01*
X40516921Y-75786024D01*
X40540749Y-76098565D01*
X40606834Y-76408251D01*
X40726697Y-76743004D01*
X40911862Y-77130745D01*
X41173848Y-77599394D01*
X41524178Y-78176872D01*
X41742778Y-78557606D01*
X42017903Y-79126119D01*
X42220993Y-79658539D01*
X42270959Y-79813756D01*
X42377531Y-80125783D01*
X42465588Y-80358862D01*
X42519850Y-80471433D01*
X42529656Y-80479348D01*
X42562863Y-80420788D01*
X42580520Y-80234911D01*
X42583548Y-79955285D01*
X42572866Y-79615480D01*
X42549394Y-79249063D01*
X42514053Y-78889602D01*
X42467762Y-78570666D01*
X42467232Y-78567710D01*
X42391041Y-78203446D01*
X42300683Y-77857778D01*
X42215604Y-77605166D01*
X42181203Y-77520183D01*
X42116474Y-77334877D01*
X42102930Y-77248848D01*
X42194121Y-77200665D01*
X42429018Y-77132677D01*
X42753507Y-77066234D01*
X43122636Y-77009087D01*
X43491452Y-76968985D01*
X43815001Y-76953679D01*
X44120017Y-76952462D01*
X44320771Y-76944922D01*
X44393021Y-76923936D01*
X44358348Y-76882329D01*
X44238334Y-76812926D01*
X44134416Y-76768220D01*
X43867047Y-76705127D01*
X43470968Y-76657375D01*
X42926001Y-76622029D01*
X42663145Y-76607728D01*
X42181042Y-76566061D01*
X41824622Y-76503777D01*
X41563793Y-76411768D01*
X41368460Y-76280923D01*
X41208532Y-76102132D01*
X41130703Y-75958336D01*
X41079005Y-75741071D01*
X41317442Y-75741071D01*
X41357831Y-75962926D01*
X41481101Y-76112354D01*
X41661155Y-76186767D01*
X41815437Y-76157726D01*
X41962392Y-75984864D01*
X42006458Y-75902397D01*
X42037550Y-75677997D01*
X41960303Y-75487858D01*
X41808759Y-75365172D01*
X41616956Y-75343133D01*
X41418934Y-75454933D01*
X41367424Y-75525986D01*
X41317442Y-75741071D01*
X41079005Y-75741071D01*
X41049408Y-75616689D01*
X41038621Y-75210885D01*
X41097741Y-74797908D01*
X41226165Y-74434746D01*
X41410162Y-74074082D01*
X41190945Y-74217718D01*
X41106014Y-74286777D01*
X40917794Y-74496519D01*
X40742364Y-74751510D01*
X40674525Y-74872678D01*
X40573871Y-75112938D01*
X40526693Y-75375918D01*
X40516263Y-75734333D01*
X33951334Y-75734333D01*
X33951334Y-73866669D01*
X41571334Y-73866669D01*
X41576178Y-73963148D01*
X41624126Y-74099168D01*
X41703141Y-74075573D01*
X41788055Y-73889690D01*
X41901047Y-73684666D01*
X42110379Y-73468065D01*
X42353899Y-73302588D01*
X42573362Y-73236666D01*
X42613891Y-73246734D01*
X42598630Y-73328250D01*
X42455008Y-73501639D01*
X42329757Y-73642388D01*
X42298997Y-73705221D01*
X42382970Y-73675414D01*
X42500931Y-73597228D01*
X42684580Y-73435231D01*
X42868583Y-73241203D01*
X43021539Y-73051640D01*
X43112048Y-72903041D01*
X43108708Y-72831901D01*
X42976331Y-72848480D01*
X42744282Y-72931048D01*
X42459396Y-73057781D01*
X42167805Y-73206613D01*
X41915639Y-73355477D01*
X41749028Y-73482305D01*
X41629955Y-73654977D01*
X41571334Y-73866669D01*
X33951334Y-73866669D01*
X33951334Y-70527333D01*
X42418001Y-70527333D01*
X50884667Y-70527333D01*
X50884667Y-72903041D01*
X50884667Y-75677997D01*
G37*
%TD.AperFunction*%
%TD*%
D11*
%TO.P,F2,1*%
%TO.N,LINE*%
X199030000Y-29972000D03*
%TO.P,F2,2*%
%TO.N,Net-(J8-Pin_1)*%
X176530000Y-29972000D03*
%TD*%
D12*
%TO.P,J15,1,Pin_1*%
%TO.N,GND*%
X37343000Y-44450000D03*
D13*
%TO.P,J15,2,Pin_2*%
%TO.N,+3.3V*%
X39883000Y-44450000D03*
%TO.P,J15,3,Pin_3*%
%TO.N,SPI1_SCK*%
X42423000Y-44450000D03*
%TO.P,J15,4,Pin_4*%
%TO.N,CS_3*%
X44963000Y-44450000D03*
%TO.P,J15,5,Pin_5*%
%TO.N,SPI1_MISO*%
X47503000Y-44450000D03*
%TD*%
D14*
%TO.P,J11,1,Pin_1*%
%TO.N,NEUT*%
X208816500Y-29459000D03*
D15*
%TO.P,J11,2,Pin_2*%
%TO.N,unconnected-(J11-Pin_2-Pad2)*%
X208816500Y-31999000D03*
%TD*%
D12*
%TO.P,J12,1,Pin_1*%
%TO.N,ENCODER_BTN*%
X32526000Y-53342000D03*
D13*
%TO.P,J12,2,Pin_2*%
%TO.N,ENCODER_B*%
X32526000Y-55882000D03*
%TO.P,J12,3,Pin_3*%
%TO.N,ENCODER_A*%
X32526000Y-58422000D03*
%TO.P,J12,4,Pin_4*%
%TO.N,GND*%
X32526000Y-60962000D03*
%TO.P,J12,5,Pin_5*%
X32526000Y-63502000D03*
%TD*%
D12*
%TO.P,J8,1,Pin_1*%
%TO.N,Net-(J8-Pin_1)*%
X170297500Y-30437500D03*
%TD*%
D11*
%TO.P,K1,1*%
%TO.N,NEUT*%
X206366000Y-74930000D03*
D16*
%TO.P,K1,2*%
%TO.N,Net-(D3-A)*%
X204416000Y-68880000D03*
D11*
%TO.P,K1,3*%
%TO.N,Bobina_ventilador*%
X192216000Y-68880000D03*
%TO.P,K1,4*%
%TO.N,unconnected-(K1-Pad4)*%
X192166000Y-80930000D03*
D16*
%TO.P,K1,5*%
%TO.N,+5V*%
X204416000Y-80880000D03*
%TD*%
D17*
%TO.P,RV1,1*%
%TO.N,Net-(C2-Pad1)*%
X168264000Y-42632000D03*
%TO.P,RV1,2*%
%TO.N,NEUT*%
X170064000Y-37632000D03*
%TD*%
D11*
%TO.P,F1,1*%
%TO.N,LINE*%
X199284000Y-41402000D03*
%TO.P,F1,2*%
%TO.N,Net-(C2-Pad1)*%
X176784000Y-41402000D03*
%TD*%
D12*
%TO.P,J2,1,Pin_1*%
%TO.N,Net-(J2-Pin_1)*%
X102108000Y-85090000D03*
D13*
%TO.P,J2,2,Pin_2*%
%TO.N,Net-(J2-Pin_2)*%
X102108000Y-82550000D03*
%TO.P,J2,3,Pin_3*%
%TO.N,+5V*%
X102108000Y-80010000D03*
%TO.P,J2,4,Pin_4*%
%TO.N,GND*%
X102108000Y-77470000D03*
%TO.P,J2,5,Pin_5*%
%TO.N,zero*%
X102108000Y-74930000D03*
%TO.P,J2,6,Pin_6*%
%TO.N,unconnected-(J2-Pin_6-Pad6)*%
X102108000Y-72390000D03*
%TD*%
D18*
%TO.P,Q1,1,E*%
%TO.N,GND*%
X169820000Y-72898000D03*
D19*
%TO.P,Q1,2,B*%
%TO.N,Net-(Q1-B)*%
X171090000Y-74168000D03*
%TO.P,Q1,3,C*%
%TO.N,Net-(D3-A)*%
X169820000Y-75438000D03*
%TD*%
D20*
%TO.P,D3,1,K*%
%TO.N,+5V*%
X211074000Y-79502000D03*
D21*
%TO.P,D3,2,A*%
%TO.N,Net-(D3-A)*%
X211074000Y-69342000D03*
%TD*%
D22*
%TO.P,J7,1,Pin_1*%
%TO.N,Bobina_ventilador*%
X180057500Y-75189000D03*
D15*
%TO.P,J7,2,Pin_2*%
%TO.N,LINE*%
X180057500Y-72649000D03*
%TD*%
D23*
%TO.P,C1,1*%
%TO.N,+5V*%
X88900000Y-36132888D03*
D17*
%TO.P,C1,2*%
%TO.N,GND*%
X88900000Y-38632888D03*
%TD*%
D12*
%TO.P,J14,1,Pin_1*%
%TO.N,GND*%
X51313000Y-44450000D03*
D13*
%TO.P,J14,2,Pin_2*%
%TO.N,+3.3V*%
X53853000Y-44450000D03*
%TO.P,J14,3,Pin_3*%
%TO.N,SPI1_SCK*%
X56393000Y-44450000D03*
%TO.P,J14,4,Pin_4*%
%TO.N,CS_2*%
X58933000Y-44450000D03*
%TO.P,J14,5,Pin_5*%
%TO.N,SPI1_MISO*%
X61473000Y-44450000D03*
%TD*%
D24*
%TO.P,U3,1*%
%TO.N,Net-(OC1-Pad4)*%
X150114000Y-67559000D03*
D25*
%TO.P,U3,2*%
%TO.N,zero*%
X150114000Y-65019000D03*
%TO.P,U3,3*%
%TO.N,/fire*%
X150114000Y-62479000D03*
%TO.P,U3,4*%
%TO.N,Net-(J10-Pin_1)*%
X150114000Y-59939000D03*
%TO.P,U3,5*%
%TO.N,N/C*%
X150114000Y-57399000D03*
%TO.P,U3,6*%
X150114000Y-54859000D03*
%TO.P,U3,7,GND*%
%TO.N,GND*%
X150114000Y-52319000D03*
%TO.P,U3,8*%
%TO.N,N/C*%
X142494000Y-52319000D03*
%TO.P,U3,9*%
X142494000Y-54859000D03*
%TO.P,U3,10*%
X142494000Y-57399000D03*
%TO.P,U3,11*%
X142494000Y-59939000D03*
%TO.P,U3,12*%
%TO.N,Net-(R10-Pad2)*%
X142494000Y-62479000D03*
%TO.P,U3,13*%
%TO.N,/fan*%
X142494000Y-65019000D03*
%TO.P,U3,14,VCC*%
%TO.N,+5V*%
X142494000Y-67559000D03*
%TD*%
D12*
%TO.P,J3,1,Pin_1*%
%TO.N,+5V*%
X113792000Y-81270000D03*
D13*
%TO.P,J3,2,Pin_2*%
%TO.N,Net-(J2-Pin_1)*%
X113792000Y-78730000D03*
%TO.P,J3,3,Pin_3*%
%TO.N,Net-(J2-Pin_2)*%
X113792000Y-76190000D03*
%TO.P,J3,4,Pin_4*%
%TO.N,GND*%
X113792000Y-73650000D03*
%TD*%
D12*
%TO.P,J1,1,Pin_1*%
%TO.N,unconnected-(J1-Pin_1-Pad1)*%
X92202000Y-72390000D03*
D13*
%TO.P,J1,2,Pin_2*%
%TO.N,/zc*%
X92202000Y-74930000D03*
%TO.P,J1,3,Pin_3*%
%TO.N,GND*%
X92202000Y-77470000D03*
%TO.P,J1,4,Pin_4*%
%TO.N,+3.3V*%
X92202000Y-80010000D03*
%TO.P,J1,5,Pin_5*%
%TO.N,I2C1_SDA*%
X92202000Y-82550000D03*
%TO.P,J1,6,Pin_6*%
%TO.N,I2C1_SCL*%
X92202000Y-85090000D03*
%TD*%
D12*
%TO.P,J13,1,Pin_1*%
%TO.N,GND*%
X65283000Y-44450000D03*
D13*
%TO.P,J13,2,Pin_2*%
%TO.N,+3.3V*%
X67823000Y-44450000D03*
%TO.P,J13,3,Pin_3*%
%TO.N,SPI1_SCK*%
X70363000Y-44450000D03*
%TO.P,J13,4,Pin_4*%
%TO.N,CS_1*%
X72903000Y-44450000D03*
%TO.P,J13,5,Pin_5*%
%TO.N,SPI1_MISO*%
X75443000Y-44450000D03*
%TD*%
D26*
%TO.P,R9,1*%
%TO.N,ENCODER_B*%
X36830000Y-56642000D03*
D27*
%TO.P,R9,2*%
%TO.N,+5V*%
X44450000Y-56642000D03*
%TD*%
D22*
%TO.P,J10,1,Pin_1*%
%TO.N,Net-(J10-Pin_1)*%
X158213500Y-57663000D03*
D15*
%TO.P,J10,2,Pin_2*%
%TO.N,GND*%
X158213500Y-55123000D03*
%TD*%
D17*
%TO.P,C5,1*%
%TO.N,+5V*%
X135890000Y-62952000D03*
%TO.P,C5,2*%
%TO.N,GND*%
X135890000Y-57952000D03*
%TD*%
D23*
%TO.P,C9,1*%
%TO.N,+3.3V*%
X126492000Y-60895113D03*
D17*
%TO.P,C9,2*%
%TO.N,GND*%
X126492000Y-58395113D03*
%TD*%
D23*
%TO.P,C8,1*%
%TO.N,+5V*%
X106426000Y-52642888D03*
D17*
%TO.P,C8,2*%
%TO.N,GND*%
X106426000Y-55142888D03*
%TD*%
D28*
%TO.P,R5,1*%
%TO.N,Net-(D1-2)*%
X195834000Y-53594000D03*
D29*
%TO.P,R5,2*%
%TO.N,LINE*%
X211074000Y-53594000D03*
%TD*%
D26*
%TO.P,R11,1*%
%TO.N,ENCODER_BTN*%
X36830000Y-53594000D03*
D27*
%TO.P,R11,2*%
%TO.N,+5V*%
X44450000Y-53594000D03*
%TD*%
D17*
%TO.P,C2,1*%
%TO.N,Net-(C2-Pad1)*%
X157988000Y-41616000D03*
%TO.P,C2,2*%
%TO.N,NEUT*%
X157988000Y-36616000D03*
%TD*%
D12*
%TO.P,J5,1,Pin_1*%
%TO.N,+3.3V*%
X72380000Y-74676000D03*
D13*
%TO.P,J5,2,Pin_2*%
%TO.N,/Rx_mcu_esp01*%
X69840000Y-74676000D03*
%TO.P,J5,3,Pin_3*%
%TO.N,/Tx_mcu_esp01*%
X67300000Y-74676000D03*
%TO.P,J5,4,Pin_4*%
%TO.N,GND*%
X64760000Y-74676000D03*
%TD*%
D26*
%TO.P,R10,1*%
%TO.N,Net-(Q1-B)*%
X152400000Y-74168000D03*
D27*
%TO.P,R10,2*%
%TO.N,Net-(R10-Pad2)*%
X160020000Y-74168000D03*
%TD*%
D28*
%TO.P,R6,1*%
%TO.N,Net-(D1-1)*%
X195834000Y-58928000D03*
D29*
%TO.P,R6,2*%
%TO.N,NEUT*%
X211074000Y-58928000D03*
%TD*%
D30*
%TO.P,OC1,1*%
%TO.N,Net-(D1-+)*%
X174239000Y-61976000D03*
D17*
%TO.P,OC1,2*%
%TO.N,Net-(D1--)*%
X176779000Y-61976000D03*
%TO.P,OC1,3*%
%TO.N,GND*%
X176779000Y-51816000D03*
%TO.P,OC1,4*%
%TO.N,Net-(OC1-Pad4)*%
X174239000Y-51816000D03*
%TD*%
D31*
%TO.P,D1,1,+*%
%TO.N,Net-(D1-+)*%
X184404000Y-54356000D03*
D32*
%TO.P,D1,2,1*%
%TO.N,Net-(D1-1)*%
X184404000Y-59356000D03*
%TO.P,D1,3,-*%
%TO.N,Net-(D1--)*%
X189404000Y-59356000D03*
%TO.P,D1,4,2*%
%TO.N,Net-(D1-2)*%
X189404000Y-54356000D03*
%TD*%
D33*
%TO.P,PS1,1,AC/L*%
%TO.N,Net-(PS1-AC{slash}L)*%
X128548500Y-40308500D03*
D34*
%TO.P,PS1,2,AC/N*%
%TO.N,Net-(PS1-AC{slash}N)*%
X128548500Y-35308500D03*
%TO.P,PS1,3,-Vout*%
%TO.N,GND*%
X99468500Y-45308500D03*
%TO.P,PS1,4,+Vout*%
%TO.N,+5V*%
X99468500Y-30308500D03*
%TD*%
D35*
%TO.P,dev_board1,1,B12*%
%TO.N,unconnected-(dev_board1-B12-Pad1)*%
X49276000Y-68326000D03*
D36*
%TO.P,dev_board1,2,B13*%
%TO.N,unconnected-(dev_board1-B13-Pad2)*%
X51816000Y-68326000D03*
%TO.P,dev_board1,3,B14*%
%TO.N,unconnected-(dev_board1-B14-Pad3)*%
X54356000Y-68326000D03*
%TO.P,dev_board1,4,B15*%
%TO.N,unconnected-(dev_board1-B15-Pad4)*%
X56896000Y-68326000D03*
%TO.P,dev_board1,5,A8*%
%TO.N,/zc*%
X59436000Y-68326000D03*
%TO.P,dev_board1,6,A9*%
%TO.N,/fire*%
X61976000Y-68326000D03*
%TO.P,dev_board1,7,A10*%
%TO.N,/Tx_mcu_esp01*%
X64516000Y-68326000D03*
%TO.P,dev_board1,8,A11*%
%TO.N,/fan*%
X67056000Y-68326000D03*
%TO.P,dev_board1,9,A12*%
%TO.N,unconnected-(dev_board1-A12-Pad9)*%
X69596000Y-68326000D03*
%TO.P,dev_board1,10,A15*%
%TO.N,/Rx_mcu_esp01*%
X72136000Y-68326000D03*
%TO.P,dev_board1,11,B3*%
%TO.N,unconnected-(dev_board1-B3-Pad11)*%
X74676000Y-68326000D03*
%TO.P,dev_board1,12,B4*%
%TO.N,unconnected-(dev_board1-B4-Pad12)*%
X77216000Y-68326000D03*
%TO.P,dev_board1,13,B5*%
%TO.N,unconnected-(dev_board1-B5-Pad13)*%
X79756000Y-68326000D03*
%TO.P,dev_board1,14,B6*%
%TO.N,I2C1_SCL*%
X82296000Y-68326000D03*
%TO.P,dev_board1,15,B7*%
%TO.N,I2C1_SDA*%
X84836000Y-68326000D03*
%TO.P,dev_board1,16,B8*%
%TO.N,unconnected-(dev_board1-B8-Pad16)*%
X87376000Y-68326000D03*
%TO.P,dev_board1,17,B9*%
%TO.N,unconnected-(dev_board1-B9-Pad17)*%
X89916000Y-68326000D03*
%TO.P,dev_board1,18,5V*%
%TO.N,unconnected-(dev_board1-5V-Pad18)*%
X92456000Y-68326000D03*
%TO.P,dev_board1,19,G*%
%TO.N,GND*%
X94996000Y-68326000D03*
%TO.P,dev_board1,20,3.3*%
%TO.N,unconnected-(dev_board1-3.3-Pad20)*%
X97536000Y-68326000D03*
%TO.P,dev_board1,21,VB*%
%TO.N,unconnected-(dev_board1-VB-Pad21)*%
X97536000Y-53086000D03*
%TO.P,dev_board1,22,C13*%
%TO.N,built_in_led*%
X94996000Y-53086000D03*
%TO.P,dev_board1,23,C14*%
%TO.N,unconnected-(dev_board1-C14-Pad23)*%
X92456000Y-53086000D03*
%TO.P,dev_board1,24,C15*%
%TO.N,unconnected-(dev_board1-C15-Pad24)*%
X89916000Y-53086000D03*
%TO.P,dev_board1,25,R*%
%TO.N,unconnected-(dev_board1-R-Pad25)*%
X87376000Y-53086000D03*
%TO.P,dev_board1,26,A0*%
%TO.N,ENCODER_A*%
X84836000Y-53086000D03*
%TO.P,dev_board1,27,A1*%
%TO.N,ENCODER_B*%
X82296000Y-53086000D03*
%TO.P,dev_board1,28,A2*%
%TO.N,ENCODER_BTN*%
X79756000Y-53086000D03*
%TO.P,dev_board1,29,A3*%
%TO.N,unconnected-(dev_board1-A3-Pad29)*%
X77216000Y-53086000D03*
%TO.P,dev_board1,30,A4*%
%TO.N,unconnected-(dev_board1-A4-Pad30)*%
X74676000Y-53086000D03*
%TO.P,dev_board1,31,A5*%
%TO.N,SPI1_SCK*%
X72136000Y-53086000D03*
%TO.P,dev_board1,32,A6*%
%TO.N,SPI1_MISO*%
X69596000Y-53086000D03*
%TO.P,dev_board1,33,A7*%
%TO.N,CS_0*%
X67056000Y-53086000D03*
%TO.P,dev_board1,34,B0*%
%TO.N,CS_1*%
X64516000Y-53086000D03*
%TO.P,dev_board1,35,B1*%
%TO.N,CS_2*%
X61976000Y-53086000D03*
%TO.P,dev_board1,36,B2*%
%TO.N,CS_3*%
X59436000Y-53086000D03*
%TO.P,dev_board1,37,B10*%
%TO.N,unconnected-(dev_board1-B10-Pad37)*%
X56896000Y-53086000D03*
%TO.P,dev_board1,38,3.3*%
%TO.N,unconnected-(dev_board1-3.3-Pad38)*%
X54356000Y-53086000D03*
%TO.P,dev_board1,39,G*%
%TO.N,GND*%
X51816000Y-53086000D03*
%TO.P,dev_board1,40,5V*%
%TO.N,+5V*%
X49276000Y-53086000D03*
%TD*%
D22*
%TO.P,J6,1,Pin_1*%
%TO.N,LINE*%
X208026000Y-43434000D03*
D15*
%TO.P,J6,2,Pin_2*%
%TO.N,NEUT*%
X208026000Y-40894000D03*
%TD*%
D31*
%TO.P,FL1,1,1*%
%TO.N,Net-(C2-Pad1)*%
X149129500Y-43973500D03*
D15*
%TO.P,FL1,2,2*%
%TO.N,Net-(PS1-AC{slash}L)*%
X139129500Y-43973500D03*
%TO.P,FL1,3,3*%
%TO.N,NEUT*%
X149129500Y-33973500D03*
%TO.P,FL1,4,4*%
%TO.N,Net-(PS1-AC{slash}N)*%
X139129500Y-33973500D03*
%TD*%
D26*
%TO.P,R7,1*%
%TO.N,Net-(OC1-Pad4)*%
X166878000Y-53086000D03*
D27*
%TO.P,R7,2*%
%TO.N,+5V*%
X166878000Y-60706000D03*
%TD*%
D26*
%TO.P,R8,1*%
%TO.N,ENCODER_A*%
X36830000Y-59690000D03*
D27*
%TO.P,R8,2*%
%TO.N,+5V*%
X44450000Y-59690000D03*
%TD*%
D12*
%TO.P,J4,1,Pin_1*%
%TO.N,GND*%
X79253000Y-44450000D03*
D13*
%TO.P,J4,2,Pin_2*%
%TO.N,+3.3V*%
X81793000Y-44450000D03*
%TO.P,J4,3,Pin_3*%
%TO.N,SPI1_SCK*%
X84333000Y-44450000D03*
%TO.P,J4,4,Pin_4*%
%TO.N,CS_0*%
X86873000Y-44450000D03*
%TO.P,J4,5,Pin_5*%
%TO.N,SPI1_MISO*%
X89413000Y-44450000D03*
%TD*%
D37*
%TO.N,GND*%
X120904000Y-54864000D03*
%TO.N,+3.3V*%
X67271997Y-40132000D03*
%TO.N,Net-(Q1-B)*%
X166878000Y-74168000D03*
X152400000Y-77470000D03*
%TO.N,I2C1_SCL*%
X82296000Y-73406000D03*
X82296000Y-85090000D03*
%TO.N,/fan*%
X67056000Y-65278000D03*
X139700000Y-65024000D03*
%TO.N,/fire*%
X102108000Y-63246000D03*
X146558000Y-48768000D03*
%TO.N,Net-(R10-Pad2)*%
X160020000Y-69342000D03*
X153543000Y-69469000D03*
%TO.N,I2C1_SDA*%
X84836000Y-73660000D03*
X85090000Y-82550000D03*
%TO.N,/zc*%
X59436000Y-71628000D03*
X96012000Y-74930000D03*
%TO.N,zero*%
X146558000Y-65532000D03*
X137668000Y-70866000D03*
%TD*%
D38*
%TO.N,+3.3V*%
X81026000Y-39878000D02*
X80772000Y-40132000D01*
X67823000Y-40899000D02*
X67823000Y-44450000D01*
X58171000Y-40132000D02*
X67271997Y-40132000D01*
X81793000Y-40645000D02*
X81026000Y-39878000D01*
X67271997Y-40347997D02*
X67823000Y-40899000D01*
X81793000Y-44450000D02*
X81793000Y-40645000D01*
X80772000Y-40132000D02*
X67271997Y-40132000D01*
X53853000Y-44450000D02*
X58171000Y-40132000D01*
X67271997Y-40132000D02*
X67271997Y-40347997D01*
%TO.N,Net-(Q1-B)*%
X152654000Y-77216000D02*
X152400000Y-77470000D01*
X165608000Y-74168000D02*
X162560000Y-77216000D01*
X162560000Y-77216000D02*
X152654000Y-77216000D01*
X166878000Y-74168000D02*
X165608000Y-74168000D01*
%TO.N,I2C1_SCL*%
X82296000Y-73406000D02*
X82296000Y-85090000D01*
%TO.N,/fan*%
X139700000Y-65024000D02*
X67310000Y-65024000D01*
X67310000Y-65024000D02*
X67056000Y-65278000D01*
%TO.N,/fire*%
X102108000Y-63246000D02*
X104648000Y-63246000D01*
X135382000Y-52578000D02*
X136652000Y-51308000D01*
X115316000Y-52578000D02*
X135382000Y-52578000D01*
X139192000Y-48768000D02*
X146558000Y-48768000D01*
X104648000Y-63246000D02*
X115316000Y-52578000D01*
X136652000Y-51308000D02*
X139192000Y-48768000D01*
%TO.N,Net-(R10-Pad2)*%
X153670000Y-69342000D02*
X160020000Y-69342000D01*
X153543000Y-69469000D02*
X153670000Y-69342000D01*
%TO.N,I2C1_SDA*%
X84836000Y-82296000D02*
X85090000Y-82550000D01*
X84836000Y-73660000D02*
X84836000Y-82296000D01*
%TO.N,/zc*%
X61468000Y-87884000D02*
X58166000Y-84582000D01*
X96012000Y-86106000D02*
X94234000Y-87884000D01*
X96012000Y-74930000D02*
X96012000Y-86106000D01*
X58166000Y-84582000D02*
X58166000Y-72898000D01*
X94234000Y-87884000D02*
X61468000Y-87884000D01*
X58166000Y-72898000D02*
X59436000Y-71628000D01*
%TO.N,zero*%
X146558000Y-70104000D02*
X146558000Y-65532000D01*
X145796000Y-70866000D02*
X146558000Y-70104000D01*
X137668000Y-70866000D02*
X145796000Y-70866000D01*
%TD*%
M02*
