%TF.GenerationSoftware,KiCad,Pcbnew,9.0.0*%
%TF.CreationDate,2025-05-27T07:27:55-06:00*%
%TF.ProjectId,horno_reflujo,686f726e-6f5f-4726-9566-6c756a6f2e6b,rev?*%
%TF.SameCoordinates,Original*%
%TF.FileFunction,Legend,Top*%
%TF.FilePolarity,Positive*%
%FSLAX46Y46*%
G04 Gerber Fmt 4.6, Leading zero omitted, Abs format (unit mm)*
G04 Created by KiCad (PCBNEW 9.0.0) date 2025-05-27 07:27:55*
%MOMM*%
%LPD*%
G01*
G04 APERTURE LIST*
%ADD10C,0.150000*%
%ADD11C,0.120000*%
G04 APERTURE END LIST*
D10*
X187446666Y-35903009D02*
X187113333Y-35903009D01*
X187113333Y-36426819D02*
X187113333Y-35426819D01*
X187113333Y-35426819D02*
X187589523Y-35426819D01*
X187922857Y-35522057D02*
X187970476Y-35474438D01*
X187970476Y-35474438D02*
X188065714Y-35426819D01*
X188065714Y-35426819D02*
X188303809Y-35426819D01*
X188303809Y-35426819D02*
X188399047Y-35474438D01*
X188399047Y-35474438D02*
X188446666Y-35522057D01*
X188446666Y-35522057D02*
X188494285Y-35617295D01*
X188494285Y-35617295D02*
X188494285Y-35712533D01*
X188494285Y-35712533D02*
X188446666Y-35855390D01*
X188446666Y-35855390D02*
X187875238Y-36426819D01*
X187875238Y-36426819D02*
X188494285Y-36426819D01*
X34467819Y-45259523D02*
X35182104Y-45259523D01*
X35182104Y-45259523D02*
X35324961Y-45307142D01*
X35324961Y-45307142D02*
X35420200Y-45402380D01*
X35420200Y-45402380D02*
X35467819Y-45545237D01*
X35467819Y-45545237D02*
X35467819Y-45640475D01*
X35467819Y-44259523D02*
X35467819Y-44830951D01*
X35467819Y-44545237D02*
X34467819Y-44545237D01*
X34467819Y-44545237D02*
X34610676Y-44640475D01*
X34610676Y-44640475D02*
X34705914Y-44735713D01*
X34705914Y-44735713D02*
X34753533Y-44830951D01*
X34467819Y-43354761D02*
X34467819Y-43830951D01*
X34467819Y-43830951D02*
X34944009Y-43878570D01*
X34944009Y-43878570D02*
X34896390Y-43830951D01*
X34896390Y-43830951D02*
X34848771Y-43735713D01*
X34848771Y-43735713D02*
X34848771Y-43497618D01*
X34848771Y-43497618D02*
X34896390Y-43402380D01*
X34896390Y-43402380D02*
X34944009Y-43354761D01*
X34944009Y-43354761D02*
X35039247Y-43307142D01*
X35039247Y-43307142D02*
X35277342Y-43307142D01*
X35277342Y-43307142D02*
X35372580Y-43354761D01*
X35372580Y-43354761D02*
X35420200Y-43402380D01*
X35420200Y-43402380D02*
X35467819Y-43497618D01*
X35467819Y-43497618D02*
X35467819Y-43735713D01*
X35467819Y-43735713D02*
X35420200Y-43830951D01*
X35420200Y-43830951D02*
X35372580Y-43878570D01*
X212491319Y-31538523D02*
X213205604Y-31538523D01*
X213205604Y-31538523D02*
X213348461Y-31586142D01*
X213348461Y-31586142D02*
X213443700Y-31681380D01*
X213443700Y-31681380D02*
X213491319Y-31824237D01*
X213491319Y-31824237D02*
X213491319Y-31919475D01*
X213491319Y-30538523D02*
X213491319Y-31109951D01*
X213491319Y-30824237D02*
X212491319Y-30824237D01*
X212491319Y-30824237D02*
X212634176Y-30919475D01*
X212634176Y-30919475D02*
X212729414Y-31014713D01*
X212729414Y-31014713D02*
X212777033Y-31109951D01*
X213491319Y-29586142D02*
X213491319Y-30157570D01*
X213491319Y-29871856D02*
X212491319Y-29871856D01*
X212491319Y-29871856D02*
X212634176Y-29967094D01*
X212634176Y-29967094D02*
X212729414Y-30062332D01*
X212729414Y-30062332D02*
X212777033Y-30157570D01*
X31716476Y-50466819D02*
X31716476Y-51181104D01*
X31716476Y-51181104D02*
X31668857Y-51323961D01*
X31668857Y-51323961D02*
X31573619Y-51419200D01*
X31573619Y-51419200D02*
X31430762Y-51466819D01*
X31430762Y-51466819D02*
X31335524Y-51466819D01*
X32716476Y-51466819D02*
X32145048Y-51466819D01*
X32430762Y-51466819D02*
X32430762Y-50466819D01*
X32430762Y-50466819D02*
X32335524Y-50609676D01*
X32335524Y-50609676D02*
X32240286Y-50704914D01*
X32240286Y-50704914D02*
X32145048Y-50752533D01*
X33097429Y-50562057D02*
X33145048Y-50514438D01*
X33145048Y-50514438D02*
X33240286Y-50466819D01*
X33240286Y-50466819D02*
X33478381Y-50466819D01*
X33478381Y-50466819D02*
X33573619Y-50514438D01*
X33573619Y-50514438D02*
X33621238Y-50562057D01*
X33621238Y-50562057D02*
X33668857Y-50657295D01*
X33668857Y-50657295D02*
X33668857Y-50752533D01*
X33668857Y-50752533D02*
X33621238Y-50895390D01*
X33621238Y-50895390D02*
X33049810Y-51466819D01*
X33049810Y-51466819D02*
X33668857Y-51466819D01*
X169964166Y-27562319D02*
X169964166Y-28276604D01*
X169964166Y-28276604D02*
X169916547Y-28419461D01*
X169916547Y-28419461D02*
X169821309Y-28514700D01*
X169821309Y-28514700D02*
X169678452Y-28562319D01*
X169678452Y-28562319D02*
X169583214Y-28562319D01*
X170583214Y-27990890D02*
X170487976Y-27943271D01*
X170487976Y-27943271D02*
X170440357Y-27895652D01*
X170440357Y-27895652D02*
X170392738Y-27800414D01*
X170392738Y-27800414D02*
X170392738Y-27752795D01*
X170392738Y-27752795D02*
X170440357Y-27657557D01*
X170440357Y-27657557D02*
X170487976Y-27609938D01*
X170487976Y-27609938D02*
X170583214Y-27562319D01*
X170583214Y-27562319D02*
X170773690Y-27562319D01*
X170773690Y-27562319D02*
X170868928Y-27609938D01*
X170868928Y-27609938D02*
X170916547Y-27657557D01*
X170916547Y-27657557D02*
X170964166Y-27752795D01*
X170964166Y-27752795D02*
X170964166Y-27800414D01*
X170964166Y-27800414D02*
X170916547Y-27895652D01*
X170916547Y-27895652D02*
X170868928Y-27943271D01*
X170868928Y-27943271D02*
X170773690Y-27990890D01*
X170773690Y-27990890D02*
X170583214Y-27990890D01*
X170583214Y-27990890D02*
X170487976Y-28038509D01*
X170487976Y-28038509D02*
X170440357Y-28086128D01*
X170440357Y-28086128D02*
X170392738Y-28181366D01*
X170392738Y-28181366D02*
X170392738Y-28371842D01*
X170392738Y-28371842D02*
X170440357Y-28467080D01*
X170440357Y-28467080D02*
X170487976Y-28514700D01*
X170487976Y-28514700D02*
X170583214Y-28562319D01*
X170583214Y-28562319D02*
X170773690Y-28562319D01*
X170773690Y-28562319D02*
X170868928Y-28514700D01*
X170868928Y-28514700D02*
X170916547Y-28467080D01*
X170916547Y-28467080D02*
X170964166Y-28371842D01*
X170964166Y-28371842D02*
X170964166Y-28181366D01*
X170964166Y-28181366D02*
X170916547Y-28086128D01*
X170916547Y-28086128D02*
X170868928Y-28038509D01*
X170868928Y-28038509D02*
X170773690Y-27990890D01*
X197527905Y-66184819D02*
X197527905Y-65184819D01*
X198099333Y-66184819D02*
X197670762Y-65613390D01*
X198099333Y-65184819D02*
X197527905Y-65756247D01*
X199051714Y-66184819D02*
X198480286Y-66184819D01*
X198766000Y-66184819D02*
X198766000Y-65184819D01*
X198766000Y-65184819D02*
X198670762Y-65327676D01*
X198670762Y-65327676D02*
X198575524Y-65422914D01*
X198575524Y-65422914D02*
X198480286Y-65470533D01*
X172718819Y-40727238D02*
X172242628Y-41060571D01*
X172718819Y-41298666D02*
X171718819Y-41298666D01*
X171718819Y-41298666D02*
X171718819Y-40917714D01*
X171718819Y-40917714D02*
X171766438Y-40822476D01*
X171766438Y-40822476D02*
X171814057Y-40774857D01*
X171814057Y-40774857D02*
X171909295Y-40727238D01*
X171909295Y-40727238D02*
X172052152Y-40727238D01*
X172052152Y-40727238D02*
X172147390Y-40774857D01*
X172147390Y-40774857D02*
X172195009Y-40822476D01*
X172195009Y-40822476D02*
X172242628Y-40917714D01*
X172242628Y-40917714D02*
X172242628Y-41298666D01*
X171718819Y-40441523D02*
X172718819Y-40108190D01*
X172718819Y-40108190D02*
X171718819Y-39774857D01*
X172718819Y-38917714D02*
X172718819Y-39489142D01*
X172718819Y-39203428D02*
X171718819Y-39203428D01*
X171718819Y-39203428D02*
X171861676Y-39298666D01*
X171861676Y-39298666D02*
X171956914Y-39393904D01*
X171956914Y-39393904D02*
X172004533Y-39489142D01*
X187700666Y-47333009D02*
X187367333Y-47333009D01*
X187367333Y-47856819D02*
X187367333Y-46856819D01*
X187367333Y-46856819D02*
X187843523Y-46856819D01*
X188748285Y-47856819D02*
X188176857Y-47856819D01*
X188462571Y-47856819D02*
X188462571Y-46856819D01*
X188462571Y-46856819D02*
X188367333Y-46999676D01*
X188367333Y-46999676D02*
X188272095Y-47094914D01*
X188272095Y-47094914D02*
X188176857Y-47142533D01*
X101774666Y-86874819D02*
X101774666Y-87589104D01*
X101774666Y-87589104D02*
X101727047Y-87731961D01*
X101727047Y-87731961D02*
X101631809Y-87827200D01*
X101631809Y-87827200D02*
X101488952Y-87874819D01*
X101488952Y-87874819D02*
X101393714Y-87874819D01*
X102203238Y-86970057D02*
X102250857Y-86922438D01*
X102250857Y-86922438D02*
X102346095Y-86874819D01*
X102346095Y-86874819D02*
X102584190Y-86874819D01*
X102584190Y-86874819D02*
X102679428Y-86922438D01*
X102679428Y-86922438D02*
X102727047Y-86970057D01*
X102727047Y-86970057D02*
X102774666Y-87065295D01*
X102774666Y-87065295D02*
X102774666Y-87160533D01*
X102774666Y-87160533D02*
X102727047Y-87303390D01*
X102727047Y-87303390D02*
X102155619Y-87874819D01*
X102155619Y-87874819D02*
X102774666Y-87874819D01*
X173930057Y-74263238D02*
X173882438Y-74358476D01*
X173882438Y-74358476D02*
X173787200Y-74453714D01*
X173787200Y-74453714D02*
X173644342Y-74596571D01*
X173644342Y-74596571D02*
X173596723Y-74691809D01*
X173596723Y-74691809D02*
X173596723Y-74787047D01*
X173834819Y-74739428D02*
X173787200Y-74834666D01*
X173787200Y-74834666D02*
X173691961Y-74929904D01*
X173691961Y-74929904D02*
X173501485Y-74977523D01*
X173501485Y-74977523D02*
X173168152Y-74977523D01*
X173168152Y-74977523D02*
X172977676Y-74929904D01*
X172977676Y-74929904D02*
X172882438Y-74834666D01*
X172882438Y-74834666D02*
X172834819Y-74739428D01*
X172834819Y-74739428D02*
X172834819Y-74548952D01*
X172834819Y-74548952D02*
X172882438Y-74453714D01*
X172882438Y-74453714D02*
X172977676Y-74358476D01*
X172977676Y-74358476D02*
X173168152Y-74310857D01*
X173168152Y-74310857D02*
X173501485Y-74310857D01*
X173501485Y-74310857D02*
X173691961Y-74358476D01*
X173691961Y-74358476D02*
X173787200Y-74453714D01*
X173787200Y-74453714D02*
X173834819Y-74548952D01*
X173834819Y-74548952D02*
X173834819Y-74739428D01*
X173834819Y-73358476D02*
X173834819Y-73929904D01*
X173834819Y-73644190D02*
X172834819Y-73644190D01*
X172834819Y-73644190D02*
X172977676Y-73739428D01*
X172977676Y-73739428D02*
X173072914Y-73834666D01*
X173072914Y-73834666D02*
X173120533Y-73929904D01*
X209058819Y-75160094D02*
X208058819Y-75160094D01*
X208058819Y-75160094D02*
X208058819Y-74921999D01*
X208058819Y-74921999D02*
X208106438Y-74779142D01*
X208106438Y-74779142D02*
X208201676Y-74683904D01*
X208201676Y-74683904D02*
X208296914Y-74636285D01*
X208296914Y-74636285D02*
X208487390Y-74588666D01*
X208487390Y-74588666D02*
X208630247Y-74588666D01*
X208630247Y-74588666D02*
X208820723Y-74636285D01*
X208820723Y-74636285D02*
X208915961Y-74683904D01*
X208915961Y-74683904D02*
X209011200Y-74779142D01*
X209011200Y-74779142D02*
X209058819Y-74921999D01*
X209058819Y-74921999D02*
X209058819Y-75160094D01*
X208058819Y-74255332D02*
X208058819Y-73636285D01*
X208058819Y-73636285D02*
X208439771Y-73969618D01*
X208439771Y-73969618D02*
X208439771Y-73826761D01*
X208439771Y-73826761D02*
X208487390Y-73731523D01*
X208487390Y-73731523D02*
X208535009Y-73683904D01*
X208535009Y-73683904D02*
X208630247Y-73636285D01*
X208630247Y-73636285D02*
X208868342Y-73636285D01*
X208868342Y-73636285D02*
X208963580Y-73683904D01*
X208963580Y-73683904D02*
X209011200Y-73731523D01*
X209011200Y-73731523D02*
X209058819Y-73826761D01*
X209058819Y-73826761D02*
X209058819Y-74112475D01*
X209058819Y-74112475D02*
X209011200Y-74207713D01*
X209011200Y-74207713D02*
X208963580Y-74255332D01*
X209628819Y-79763904D02*
X208628819Y-79763904D01*
X209628819Y-79192476D02*
X209057390Y-79621047D01*
X208628819Y-79192476D02*
X209200247Y-79763904D01*
X175292319Y-74252333D02*
X176006604Y-74252333D01*
X176006604Y-74252333D02*
X176149461Y-74299952D01*
X176149461Y-74299952D02*
X176244700Y-74395190D01*
X176244700Y-74395190D02*
X176292319Y-74538047D01*
X176292319Y-74538047D02*
X176292319Y-74633285D01*
X175292319Y-73871380D02*
X175292319Y-73204714D01*
X175292319Y-73204714D02*
X176292319Y-73633285D01*
X93009580Y-37549554D02*
X93057200Y-37597173D01*
X93057200Y-37597173D02*
X93104819Y-37740030D01*
X93104819Y-37740030D02*
X93104819Y-37835268D01*
X93104819Y-37835268D02*
X93057200Y-37978125D01*
X93057200Y-37978125D02*
X92961961Y-38073363D01*
X92961961Y-38073363D02*
X92866723Y-38120982D01*
X92866723Y-38120982D02*
X92676247Y-38168601D01*
X92676247Y-38168601D02*
X92533390Y-38168601D01*
X92533390Y-38168601D02*
X92342914Y-38120982D01*
X92342914Y-38120982D02*
X92247676Y-38073363D01*
X92247676Y-38073363D02*
X92152438Y-37978125D01*
X92152438Y-37978125D02*
X92104819Y-37835268D01*
X92104819Y-37835268D02*
X92104819Y-37740030D01*
X92104819Y-37740030D02*
X92152438Y-37597173D01*
X92152438Y-37597173D02*
X92200057Y-37549554D01*
X93104819Y-36597173D02*
X93104819Y-37168601D01*
X93104819Y-36882887D02*
X92104819Y-36882887D01*
X92104819Y-36882887D02*
X92247676Y-36978125D01*
X92247676Y-36978125D02*
X92342914Y-37073363D01*
X92342914Y-37073363D02*
X92390533Y-37168601D01*
X48437819Y-45259523D02*
X49152104Y-45259523D01*
X49152104Y-45259523D02*
X49294961Y-45307142D01*
X49294961Y-45307142D02*
X49390200Y-45402380D01*
X49390200Y-45402380D02*
X49437819Y-45545237D01*
X49437819Y-45545237D02*
X49437819Y-45640475D01*
X49437819Y-44259523D02*
X49437819Y-44830951D01*
X49437819Y-44545237D02*
X48437819Y-44545237D01*
X48437819Y-44545237D02*
X48580676Y-44640475D01*
X48580676Y-44640475D02*
X48675914Y-44735713D01*
X48675914Y-44735713D02*
X48723533Y-44830951D01*
X48771152Y-43402380D02*
X49437819Y-43402380D01*
X48390200Y-43640475D02*
X49104485Y-43878570D01*
X49104485Y-43878570D02*
X49104485Y-43259523D01*
X145542095Y-69343819D02*
X145542095Y-70153342D01*
X145542095Y-70153342D02*
X145589714Y-70248580D01*
X145589714Y-70248580D02*
X145637333Y-70296200D01*
X145637333Y-70296200D02*
X145732571Y-70343819D01*
X145732571Y-70343819D02*
X145923047Y-70343819D01*
X145923047Y-70343819D02*
X146018285Y-70296200D01*
X146018285Y-70296200D02*
X146065904Y-70248580D01*
X146065904Y-70248580D02*
X146113523Y-70153342D01*
X146113523Y-70153342D02*
X146113523Y-69343819D01*
X146494476Y-69343819D02*
X147113523Y-69343819D01*
X147113523Y-69343819D02*
X146780190Y-69724771D01*
X146780190Y-69724771D02*
X146923047Y-69724771D01*
X146923047Y-69724771D02*
X147018285Y-69772390D01*
X147018285Y-69772390D02*
X147065904Y-69820009D01*
X147065904Y-69820009D02*
X147113523Y-69915247D01*
X147113523Y-69915247D02*
X147113523Y-70153342D01*
X147113523Y-70153342D02*
X147065904Y-70248580D01*
X147065904Y-70248580D02*
X147018285Y-70296200D01*
X147018285Y-70296200D02*
X146923047Y-70343819D01*
X146923047Y-70343819D02*
X146637333Y-70343819D01*
X146637333Y-70343819D02*
X146542095Y-70296200D01*
X146542095Y-70296200D02*
X146494476Y-70248580D01*
X113458666Y-83054819D02*
X113458666Y-83769104D01*
X113458666Y-83769104D02*
X113411047Y-83911961D01*
X113411047Y-83911961D02*
X113315809Y-84007200D01*
X113315809Y-84007200D02*
X113172952Y-84054819D01*
X113172952Y-84054819D02*
X113077714Y-84054819D01*
X113839619Y-83054819D02*
X114458666Y-83054819D01*
X114458666Y-83054819D02*
X114125333Y-83435771D01*
X114125333Y-83435771D02*
X114268190Y-83435771D01*
X114268190Y-83435771D02*
X114363428Y-83483390D01*
X114363428Y-83483390D02*
X114411047Y-83531009D01*
X114411047Y-83531009D02*
X114458666Y-83626247D01*
X114458666Y-83626247D02*
X114458666Y-83864342D01*
X114458666Y-83864342D02*
X114411047Y-83959580D01*
X114411047Y-83959580D02*
X114363428Y-84007200D01*
X114363428Y-84007200D02*
X114268190Y-84054819D01*
X114268190Y-84054819D02*
X113982476Y-84054819D01*
X113982476Y-84054819D02*
X113887238Y-84007200D01*
X113887238Y-84007200D02*
X113839619Y-83959580D01*
X91868666Y-69514819D02*
X91868666Y-70229104D01*
X91868666Y-70229104D02*
X91821047Y-70371961D01*
X91821047Y-70371961D02*
X91725809Y-70467200D01*
X91725809Y-70467200D02*
X91582952Y-70514819D01*
X91582952Y-70514819D02*
X91487714Y-70514819D01*
X92868666Y-70514819D02*
X92297238Y-70514819D01*
X92582952Y-70514819D02*
X92582952Y-69514819D01*
X92582952Y-69514819D02*
X92487714Y-69657676D01*
X92487714Y-69657676D02*
X92392476Y-69752914D01*
X92392476Y-69752914D02*
X92297238Y-69800533D01*
X213360095Y-83152819D02*
X213360095Y-82152819D01*
X213360095Y-82629009D02*
X213931523Y-82629009D01*
X213931523Y-83152819D02*
X213931523Y-82152819D01*
X214312476Y-82152819D02*
X214931523Y-82152819D01*
X214931523Y-82152819D02*
X214598190Y-82533771D01*
X214598190Y-82533771D02*
X214741047Y-82533771D01*
X214741047Y-82533771D02*
X214836285Y-82581390D01*
X214836285Y-82581390D02*
X214883904Y-82629009D01*
X214883904Y-82629009D02*
X214931523Y-82724247D01*
X214931523Y-82724247D02*
X214931523Y-82962342D01*
X214931523Y-82962342D02*
X214883904Y-83057580D01*
X214883904Y-83057580D02*
X214836285Y-83105200D01*
X214836285Y-83105200D02*
X214741047Y-83152819D01*
X214741047Y-83152819D02*
X214455333Y-83152819D01*
X214455333Y-83152819D02*
X214360095Y-83105200D01*
X214360095Y-83105200D02*
X214312476Y-83057580D01*
X62407819Y-45259523D02*
X63122104Y-45259523D01*
X63122104Y-45259523D02*
X63264961Y-45307142D01*
X63264961Y-45307142D02*
X63360200Y-45402380D01*
X63360200Y-45402380D02*
X63407819Y-45545237D01*
X63407819Y-45545237D02*
X63407819Y-45640475D01*
X63407819Y-44259523D02*
X63407819Y-44830951D01*
X63407819Y-44545237D02*
X62407819Y-44545237D01*
X62407819Y-44545237D02*
X62550676Y-44640475D01*
X62550676Y-44640475D02*
X62645914Y-44735713D01*
X62645914Y-44735713D02*
X62693533Y-44830951D01*
X62407819Y-43926189D02*
X62407819Y-43307142D01*
X62407819Y-43307142D02*
X62788771Y-43640475D01*
X62788771Y-43640475D02*
X62788771Y-43497618D01*
X62788771Y-43497618D02*
X62836390Y-43402380D01*
X62836390Y-43402380D02*
X62884009Y-43354761D01*
X62884009Y-43354761D02*
X62979247Y-43307142D01*
X62979247Y-43307142D02*
X63217342Y-43307142D01*
X63217342Y-43307142D02*
X63312580Y-43354761D01*
X63312580Y-43354761D02*
X63360200Y-43402380D01*
X63360200Y-43402380D02*
X63407819Y-43497618D01*
X63407819Y-43497618D02*
X63407819Y-43783332D01*
X63407819Y-43783332D02*
X63360200Y-43878570D01*
X63360200Y-43878570D02*
X63312580Y-43926189D01*
X40473333Y-55176819D02*
X40140000Y-54700628D01*
X39901905Y-55176819D02*
X39901905Y-54176819D01*
X39901905Y-54176819D02*
X40282857Y-54176819D01*
X40282857Y-54176819D02*
X40378095Y-54224438D01*
X40378095Y-54224438D02*
X40425714Y-54272057D01*
X40425714Y-54272057D02*
X40473333Y-54367295D01*
X40473333Y-54367295D02*
X40473333Y-54510152D01*
X40473333Y-54510152D02*
X40425714Y-54605390D01*
X40425714Y-54605390D02*
X40378095Y-54653009D01*
X40378095Y-54653009D02*
X40282857Y-54700628D01*
X40282857Y-54700628D02*
X39901905Y-54700628D01*
X40949524Y-55176819D02*
X41140000Y-55176819D01*
X41140000Y-55176819D02*
X41235238Y-55129200D01*
X41235238Y-55129200D02*
X41282857Y-55081580D01*
X41282857Y-55081580D02*
X41378095Y-54938723D01*
X41378095Y-54938723D02*
X41425714Y-54748247D01*
X41425714Y-54748247D02*
X41425714Y-54367295D01*
X41425714Y-54367295D02*
X41378095Y-54272057D01*
X41378095Y-54272057D02*
X41330476Y-54224438D01*
X41330476Y-54224438D02*
X41235238Y-54176819D01*
X41235238Y-54176819D02*
X41044762Y-54176819D01*
X41044762Y-54176819D02*
X40949524Y-54224438D01*
X40949524Y-54224438D02*
X40901905Y-54272057D01*
X40901905Y-54272057D02*
X40854286Y-54367295D01*
X40854286Y-54367295D02*
X40854286Y-54605390D01*
X40854286Y-54605390D02*
X40901905Y-54700628D01*
X40901905Y-54700628D02*
X40949524Y-54748247D01*
X40949524Y-54748247D02*
X41044762Y-54795866D01*
X41044762Y-54795866D02*
X41235238Y-54795866D01*
X41235238Y-54795866D02*
X41330476Y-54748247D01*
X41330476Y-54748247D02*
X41378095Y-54700628D01*
X41378095Y-54700628D02*
X41425714Y-54605390D01*
X153448319Y-57202523D02*
X154162604Y-57202523D01*
X154162604Y-57202523D02*
X154305461Y-57250142D01*
X154305461Y-57250142D02*
X154400700Y-57345380D01*
X154400700Y-57345380D02*
X154448319Y-57488237D01*
X154448319Y-57488237D02*
X154448319Y-57583475D01*
X154448319Y-56202523D02*
X154448319Y-56773951D01*
X154448319Y-56488237D02*
X153448319Y-56488237D01*
X153448319Y-56488237D02*
X153591176Y-56583475D01*
X153591176Y-56583475D02*
X153686414Y-56678713D01*
X153686414Y-56678713D02*
X153734033Y-56773951D01*
X153448319Y-55583475D02*
X153448319Y-55488237D01*
X153448319Y-55488237D02*
X153495938Y-55392999D01*
X153495938Y-55392999D02*
X153543557Y-55345380D01*
X153543557Y-55345380D02*
X153638795Y-55297761D01*
X153638795Y-55297761D02*
X153829271Y-55250142D01*
X153829271Y-55250142D02*
X154067366Y-55250142D01*
X154067366Y-55250142D02*
X154257842Y-55297761D01*
X154257842Y-55297761D02*
X154353080Y-55345380D01*
X154353080Y-55345380D02*
X154400700Y-55392999D01*
X154400700Y-55392999D02*
X154448319Y-55488237D01*
X154448319Y-55488237D02*
X154448319Y-55583475D01*
X154448319Y-55583475D02*
X154400700Y-55678713D01*
X154400700Y-55678713D02*
X154353080Y-55726332D01*
X154353080Y-55726332D02*
X154257842Y-55773951D01*
X154257842Y-55773951D02*
X154067366Y-55821570D01*
X154067366Y-55821570D02*
X153829271Y-55821570D01*
X153829271Y-55821570D02*
X153638795Y-55773951D01*
X153638795Y-55773951D02*
X153543557Y-55726332D01*
X153543557Y-55726332D02*
X153495938Y-55678713D01*
X153495938Y-55678713D02*
X153448319Y-55583475D01*
X34788095Y-25129819D02*
X34788095Y-24129819D01*
X34788095Y-24606009D02*
X35359523Y-24606009D01*
X35359523Y-25129819D02*
X35359523Y-24129819D01*
X36264285Y-24463152D02*
X36264285Y-25129819D01*
X36026190Y-24082200D02*
X35788095Y-24796485D01*
X35788095Y-24796485D02*
X36407142Y-24796485D01*
X133399580Y-60618666D02*
X133447200Y-60666285D01*
X133447200Y-60666285D02*
X133494819Y-60809142D01*
X133494819Y-60809142D02*
X133494819Y-60904380D01*
X133494819Y-60904380D02*
X133447200Y-61047237D01*
X133447200Y-61047237D02*
X133351961Y-61142475D01*
X133351961Y-61142475D02*
X133256723Y-61190094D01*
X133256723Y-61190094D02*
X133066247Y-61237713D01*
X133066247Y-61237713D02*
X132923390Y-61237713D01*
X132923390Y-61237713D02*
X132732914Y-61190094D01*
X132732914Y-61190094D02*
X132637676Y-61142475D01*
X132637676Y-61142475D02*
X132542438Y-61047237D01*
X132542438Y-61047237D02*
X132494819Y-60904380D01*
X132494819Y-60904380D02*
X132494819Y-60809142D01*
X132494819Y-60809142D02*
X132542438Y-60666285D01*
X132542438Y-60666285D02*
X132590057Y-60618666D01*
X132494819Y-59713904D02*
X132494819Y-60190094D01*
X132494819Y-60190094D02*
X132971009Y-60237713D01*
X132971009Y-60237713D02*
X132923390Y-60190094D01*
X132923390Y-60190094D02*
X132875771Y-60094856D01*
X132875771Y-60094856D02*
X132875771Y-59856761D01*
X132875771Y-59856761D02*
X132923390Y-59761523D01*
X132923390Y-59761523D02*
X132971009Y-59713904D01*
X132971009Y-59713904D02*
X133066247Y-59666285D01*
X133066247Y-59666285D02*
X133304342Y-59666285D01*
X133304342Y-59666285D02*
X133399580Y-59713904D01*
X133399580Y-59713904D02*
X133447200Y-59761523D01*
X133447200Y-59761523D02*
X133494819Y-59856761D01*
X133494819Y-59856761D02*
X133494819Y-60094856D01*
X133494819Y-60094856D02*
X133447200Y-60190094D01*
X133447200Y-60190094D02*
X133399580Y-60237713D01*
X123101580Y-59811779D02*
X123149200Y-59859398D01*
X123149200Y-59859398D02*
X123196819Y-60002255D01*
X123196819Y-60002255D02*
X123196819Y-60097493D01*
X123196819Y-60097493D02*
X123149200Y-60240350D01*
X123149200Y-60240350D02*
X123053961Y-60335588D01*
X123053961Y-60335588D02*
X122958723Y-60383207D01*
X122958723Y-60383207D02*
X122768247Y-60430826D01*
X122768247Y-60430826D02*
X122625390Y-60430826D01*
X122625390Y-60430826D02*
X122434914Y-60383207D01*
X122434914Y-60383207D02*
X122339676Y-60335588D01*
X122339676Y-60335588D02*
X122244438Y-60240350D01*
X122244438Y-60240350D02*
X122196819Y-60097493D01*
X122196819Y-60097493D02*
X122196819Y-60002255D01*
X122196819Y-60002255D02*
X122244438Y-59859398D01*
X122244438Y-59859398D02*
X122292057Y-59811779D01*
X123196819Y-59335588D02*
X123196819Y-59145112D01*
X123196819Y-59145112D02*
X123149200Y-59049874D01*
X123149200Y-59049874D02*
X123101580Y-59002255D01*
X123101580Y-59002255D02*
X122958723Y-58907017D01*
X122958723Y-58907017D02*
X122768247Y-58859398D01*
X122768247Y-58859398D02*
X122387295Y-58859398D01*
X122387295Y-58859398D02*
X122292057Y-58907017D01*
X122292057Y-58907017D02*
X122244438Y-58954636D01*
X122244438Y-58954636D02*
X122196819Y-59049874D01*
X122196819Y-59049874D02*
X122196819Y-59240350D01*
X122196819Y-59240350D02*
X122244438Y-59335588D01*
X122244438Y-59335588D02*
X122292057Y-59383207D01*
X122292057Y-59383207D02*
X122387295Y-59430826D01*
X122387295Y-59430826D02*
X122625390Y-59430826D01*
X122625390Y-59430826D02*
X122720628Y-59383207D01*
X122720628Y-59383207D02*
X122768247Y-59335588D01*
X122768247Y-59335588D02*
X122815866Y-59240350D01*
X122815866Y-59240350D02*
X122815866Y-59049874D01*
X122815866Y-59049874D02*
X122768247Y-58954636D01*
X122768247Y-58954636D02*
X122720628Y-58907017D01*
X122720628Y-58907017D02*
X122625390Y-58859398D01*
X110535580Y-54059554D02*
X110583200Y-54107173D01*
X110583200Y-54107173D02*
X110630819Y-54250030D01*
X110630819Y-54250030D02*
X110630819Y-54345268D01*
X110630819Y-54345268D02*
X110583200Y-54488125D01*
X110583200Y-54488125D02*
X110487961Y-54583363D01*
X110487961Y-54583363D02*
X110392723Y-54630982D01*
X110392723Y-54630982D02*
X110202247Y-54678601D01*
X110202247Y-54678601D02*
X110059390Y-54678601D01*
X110059390Y-54678601D02*
X109868914Y-54630982D01*
X109868914Y-54630982D02*
X109773676Y-54583363D01*
X109773676Y-54583363D02*
X109678438Y-54488125D01*
X109678438Y-54488125D02*
X109630819Y-54345268D01*
X109630819Y-54345268D02*
X109630819Y-54250030D01*
X109630819Y-54250030D02*
X109678438Y-54107173D01*
X109678438Y-54107173D02*
X109726057Y-54059554D01*
X110059390Y-53488125D02*
X110011771Y-53583363D01*
X110011771Y-53583363D02*
X109964152Y-53630982D01*
X109964152Y-53630982D02*
X109868914Y-53678601D01*
X109868914Y-53678601D02*
X109821295Y-53678601D01*
X109821295Y-53678601D02*
X109726057Y-53630982D01*
X109726057Y-53630982D02*
X109678438Y-53583363D01*
X109678438Y-53583363D02*
X109630819Y-53488125D01*
X109630819Y-53488125D02*
X109630819Y-53297649D01*
X109630819Y-53297649D02*
X109678438Y-53202411D01*
X109678438Y-53202411D02*
X109726057Y-53154792D01*
X109726057Y-53154792D02*
X109821295Y-53107173D01*
X109821295Y-53107173D02*
X109868914Y-53107173D01*
X109868914Y-53107173D02*
X109964152Y-53154792D01*
X109964152Y-53154792D02*
X110011771Y-53202411D01*
X110011771Y-53202411D02*
X110059390Y-53297649D01*
X110059390Y-53297649D02*
X110059390Y-53488125D01*
X110059390Y-53488125D02*
X110107009Y-53583363D01*
X110107009Y-53583363D02*
X110154628Y-53630982D01*
X110154628Y-53630982D02*
X110249866Y-53678601D01*
X110249866Y-53678601D02*
X110440342Y-53678601D01*
X110440342Y-53678601D02*
X110535580Y-53630982D01*
X110535580Y-53630982D02*
X110583200Y-53583363D01*
X110583200Y-53583363D02*
X110630819Y-53488125D01*
X110630819Y-53488125D02*
X110630819Y-53297649D01*
X110630819Y-53297649D02*
X110583200Y-53202411D01*
X110583200Y-53202411D02*
X110535580Y-53154792D01*
X110535580Y-53154792D02*
X110440342Y-53107173D01*
X110440342Y-53107173D02*
X110249866Y-53107173D01*
X110249866Y-53107173D02*
X110154628Y-53154792D01*
X110154628Y-53154792D02*
X110107009Y-53202411D01*
X110107009Y-53202411D02*
X110059390Y-53297649D01*
X203287333Y-51128819D02*
X202954000Y-50652628D01*
X202715905Y-51128819D02*
X202715905Y-50128819D01*
X202715905Y-50128819D02*
X203096857Y-50128819D01*
X203096857Y-50128819D02*
X203192095Y-50176438D01*
X203192095Y-50176438D02*
X203239714Y-50224057D01*
X203239714Y-50224057D02*
X203287333Y-50319295D01*
X203287333Y-50319295D02*
X203287333Y-50462152D01*
X203287333Y-50462152D02*
X203239714Y-50557390D01*
X203239714Y-50557390D02*
X203192095Y-50605009D01*
X203192095Y-50605009D02*
X203096857Y-50652628D01*
X203096857Y-50652628D02*
X202715905Y-50652628D01*
X204192095Y-50128819D02*
X203715905Y-50128819D01*
X203715905Y-50128819D02*
X203668286Y-50605009D01*
X203668286Y-50605009D02*
X203715905Y-50557390D01*
X203715905Y-50557390D02*
X203811143Y-50509771D01*
X203811143Y-50509771D02*
X204049238Y-50509771D01*
X204049238Y-50509771D02*
X204144476Y-50557390D01*
X204144476Y-50557390D02*
X204192095Y-50605009D01*
X204192095Y-50605009D02*
X204239714Y-50700247D01*
X204239714Y-50700247D02*
X204239714Y-50938342D01*
X204239714Y-50938342D02*
X204192095Y-51033580D01*
X204192095Y-51033580D02*
X204144476Y-51081200D01*
X204144476Y-51081200D02*
X204049238Y-51128819D01*
X204049238Y-51128819D02*
X203811143Y-51128819D01*
X203811143Y-51128819D02*
X203715905Y-51081200D01*
X203715905Y-51081200D02*
X203668286Y-51033580D01*
X39997142Y-52128819D02*
X39663809Y-51652628D01*
X39425714Y-52128819D02*
X39425714Y-51128819D01*
X39425714Y-51128819D02*
X39806666Y-51128819D01*
X39806666Y-51128819D02*
X39901904Y-51176438D01*
X39901904Y-51176438D02*
X39949523Y-51224057D01*
X39949523Y-51224057D02*
X39997142Y-51319295D01*
X39997142Y-51319295D02*
X39997142Y-51462152D01*
X39997142Y-51462152D02*
X39949523Y-51557390D01*
X39949523Y-51557390D02*
X39901904Y-51605009D01*
X39901904Y-51605009D02*
X39806666Y-51652628D01*
X39806666Y-51652628D02*
X39425714Y-51652628D01*
X40949523Y-52128819D02*
X40378095Y-52128819D01*
X40663809Y-52128819D02*
X40663809Y-51128819D01*
X40663809Y-51128819D02*
X40568571Y-51271676D01*
X40568571Y-51271676D02*
X40473333Y-51366914D01*
X40473333Y-51366914D02*
X40378095Y-51414533D01*
X41901904Y-52128819D02*
X41330476Y-52128819D01*
X41616190Y-52128819D02*
X41616190Y-51128819D01*
X41616190Y-51128819D02*
X41520952Y-51271676D01*
X41520952Y-51271676D02*
X41425714Y-51366914D01*
X41425714Y-51366914D02*
X41330476Y-51414533D01*
X155497580Y-39282666D02*
X155545200Y-39330285D01*
X155545200Y-39330285D02*
X155592819Y-39473142D01*
X155592819Y-39473142D02*
X155592819Y-39568380D01*
X155592819Y-39568380D02*
X155545200Y-39711237D01*
X155545200Y-39711237D02*
X155449961Y-39806475D01*
X155449961Y-39806475D02*
X155354723Y-39854094D01*
X155354723Y-39854094D02*
X155164247Y-39901713D01*
X155164247Y-39901713D02*
X155021390Y-39901713D01*
X155021390Y-39901713D02*
X154830914Y-39854094D01*
X154830914Y-39854094D02*
X154735676Y-39806475D01*
X154735676Y-39806475D02*
X154640438Y-39711237D01*
X154640438Y-39711237D02*
X154592819Y-39568380D01*
X154592819Y-39568380D02*
X154592819Y-39473142D01*
X154592819Y-39473142D02*
X154640438Y-39330285D01*
X154640438Y-39330285D02*
X154688057Y-39282666D01*
X154688057Y-38901713D02*
X154640438Y-38854094D01*
X154640438Y-38854094D02*
X154592819Y-38758856D01*
X154592819Y-38758856D02*
X154592819Y-38520761D01*
X154592819Y-38520761D02*
X154640438Y-38425523D01*
X154640438Y-38425523D02*
X154688057Y-38377904D01*
X154688057Y-38377904D02*
X154783295Y-38330285D01*
X154783295Y-38330285D02*
X154878533Y-38330285D01*
X154878533Y-38330285D02*
X155021390Y-38377904D01*
X155021390Y-38377904D02*
X155592819Y-38949332D01*
X155592819Y-38949332D02*
X155592819Y-38330285D01*
X74164819Y-75009333D02*
X74879104Y-75009333D01*
X74879104Y-75009333D02*
X75021961Y-75056952D01*
X75021961Y-75056952D02*
X75117200Y-75152190D01*
X75117200Y-75152190D02*
X75164819Y-75295047D01*
X75164819Y-75295047D02*
X75164819Y-75390285D01*
X74164819Y-74056952D02*
X74164819Y-74533142D01*
X74164819Y-74533142D02*
X74641009Y-74580761D01*
X74641009Y-74580761D02*
X74593390Y-74533142D01*
X74593390Y-74533142D02*
X74545771Y-74437904D01*
X74545771Y-74437904D02*
X74545771Y-74199809D01*
X74545771Y-74199809D02*
X74593390Y-74104571D01*
X74593390Y-74104571D02*
X74641009Y-74056952D01*
X74641009Y-74056952D02*
X74736247Y-74009333D01*
X74736247Y-74009333D02*
X74974342Y-74009333D01*
X74974342Y-74009333D02*
X75069580Y-74056952D01*
X75069580Y-74056952D02*
X75117200Y-74104571D01*
X75117200Y-74104571D02*
X75164819Y-74199809D01*
X75164819Y-74199809D02*
X75164819Y-74437904D01*
X75164819Y-74437904D02*
X75117200Y-74533142D01*
X75117200Y-74533142D02*
X75069580Y-74580761D01*
X155567142Y-72702819D02*
X155233809Y-72226628D01*
X154995714Y-72702819D02*
X154995714Y-71702819D01*
X154995714Y-71702819D02*
X155376666Y-71702819D01*
X155376666Y-71702819D02*
X155471904Y-71750438D01*
X155471904Y-71750438D02*
X155519523Y-71798057D01*
X155519523Y-71798057D02*
X155567142Y-71893295D01*
X155567142Y-71893295D02*
X155567142Y-72036152D01*
X155567142Y-72036152D02*
X155519523Y-72131390D01*
X155519523Y-72131390D02*
X155471904Y-72179009D01*
X155471904Y-72179009D02*
X155376666Y-72226628D01*
X155376666Y-72226628D02*
X154995714Y-72226628D01*
X156519523Y-72702819D02*
X155948095Y-72702819D01*
X156233809Y-72702819D02*
X156233809Y-71702819D01*
X156233809Y-71702819D02*
X156138571Y-71845676D01*
X156138571Y-71845676D02*
X156043333Y-71940914D01*
X156043333Y-71940914D02*
X155948095Y-71988533D01*
X157138571Y-71702819D02*
X157233809Y-71702819D01*
X157233809Y-71702819D02*
X157329047Y-71750438D01*
X157329047Y-71750438D02*
X157376666Y-71798057D01*
X157376666Y-71798057D02*
X157424285Y-71893295D01*
X157424285Y-71893295D02*
X157471904Y-72083771D01*
X157471904Y-72083771D02*
X157471904Y-72321866D01*
X157471904Y-72321866D02*
X157424285Y-72512342D01*
X157424285Y-72512342D02*
X157376666Y-72607580D01*
X157376666Y-72607580D02*
X157329047Y-72655200D01*
X157329047Y-72655200D02*
X157233809Y-72702819D01*
X157233809Y-72702819D02*
X157138571Y-72702819D01*
X157138571Y-72702819D02*
X157043333Y-72655200D01*
X157043333Y-72655200D02*
X156995714Y-72607580D01*
X156995714Y-72607580D02*
X156948095Y-72512342D01*
X156948095Y-72512342D02*
X156900476Y-72321866D01*
X156900476Y-72321866D02*
X156900476Y-72083771D01*
X156900476Y-72083771D02*
X156948095Y-71893295D01*
X156948095Y-71893295D02*
X156995714Y-71798057D01*
X156995714Y-71798057D02*
X157043333Y-71750438D01*
X157043333Y-71750438D02*
X157138571Y-71702819D01*
X203287333Y-56462819D02*
X202954000Y-55986628D01*
X202715905Y-56462819D02*
X202715905Y-55462819D01*
X202715905Y-55462819D02*
X203096857Y-55462819D01*
X203096857Y-55462819D02*
X203192095Y-55510438D01*
X203192095Y-55510438D02*
X203239714Y-55558057D01*
X203239714Y-55558057D02*
X203287333Y-55653295D01*
X203287333Y-55653295D02*
X203287333Y-55796152D01*
X203287333Y-55796152D02*
X203239714Y-55891390D01*
X203239714Y-55891390D02*
X203192095Y-55939009D01*
X203192095Y-55939009D02*
X203096857Y-55986628D01*
X203096857Y-55986628D02*
X202715905Y-55986628D01*
X204144476Y-55462819D02*
X203954000Y-55462819D01*
X203954000Y-55462819D02*
X203858762Y-55510438D01*
X203858762Y-55510438D02*
X203811143Y-55558057D01*
X203811143Y-55558057D02*
X203715905Y-55700914D01*
X203715905Y-55700914D02*
X203668286Y-55891390D01*
X203668286Y-55891390D02*
X203668286Y-56272342D01*
X203668286Y-56272342D02*
X203715905Y-56367580D01*
X203715905Y-56367580D02*
X203763524Y-56415200D01*
X203763524Y-56415200D02*
X203858762Y-56462819D01*
X203858762Y-56462819D02*
X204049238Y-56462819D01*
X204049238Y-56462819D02*
X204144476Y-56415200D01*
X204144476Y-56415200D02*
X204192095Y-56367580D01*
X204192095Y-56367580D02*
X204239714Y-56272342D01*
X204239714Y-56272342D02*
X204239714Y-56034247D01*
X204239714Y-56034247D02*
X204192095Y-55939009D01*
X204192095Y-55939009D02*
X204144476Y-55891390D01*
X204144476Y-55891390D02*
X204049238Y-55843771D01*
X204049238Y-55843771D02*
X203858762Y-55843771D01*
X203858762Y-55843771D02*
X203763524Y-55891390D01*
X203763524Y-55891390D02*
X203715905Y-55939009D01*
X203715905Y-55939009D02*
X203668286Y-56034247D01*
X171363819Y-57967428D02*
X171363819Y-57776952D01*
X171363819Y-57776952D02*
X171411438Y-57681714D01*
X171411438Y-57681714D02*
X171506676Y-57586476D01*
X171506676Y-57586476D02*
X171697152Y-57538857D01*
X171697152Y-57538857D02*
X172030485Y-57538857D01*
X172030485Y-57538857D02*
X172220961Y-57586476D01*
X172220961Y-57586476D02*
X172316200Y-57681714D01*
X172316200Y-57681714D02*
X172363819Y-57776952D01*
X172363819Y-57776952D02*
X172363819Y-57967428D01*
X172363819Y-57967428D02*
X172316200Y-58062666D01*
X172316200Y-58062666D02*
X172220961Y-58157904D01*
X172220961Y-58157904D02*
X172030485Y-58205523D01*
X172030485Y-58205523D02*
X171697152Y-58205523D01*
X171697152Y-58205523D02*
X171506676Y-58157904D01*
X171506676Y-58157904D02*
X171411438Y-58062666D01*
X171411438Y-58062666D02*
X171363819Y-57967428D01*
X172268580Y-56538857D02*
X172316200Y-56586476D01*
X172316200Y-56586476D02*
X172363819Y-56729333D01*
X172363819Y-56729333D02*
X172363819Y-56824571D01*
X172363819Y-56824571D02*
X172316200Y-56967428D01*
X172316200Y-56967428D02*
X172220961Y-57062666D01*
X172220961Y-57062666D02*
X172125723Y-57110285D01*
X172125723Y-57110285D02*
X171935247Y-57157904D01*
X171935247Y-57157904D02*
X171792390Y-57157904D01*
X171792390Y-57157904D02*
X171601914Y-57110285D01*
X171601914Y-57110285D02*
X171506676Y-57062666D01*
X171506676Y-57062666D02*
X171411438Y-56967428D01*
X171411438Y-56967428D02*
X171363819Y-56824571D01*
X171363819Y-56824571D02*
X171363819Y-56729333D01*
X171363819Y-56729333D02*
X171411438Y-56586476D01*
X171411438Y-56586476D02*
X171459057Y-56538857D01*
X172363819Y-55586476D02*
X172363819Y-56157904D01*
X172363819Y-55872190D02*
X171363819Y-55872190D01*
X171363819Y-55872190D02*
X171506676Y-55967428D01*
X171506676Y-55967428D02*
X171601914Y-56062666D01*
X171601914Y-56062666D02*
X171649533Y-56157904D01*
X122572819Y-60451904D02*
X123382342Y-60451904D01*
X123382342Y-60451904D02*
X123477580Y-60404285D01*
X123477580Y-60404285D02*
X123525200Y-60356666D01*
X123525200Y-60356666D02*
X123572819Y-60261428D01*
X123572819Y-60261428D02*
X123572819Y-60070952D01*
X123572819Y-60070952D02*
X123525200Y-59975714D01*
X123525200Y-59975714D02*
X123477580Y-59928095D01*
X123477580Y-59928095D02*
X123382342Y-59880476D01*
X123382342Y-59880476D02*
X122572819Y-59880476D01*
X123572819Y-58880476D02*
X123572819Y-59451904D01*
X123572819Y-59166190D02*
X122572819Y-59166190D01*
X122572819Y-59166190D02*
X122715676Y-59261428D01*
X122715676Y-59261428D02*
X122810914Y-59356666D01*
X122810914Y-59356666D02*
X122858533Y-59451904D01*
X186205905Y-52016819D02*
X186205905Y-51016819D01*
X186205905Y-51016819D02*
X186444000Y-51016819D01*
X186444000Y-51016819D02*
X186586857Y-51064438D01*
X186586857Y-51064438D02*
X186682095Y-51159676D01*
X186682095Y-51159676D02*
X186729714Y-51254914D01*
X186729714Y-51254914D02*
X186777333Y-51445390D01*
X186777333Y-51445390D02*
X186777333Y-51588247D01*
X186777333Y-51588247D02*
X186729714Y-51778723D01*
X186729714Y-51778723D02*
X186682095Y-51873961D01*
X186682095Y-51873961D02*
X186586857Y-51969200D01*
X186586857Y-51969200D02*
X186444000Y-52016819D01*
X186444000Y-52016819D02*
X186205905Y-52016819D01*
X187729714Y-52016819D02*
X187158286Y-52016819D01*
X187444000Y-52016819D02*
X187444000Y-51016819D01*
X187444000Y-51016819D02*
X187348762Y-51159676D01*
X187348762Y-51159676D02*
X187253524Y-51254914D01*
X187253524Y-51254914D02*
X187158286Y-51302533D01*
X128994214Y-50553319D02*
X128994214Y-49553319D01*
X128994214Y-49553319D02*
X129375166Y-49553319D01*
X129375166Y-49553319D02*
X129470404Y-49600938D01*
X129470404Y-49600938D02*
X129518023Y-49648557D01*
X129518023Y-49648557D02*
X129565642Y-49743795D01*
X129565642Y-49743795D02*
X129565642Y-49886652D01*
X129565642Y-49886652D02*
X129518023Y-49981890D01*
X129518023Y-49981890D02*
X129470404Y-50029509D01*
X129470404Y-50029509D02*
X129375166Y-50077128D01*
X129375166Y-50077128D02*
X128994214Y-50077128D01*
X129946595Y-50505700D02*
X130089452Y-50553319D01*
X130089452Y-50553319D02*
X130327547Y-50553319D01*
X130327547Y-50553319D02*
X130422785Y-50505700D01*
X130422785Y-50505700D02*
X130470404Y-50458080D01*
X130470404Y-50458080D02*
X130518023Y-50362842D01*
X130518023Y-50362842D02*
X130518023Y-50267604D01*
X130518023Y-50267604D02*
X130470404Y-50172366D01*
X130470404Y-50172366D02*
X130422785Y-50124747D01*
X130422785Y-50124747D02*
X130327547Y-50077128D01*
X130327547Y-50077128D02*
X130137071Y-50029509D01*
X130137071Y-50029509D02*
X130041833Y-49981890D01*
X130041833Y-49981890D02*
X129994214Y-49934271D01*
X129994214Y-49934271D02*
X129946595Y-49839033D01*
X129946595Y-49839033D02*
X129946595Y-49743795D01*
X129946595Y-49743795D02*
X129994214Y-49648557D01*
X129994214Y-49648557D02*
X130041833Y-49600938D01*
X130041833Y-49600938D02*
X130137071Y-49553319D01*
X130137071Y-49553319D02*
X130375166Y-49553319D01*
X130375166Y-49553319D02*
X130518023Y-49600938D01*
X131470404Y-50553319D02*
X130898976Y-50553319D01*
X131184690Y-50553319D02*
X131184690Y-49553319D01*
X131184690Y-49553319D02*
X131089452Y-49696176D01*
X131089452Y-49696176D02*
X130994214Y-49791414D01*
X130994214Y-49791414D02*
X130898976Y-49839033D01*
X47825819Y-63977429D02*
X46825819Y-63977429D01*
X47778200Y-63977429D02*
X47825819Y-64072667D01*
X47825819Y-64072667D02*
X47825819Y-64263143D01*
X47825819Y-64263143D02*
X47778200Y-64358381D01*
X47778200Y-64358381D02*
X47730580Y-64406000D01*
X47730580Y-64406000D02*
X47635342Y-64453619D01*
X47635342Y-64453619D02*
X47349628Y-64453619D01*
X47349628Y-64453619D02*
X47254390Y-64406000D01*
X47254390Y-64406000D02*
X47206771Y-64358381D01*
X47206771Y-64358381D02*
X47159152Y-64263143D01*
X47159152Y-64263143D02*
X47159152Y-64072667D01*
X47159152Y-64072667D02*
X47206771Y-63977429D01*
X47778200Y-63120286D02*
X47825819Y-63215524D01*
X47825819Y-63215524D02*
X47825819Y-63406000D01*
X47825819Y-63406000D02*
X47778200Y-63501238D01*
X47778200Y-63501238D02*
X47682961Y-63548857D01*
X47682961Y-63548857D02*
X47302009Y-63548857D01*
X47302009Y-63548857D02*
X47206771Y-63501238D01*
X47206771Y-63501238D02*
X47159152Y-63406000D01*
X47159152Y-63406000D02*
X47159152Y-63215524D01*
X47159152Y-63215524D02*
X47206771Y-63120286D01*
X47206771Y-63120286D02*
X47302009Y-63072667D01*
X47302009Y-63072667D02*
X47397247Y-63072667D01*
X47397247Y-63072667D02*
X47492485Y-63548857D01*
X47159152Y-62739333D02*
X47825819Y-62501238D01*
X47825819Y-62501238D02*
X47159152Y-62263143D01*
X47921057Y-62120286D02*
X47921057Y-61358381D01*
X47825819Y-61120285D02*
X46825819Y-61120285D01*
X47206771Y-61120285D02*
X47159152Y-61025047D01*
X47159152Y-61025047D02*
X47159152Y-60834571D01*
X47159152Y-60834571D02*
X47206771Y-60739333D01*
X47206771Y-60739333D02*
X47254390Y-60691714D01*
X47254390Y-60691714D02*
X47349628Y-60644095D01*
X47349628Y-60644095D02*
X47635342Y-60644095D01*
X47635342Y-60644095D02*
X47730580Y-60691714D01*
X47730580Y-60691714D02*
X47778200Y-60739333D01*
X47778200Y-60739333D02*
X47825819Y-60834571D01*
X47825819Y-60834571D02*
X47825819Y-61025047D01*
X47825819Y-61025047D02*
X47778200Y-61120285D01*
X47825819Y-60072666D02*
X47778200Y-60167904D01*
X47778200Y-60167904D02*
X47730580Y-60215523D01*
X47730580Y-60215523D02*
X47635342Y-60263142D01*
X47635342Y-60263142D02*
X47349628Y-60263142D01*
X47349628Y-60263142D02*
X47254390Y-60215523D01*
X47254390Y-60215523D02*
X47206771Y-60167904D01*
X47206771Y-60167904D02*
X47159152Y-60072666D01*
X47159152Y-60072666D02*
X47159152Y-59929809D01*
X47159152Y-59929809D02*
X47206771Y-59834571D01*
X47206771Y-59834571D02*
X47254390Y-59786952D01*
X47254390Y-59786952D02*
X47349628Y-59739333D01*
X47349628Y-59739333D02*
X47635342Y-59739333D01*
X47635342Y-59739333D02*
X47730580Y-59786952D01*
X47730580Y-59786952D02*
X47778200Y-59834571D01*
X47778200Y-59834571D02*
X47825819Y-59929809D01*
X47825819Y-59929809D02*
X47825819Y-60072666D01*
X47825819Y-58882190D02*
X47302009Y-58882190D01*
X47302009Y-58882190D02*
X47206771Y-58929809D01*
X47206771Y-58929809D02*
X47159152Y-59025047D01*
X47159152Y-59025047D02*
X47159152Y-59215523D01*
X47159152Y-59215523D02*
X47206771Y-59310761D01*
X47778200Y-58882190D02*
X47825819Y-58977428D01*
X47825819Y-58977428D02*
X47825819Y-59215523D01*
X47825819Y-59215523D02*
X47778200Y-59310761D01*
X47778200Y-59310761D02*
X47682961Y-59358380D01*
X47682961Y-59358380D02*
X47587723Y-59358380D01*
X47587723Y-59358380D02*
X47492485Y-59310761D01*
X47492485Y-59310761D02*
X47444866Y-59215523D01*
X47444866Y-59215523D02*
X47444866Y-58977428D01*
X47444866Y-58977428D02*
X47397247Y-58882190D01*
X47825819Y-58405999D02*
X47159152Y-58405999D01*
X47349628Y-58405999D02*
X47254390Y-58358380D01*
X47254390Y-58358380D02*
X47206771Y-58310761D01*
X47206771Y-58310761D02*
X47159152Y-58215523D01*
X47159152Y-58215523D02*
X47159152Y-58120285D01*
X47825819Y-57358380D02*
X46825819Y-57358380D01*
X47778200Y-57358380D02*
X47825819Y-57453618D01*
X47825819Y-57453618D02*
X47825819Y-57644094D01*
X47825819Y-57644094D02*
X47778200Y-57739332D01*
X47778200Y-57739332D02*
X47730580Y-57786951D01*
X47730580Y-57786951D02*
X47635342Y-57834570D01*
X47635342Y-57834570D02*
X47349628Y-57834570D01*
X47349628Y-57834570D02*
X47254390Y-57786951D01*
X47254390Y-57786951D02*
X47206771Y-57739332D01*
X47206771Y-57739332D02*
X47159152Y-57644094D01*
X47159152Y-57644094D02*
X47159152Y-57453618D01*
X47159152Y-57453618D02*
X47206771Y-57358380D01*
X47825819Y-56358380D02*
X47825819Y-56929808D01*
X47825819Y-56644094D02*
X46825819Y-56644094D01*
X46825819Y-56644094D02*
X46968676Y-56739332D01*
X46968676Y-56739332D02*
X47063914Y-56834570D01*
X47063914Y-56834570D02*
X47111533Y-56929808D01*
X203260819Y-42497333D02*
X203975104Y-42497333D01*
X203975104Y-42497333D02*
X204117961Y-42544952D01*
X204117961Y-42544952D02*
X204213200Y-42640190D01*
X204213200Y-42640190D02*
X204260819Y-42783047D01*
X204260819Y-42783047D02*
X204260819Y-42878285D01*
X203260819Y-41592571D02*
X203260819Y-41783047D01*
X203260819Y-41783047D02*
X203308438Y-41878285D01*
X203308438Y-41878285D02*
X203356057Y-41925904D01*
X203356057Y-41925904D02*
X203498914Y-42021142D01*
X203498914Y-42021142D02*
X203689390Y-42068761D01*
X203689390Y-42068761D02*
X204070342Y-42068761D01*
X204070342Y-42068761D02*
X204165580Y-42021142D01*
X204165580Y-42021142D02*
X204213200Y-41973523D01*
X204213200Y-41973523D02*
X204260819Y-41878285D01*
X204260819Y-41878285D02*
X204260819Y-41687809D01*
X204260819Y-41687809D02*
X204213200Y-41592571D01*
X204213200Y-41592571D02*
X204165580Y-41544952D01*
X204165580Y-41544952D02*
X204070342Y-41497333D01*
X204070342Y-41497333D02*
X203832247Y-41497333D01*
X203832247Y-41497333D02*
X203737009Y-41544952D01*
X203737009Y-41544952D02*
X203689390Y-41592571D01*
X203689390Y-41592571D02*
X203641771Y-41687809D01*
X203641771Y-41687809D02*
X203641771Y-41878285D01*
X203641771Y-41878285D02*
X203689390Y-41973523D01*
X203689390Y-41973523D02*
X203737009Y-42021142D01*
X203737009Y-42021142D02*
X203832247Y-42068761D01*
X148391404Y-47404509D02*
X148058071Y-47404509D01*
X148058071Y-47928319D02*
X148058071Y-46928319D01*
X148058071Y-46928319D02*
X148534261Y-46928319D01*
X149391404Y-47928319D02*
X148915214Y-47928319D01*
X148915214Y-47928319D02*
X148915214Y-46928319D01*
X150248547Y-47928319D02*
X149677119Y-47928319D01*
X149962833Y-47928319D02*
X149962833Y-46928319D01*
X149962833Y-46928319D02*
X149867595Y-47071176D01*
X149867595Y-47071176D02*
X149772357Y-47166414D01*
X149772357Y-47166414D02*
X149677119Y-47214033D01*
X169252819Y-57062666D02*
X168776628Y-57395999D01*
X169252819Y-57634094D02*
X168252819Y-57634094D01*
X168252819Y-57634094D02*
X168252819Y-57253142D01*
X168252819Y-57253142D02*
X168300438Y-57157904D01*
X168300438Y-57157904D02*
X168348057Y-57110285D01*
X168348057Y-57110285D02*
X168443295Y-57062666D01*
X168443295Y-57062666D02*
X168586152Y-57062666D01*
X168586152Y-57062666D02*
X168681390Y-57110285D01*
X168681390Y-57110285D02*
X168729009Y-57157904D01*
X168729009Y-57157904D02*
X168776628Y-57253142D01*
X168776628Y-57253142D02*
X168776628Y-57634094D01*
X168252819Y-56729332D02*
X168252819Y-56062666D01*
X168252819Y-56062666D02*
X169252819Y-56491237D01*
X40473333Y-58224819D02*
X40140000Y-57748628D01*
X39901905Y-58224819D02*
X39901905Y-57224819D01*
X39901905Y-57224819D02*
X40282857Y-57224819D01*
X40282857Y-57224819D02*
X40378095Y-57272438D01*
X40378095Y-57272438D02*
X40425714Y-57320057D01*
X40425714Y-57320057D02*
X40473333Y-57415295D01*
X40473333Y-57415295D02*
X40473333Y-57558152D01*
X40473333Y-57558152D02*
X40425714Y-57653390D01*
X40425714Y-57653390D02*
X40378095Y-57701009D01*
X40378095Y-57701009D02*
X40282857Y-57748628D01*
X40282857Y-57748628D02*
X39901905Y-57748628D01*
X41044762Y-57653390D02*
X40949524Y-57605771D01*
X40949524Y-57605771D02*
X40901905Y-57558152D01*
X40901905Y-57558152D02*
X40854286Y-57462914D01*
X40854286Y-57462914D02*
X40854286Y-57415295D01*
X40854286Y-57415295D02*
X40901905Y-57320057D01*
X40901905Y-57320057D02*
X40949524Y-57272438D01*
X40949524Y-57272438D02*
X41044762Y-57224819D01*
X41044762Y-57224819D02*
X41235238Y-57224819D01*
X41235238Y-57224819D02*
X41330476Y-57272438D01*
X41330476Y-57272438D02*
X41378095Y-57320057D01*
X41378095Y-57320057D02*
X41425714Y-57415295D01*
X41425714Y-57415295D02*
X41425714Y-57462914D01*
X41425714Y-57462914D02*
X41378095Y-57558152D01*
X41378095Y-57558152D02*
X41330476Y-57605771D01*
X41330476Y-57605771D02*
X41235238Y-57653390D01*
X41235238Y-57653390D02*
X41044762Y-57653390D01*
X41044762Y-57653390D02*
X40949524Y-57701009D01*
X40949524Y-57701009D02*
X40901905Y-57748628D01*
X40901905Y-57748628D02*
X40854286Y-57843866D01*
X40854286Y-57843866D02*
X40854286Y-58034342D01*
X40854286Y-58034342D02*
X40901905Y-58129580D01*
X40901905Y-58129580D02*
X40949524Y-58177200D01*
X40949524Y-58177200D02*
X41044762Y-58224819D01*
X41044762Y-58224819D02*
X41235238Y-58224819D01*
X41235238Y-58224819D02*
X41330476Y-58177200D01*
X41330476Y-58177200D02*
X41378095Y-58129580D01*
X41378095Y-58129580D02*
X41425714Y-58034342D01*
X41425714Y-58034342D02*
X41425714Y-57843866D01*
X41425714Y-57843866D02*
X41378095Y-57748628D01*
X41378095Y-57748628D02*
X41330476Y-57701009D01*
X41330476Y-57701009D02*
X41235238Y-57653390D01*
X76377819Y-44783333D02*
X77092104Y-44783333D01*
X77092104Y-44783333D02*
X77234961Y-44830952D01*
X77234961Y-44830952D02*
X77330200Y-44926190D01*
X77330200Y-44926190D02*
X77377819Y-45069047D01*
X77377819Y-45069047D02*
X77377819Y-45164285D01*
X76711152Y-43878571D02*
X77377819Y-43878571D01*
X76330200Y-44116666D02*
X77044485Y-44354761D01*
X77044485Y-44354761D02*
X77044485Y-43735714D01*
D11*
%TO.C,F2*%
X176420000Y-25062000D02*
X176420000Y-28222000D01*
X176420000Y-31722000D02*
X176420000Y-34882000D01*
X199140000Y-25062000D02*
X176420000Y-25062000D01*
X199140000Y-25062000D02*
X199140000Y-28222000D01*
X199140000Y-31722000D02*
X199140000Y-34882000D01*
X199140000Y-34882000D02*
X176420000Y-34882000D01*
%TO.C,J15*%
X36013000Y-45780000D02*
X36013000Y-44450000D01*
X37343000Y-45780000D02*
X36013000Y-45780000D01*
X38613000Y-43120000D02*
X48833000Y-43120000D01*
X38613000Y-45780000D02*
X38613000Y-43120000D01*
X38613000Y-45780000D02*
X48833000Y-45780000D01*
X48833000Y-45780000D02*
X48833000Y-43120000D01*
%TO.C,J11*%
X205296500Y-27819000D02*
X205296500Y-29159000D01*
X205296500Y-29759000D02*
X205296500Y-33639000D01*
X206216500Y-27819000D02*
X206216500Y-33639000D01*
X207216500Y-27819000D02*
X207216500Y-33639000D01*
X210316500Y-27819000D02*
X210316500Y-33639000D01*
X212036500Y-27819000D02*
X205296500Y-27819000D01*
X212036500Y-27819000D02*
X212036500Y-33639000D01*
X212036500Y-33639000D02*
X205296500Y-33639000D01*
X205296500Y-29459000D02*
X204686500Y-29899000D01*
X204686500Y-29019000D01*
X205296500Y-29459000D01*
G36*
X205296500Y-29459000D02*
G01*
X204686500Y-29899000D01*
X204686500Y-29019000D01*
X205296500Y-29459000D01*
G37*
%TO.C,J12*%
X31196000Y-52012000D02*
X32526000Y-52012000D01*
X31196000Y-53342000D02*
X31196000Y-52012000D01*
X31196000Y-54612000D02*
X31196000Y-64832000D01*
X31196000Y-54612000D02*
X33856000Y-54612000D01*
X31196000Y-64832000D02*
X33856000Y-64832000D01*
X33856000Y-54612000D02*
X33856000Y-64832000D01*
%TO.C,J8*%
X168967500Y-29107500D02*
X170297500Y-29107500D01*
X168967500Y-30437500D02*
X168967500Y-29107500D01*
X168967500Y-31707500D02*
X168967500Y-31767500D01*
X168967500Y-31707500D02*
X171627500Y-31707500D01*
X168967500Y-31767500D02*
X171627500Y-31767500D01*
X171627500Y-31707500D02*
X171627500Y-31767500D01*
%TO.C,K1*%
X187966000Y-67130000D02*
X207766000Y-67130000D01*
X187966000Y-82730000D02*
X187966000Y-67130000D01*
X192216000Y-70730000D02*
X192216000Y-73180000D01*
X192216000Y-79130000D02*
X192216000Y-76630000D01*
X195416000Y-74880000D02*
X190816000Y-77380000D01*
X196916000Y-71280000D02*
X203716000Y-71280000D01*
X196916000Y-74880000D02*
X195416000Y-74880000D01*
X196916000Y-74880000D02*
X196916000Y-71280000D01*
X198316000Y-73080000D02*
X202316000Y-73080000D01*
X198316000Y-73080000D02*
X202316000Y-76680000D01*
X198316000Y-76680000D02*
X198316000Y-73080000D01*
X200316000Y-73080000D02*
X200316000Y-68880000D01*
X200316000Y-80880000D02*
X200316000Y-76680000D01*
X200316000Y-80880000D02*
X202816000Y-80880000D01*
X202316000Y-73080000D02*
X202316000Y-76680000D01*
X202316000Y-76680000D02*
X198316000Y-76680000D01*
X202816000Y-68880000D02*
X200316000Y-68880000D01*
X203716000Y-74880000D02*
X203716000Y-71280000D01*
X203716000Y-74880000D02*
X204516000Y-74880000D01*
X207766000Y-73730000D02*
X207766000Y-67130000D01*
X207766000Y-82730000D02*
X187966000Y-82730000D01*
X207766000Y-82730000D02*
X207766000Y-76130000D01*
D10*
%TO.C,RV1*%
X167064000Y-36632000D02*
X171264000Y-36632000D01*
X167064000Y-43632000D02*
X167064000Y-36632000D01*
X167064000Y-43632000D02*
X171264000Y-43632000D01*
X171264000Y-43632000D02*
X171264000Y-36632000D01*
D11*
%TO.C,F1*%
X176674000Y-36492000D02*
X176674000Y-39652000D01*
X176674000Y-43152000D02*
X176674000Y-46312000D01*
X199394000Y-36492000D02*
X176674000Y-36492000D01*
X199394000Y-36492000D02*
X199394000Y-39652000D01*
X199394000Y-43152000D02*
X199394000Y-46312000D01*
X199394000Y-46312000D02*
X176674000Y-46312000D01*
%TO.C,J2*%
X100778000Y-83820000D02*
X100778000Y-71060000D01*
X103438000Y-71060000D02*
X100778000Y-71060000D01*
X103438000Y-83820000D02*
X100778000Y-83820000D01*
X103438000Y-83820000D02*
X103438000Y-71060000D01*
X103438000Y-85090000D02*
X103438000Y-86420000D01*
X103438000Y-86420000D02*
X102108000Y-86420000D01*
%TO.C,Q1*%
X167970000Y-72368000D02*
X167970000Y-75968000D01*
X167981522Y-72329522D02*
G75*
G02*
X172420001Y-74168000I1838478J-1838478D01*
G01*
X172420000Y-74168000D02*
G75*
G02*
X167981522Y-76006478I-2600000J0D01*
G01*
%TO.C,D3*%
X209604000Y-71702000D02*
X209604000Y-77142000D01*
X209604000Y-76122000D02*
X212544000Y-76122000D01*
X209604000Y-76242000D02*
X212544000Y-76242000D01*
X209604000Y-76362000D02*
X212544000Y-76362000D01*
X209604000Y-77142000D02*
X212544000Y-77142000D01*
X211074000Y-70482000D02*
X211074000Y-71702000D01*
X211074000Y-78362000D02*
X211074000Y-77142000D01*
X212544000Y-71702000D02*
X209604000Y-71702000D01*
X212544000Y-77142000D02*
X212544000Y-71702000D01*
%TO.C,J7*%
X176837500Y-71009000D02*
X183577500Y-71009000D01*
X176837500Y-76829000D02*
X176837500Y-71009000D01*
X176837500Y-76829000D02*
X183577500Y-76829000D01*
X178557500Y-76829000D02*
X178557500Y-71009000D01*
X181657500Y-76829000D02*
X181657500Y-71009000D01*
X182657500Y-76829000D02*
X182657500Y-71009000D01*
X183577500Y-74889000D02*
X183577500Y-71009000D01*
X183577500Y-76829000D02*
X183577500Y-75489000D01*
X184187500Y-75629000D02*
X183577500Y-75189000D01*
X184187500Y-74749000D01*
X184187500Y-75629000D01*
G36*
X184187500Y-75629000D02*
G01*
X183577500Y-75189000D01*
X184187500Y-74749000D01*
X184187500Y-75629000D01*
G37*
%TO.C,C1*%
X87860000Y-37622888D02*
X86331000Y-37622888D01*
X87860000Y-37662888D02*
X86335000Y-37662888D01*
X87860000Y-37702888D02*
X86339000Y-37702888D01*
X87860000Y-37742888D02*
X86344000Y-37742888D01*
X87860000Y-37782888D02*
X86350000Y-37782888D01*
X87860000Y-37822888D02*
X86357000Y-37822888D01*
X87860000Y-37862888D02*
X86364000Y-37862888D01*
X87860000Y-37902888D02*
X86372000Y-37902888D01*
X87860000Y-37942888D02*
X86380000Y-37942888D01*
X87860000Y-37982888D02*
X86389000Y-37982888D01*
X87860000Y-38022888D02*
X86399000Y-38022888D01*
X87860000Y-38062888D02*
X86409000Y-38062888D01*
X87860000Y-38103888D02*
X86420000Y-38103888D01*
X87860000Y-38143888D02*
X86432000Y-38143888D01*
X87860000Y-38183888D02*
X86445000Y-38183888D01*
X87860000Y-38223888D02*
X86458000Y-38223888D01*
X87860000Y-38263888D02*
X86472000Y-38263888D01*
X87860000Y-38303888D02*
X86486000Y-38303888D01*
X87860000Y-38343888D02*
X86502000Y-38343888D01*
X87860000Y-38383888D02*
X86518000Y-38383888D01*
X87860000Y-38423888D02*
X86535000Y-38423888D01*
X87860000Y-38463888D02*
X86552000Y-38463888D01*
X87860000Y-38503888D02*
X86571000Y-38503888D01*
X87860000Y-38543888D02*
X86590000Y-38543888D01*
X87860000Y-38583888D02*
X86610000Y-38583888D01*
X87860000Y-38623888D02*
X86632000Y-38623888D01*
X87860000Y-38663888D02*
X86653000Y-38663888D01*
X87860000Y-38703888D02*
X86676000Y-38703888D01*
X87860000Y-38743888D02*
X86700000Y-38743888D01*
X87860000Y-38783888D02*
X86725000Y-38783888D01*
X87860000Y-38823888D02*
X86751000Y-38823888D01*
X87860000Y-38863888D02*
X86778000Y-38863888D01*
X87860000Y-38903888D02*
X86805000Y-38903888D01*
X87860000Y-38943888D02*
X86835000Y-38943888D01*
X87860000Y-38983888D02*
X86865000Y-38983888D01*
X87860000Y-39023888D02*
X86896000Y-39023888D01*
X87860000Y-39063888D02*
X86929000Y-39063888D01*
X87860000Y-39103888D02*
X86963000Y-39103888D01*
X87860000Y-39143888D02*
X86999000Y-39143888D01*
X87860000Y-39183888D02*
X87036000Y-39183888D01*
X87860000Y-39223888D02*
X87074000Y-39223888D01*
X87860000Y-39263888D02*
X87115000Y-39263888D01*
X87860000Y-39303888D02*
X87157000Y-39303888D01*
X87860000Y-39343888D02*
X87201000Y-39343888D01*
X87860000Y-39383888D02*
X87247000Y-39383888D01*
X87860000Y-39423888D02*
X87295000Y-39423888D01*
X87860000Y-39463888D02*
X87346000Y-39463888D01*
X87860000Y-39503888D02*
X87400000Y-39503888D01*
X87860000Y-39543888D02*
X87457000Y-39543888D01*
X87860000Y-39583888D02*
X87517000Y-39583888D01*
X87860000Y-39623888D02*
X87581000Y-39623888D01*
X87860000Y-39663888D02*
X87649000Y-39663888D01*
X89184000Y-39983888D02*
X88616000Y-39983888D01*
X89418000Y-39943888D02*
X88382000Y-39943888D01*
X89577000Y-39903888D02*
X88223000Y-39903888D01*
X89705000Y-39863888D02*
X88095000Y-39863888D01*
X89815000Y-39823888D02*
X87985000Y-39823888D01*
X89911000Y-39783888D02*
X87889000Y-39783888D01*
X89998000Y-39743888D02*
X87802000Y-39743888D01*
X90078000Y-39703888D02*
X87722000Y-39703888D01*
X90151000Y-39663888D02*
X89940000Y-39663888D01*
X90219000Y-39623888D02*
X89940000Y-39623888D01*
X90283000Y-39583888D02*
X89940000Y-39583888D01*
X90343000Y-39543888D02*
X89940000Y-39543888D01*
X90375000Y-34578113D02*
X90375000Y-35078113D01*
X90400000Y-39503888D02*
X89940000Y-39503888D01*
X90454000Y-39463888D02*
X89940000Y-39463888D01*
X90505000Y-39423888D02*
X89940000Y-39423888D01*
X90553000Y-39383888D02*
X89940000Y-39383888D01*
X90599000Y-39343888D02*
X89940000Y-39343888D01*
X90625000Y-34828113D02*
X90125000Y-34828113D01*
X90643000Y-39303888D02*
X89940000Y-39303888D01*
X90685000Y-39263888D02*
X89940000Y-39263888D01*
X90726000Y-39223888D02*
X89940000Y-39223888D01*
X90764000Y-39183888D02*
X89940000Y-39183888D01*
X90801000Y-39143888D02*
X89940000Y-39143888D01*
X90837000Y-39103888D02*
X89940000Y-39103888D01*
X90871000Y-39063888D02*
X89940000Y-39063888D01*
X90904000Y-39023888D02*
X89940000Y-39023888D01*
X90935000Y-38983888D02*
X89940000Y-38983888D01*
X90965000Y-38943888D02*
X89940000Y-38943888D01*
X90995000Y-38903888D02*
X89940000Y-38903888D01*
X91022000Y-38863888D02*
X89940000Y-38863888D01*
X91049000Y-38823888D02*
X89940000Y-38823888D01*
X91075000Y-38783888D02*
X89940000Y-38783888D01*
X91100000Y-38743888D02*
X89940000Y-38743888D01*
X91124000Y-38703888D02*
X89940000Y-38703888D01*
X91147000Y-38663888D02*
X89940000Y-38663888D01*
X91168000Y-38623888D02*
X89940000Y-38623888D01*
X91190000Y-38583888D02*
X89940000Y-38583888D01*
X91210000Y-38543888D02*
X89940000Y-38543888D01*
X91229000Y-38503888D02*
X89940000Y-38503888D01*
X91248000Y-38463888D02*
X89940000Y-38463888D01*
X91265000Y-38423888D02*
X89940000Y-38423888D01*
X91282000Y-38383888D02*
X89940000Y-38383888D01*
X91298000Y-38343888D02*
X89940000Y-38343888D01*
X91314000Y-38303888D02*
X89940000Y-38303888D01*
X91328000Y-38263888D02*
X89940000Y-38263888D01*
X91342000Y-38223888D02*
X89940000Y-38223888D01*
X91355000Y-38183888D02*
X89940000Y-38183888D01*
X91368000Y-38143888D02*
X89940000Y-38143888D01*
X91380000Y-38103888D02*
X89940000Y-38103888D01*
X91391000Y-38062888D02*
X89940000Y-38062888D01*
X91401000Y-38022888D02*
X89940000Y-38022888D01*
X91411000Y-37982888D02*
X89940000Y-37982888D01*
X91420000Y-37942888D02*
X89940000Y-37942888D01*
X91428000Y-37902888D02*
X89940000Y-37902888D01*
X91436000Y-37862888D02*
X89940000Y-37862888D01*
X91443000Y-37822888D02*
X89940000Y-37822888D01*
X91450000Y-37782888D02*
X89940000Y-37782888D01*
X91456000Y-37742888D02*
X89940000Y-37742888D01*
X91461000Y-37702888D02*
X89940000Y-37702888D01*
X91465000Y-37662888D02*
X89940000Y-37662888D01*
X91469000Y-37622888D02*
X89940000Y-37622888D01*
X91473000Y-37582888D02*
X86327000Y-37582888D01*
X91476000Y-37542888D02*
X86324000Y-37542888D01*
X91478000Y-37502888D02*
X86322000Y-37502888D01*
X91479000Y-37462888D02*
X86321000Y-37462888D01*
X91480000Y-37382888D02*
X86320000Y-37382888D01*
X91480000Y-37422888D02*
X86320000Y-37422888D01*
X91520000Y-37382888D02*
G75*
G02*
X86280000Y-37382888I-2620000J0D01*
G01*
X86280000Y-37382888D02*
G75*
G02*
X91520000Y-37382888I2620000J0D01*
G01*
%TO.C,J14*%
X49983000Y-45780000D02*
X49983000Y-44450000D01*
X51313000Y-45780000D02*
X49983000Y-45780000D01*
X52583000Y-43120000D02*
X62803000Y-43120000D01*
X52583000Y-45780000D02*
X52583000Y-43120000D01*
X52583000Y-45780000D02*
X62803000Y-45780000D01*
X62803000Y-45780000D02*
X62803000Y-43120000D01*
%TO.C,U3*%
X144054000Y-50989000D02*
X144054000Y-68889000D01*
X144054000Y-68889000D02*
X145304000Y-68889000D01*
X147304000Y-68889000D02*
X148554000Y-68889000D01*
X148554000Y-50989000D02*
X144054000Y-50989000D01*
X148554000Y-68889000D02*
X148554000Y-50989000D01*
X151554000Y-68949000D02*
X141054000Y-68949000D01*
X141054000Y-50929000D01*
X151554000Y-50929000D01*
X151554000Y-68949000D01*
X145304000Y-68889000D02*
G75*
G02*
X147304000Y-68889000I1000000J0D01*
G01*
%TO.C,J3*%
X112462000Y-80000000D02*
X112462000Y-72320000D01*
X115122000Y-72320000D02*
X112462000Y-72320000D01*
X115122000Y-80000000D02*
X112462000Y-80000000D01*
X115122000Y-80000000D02*
X115122000Y-72320000D01*
X115122000Y-81270000D02*
X115122000Y-82600000D01*
X115122000Y-82600000D02*
X113792000Y-82600000D01*
%TO.C,J1*%
X90872000Y-71060000D02*
X92202000Y-71060000D01*
X90872000Y-72390000D02*
X90872000Y-71060000D01*
X90872000Y-73660000D02*
X90872000Y-86420000D01*
X90872000Y-73660000D02*
X93532000Y-73660000D01*
X90872000Y-86420000D02*
X93532000Y-86420000D01*
X93532000Y-73660000D02*
X93532000Y-86420000D01*
%TO.C,J13*%
X63953000Y-45780000D02*
X63953000Y-44450000D01*
X65283000Y-45780000D02*
X63953000Y-45780000D01*
X66553000Y-43120000D02*
X76773000Y-43120000D01*
X66553000Y-45780000D02*
X66553000Y-43120000D01*
X66553000Y-45780000D02*
X76773000Y-45780000D01*
X76773000Y-45780000D02*
X76773000Y-43120000D01*
%TO.C,R9*%
X37770000Y-56642000D02*
X38720000Y-56642000D01*
X38720000Y-55722000D02*
X38720000Y-57562000D01*
X38720000Y-57562000D02*
X42560000Y-57562000D01*
X42560000Y-55722000D02*
X38720000Y-55722000D01*
X42560000Y-57562000D02*
X42560000Y-55722000D01*
X43510000Y-56642000D02*
X42560000Y-56642000D01*
%TO.C,J10*%
X154993500Y-53483000D02*
X161733500Y-53483000D01*
X154993500Y-59303000D02*
X154993500Y-53483000D01*
X154993500Y-59303000D02*
X161733500Y-59303000D01*
X156713500Y-59303000D02*
X156713500Y-53483000D01*
X159813500Y-59303000D02*
X159813500Y-53483000D01*
X160813500Y-59303000D02*
X160813500Y-53483000D01*
X161733500Y-57363000D02*
X161733500Y-53483000D01*
X161733500Y-59303000D02*
X161733500Y-57963000D01*
X162343500Y-58103000D02*
X161733500Y-57663000D01*
X162343500Y-57223000D01*
X162343500Y-58103000D01*
G36*
X162343500Y-58103000D02*
G01*
X161733500Y-57663000D01*
X162343500Y-57223000D01*
X162343500Y-58103000D01*
G37*
%TO.C,C5*%
X134169000Y-57782000D02*
X134835000Y-57782000D01*
X134169000Y-63122000D02*
X134169000Y-57782000D01*
X134169000Y-63122000D02*
X134835000Y-63122000D01*
X136945000Y-57782000D02*
X137611000Y-57782000D01*
X136945000Y-63122000D02*
X137611000Y-63122000D01*
X137611000Y-63122000D02*
X137611000Y-57782000D01*
%TO.C,C9*%
X123912000Y-59605113D02*
X129072000Y-59605113D01*
X123912000Y-59645113D02*
X129072000Y-59645113D01*
X123913000Y-59565113D02*
X129071000Y-59565113D01*
X123914000Y-59525113D02*
X129070000Y-59525113D01*
X123916000Y-59485113D02*
X129068000Y-59485113D01*
X123919000Y-59445113D02*
X129065000Y-59445113D01*
X123923000Y-59405113D02*
X125452000Y-59405113D01*
X123927000Y-59365113D02*
X125452000Y-59365113D01*
X123931000Y-59325113D02*
X125452000Y-59325113D01*
X123936000Y-59285113D02*
X125452000Y-59285113D01*
X123942000Y-59245113D02*
X125452000Y-59245113D01*
X123949000Y-59205113D02*
X125452000Y-59205113D01*
X123956000Y-59165113D02*
X125452000Y-59165113D01*
X123964000Y-59125113D02*
X125452000Y-59125113D01*
X123972000Y-59085113D02*
X125452000Y-59085113D01*
X123981000Y-59045113D02*
X125452000Y-59045113D01*
X123991000Y-59005113D02*
X125452000Y-59005113D01*
X124001000Y-58965113D02*
X125452000Y-58965113D01*
X124012000Y-58924113D02*
X125452000Y-58924113D01*
X124024000Y-58884113D02*
X125452000Y-58884113D01*
X124037000Y-58844113D02*
X125452000Y-58844113D01*
X124050000Y-58804113D02*
X125452000Y-58804113D01*
X124064000Y-58764113D02*
X125452000Y-58764113D01*
X124078000Y-58724113D02*
X125452000Y-58724113D01*
X124094000Y-58684113D02*
X125452000Y-58684113D01*
X124110000Y-58644113D02*
X125452000Y-58644113D01*
X124127000Y-58604113D02*
X125452000Y-58604113D01*
X124144000Y-58564113D02*
X125452000Y-58564113D01*
X124163000Y-58524113D02*
X125452000Y-58524113D01*
X124182000Y-58484113D02*
X125452000Y-58484113D01*
X124202000Y-58444113D02*
X125452000Y-58444113D01*
X124224000Y-58404113D02*
X125452000Y-58404113D01*
X124245000Y-58364113D02*
X125452000Y-58364113D01*
X124268000Y-58324113D02*
X125452000Y-58324113D01*
X124292000Y-58284113D02*
X125452000Y-58284113D01*
X124317000Y-58244113D02*
X125452000Y-58244113D01*
X124343000Y-58204113D02*
X125452000Y-58204113D01*
X124370000Y-58164113D02*
X125452000Y-58164113D01*
X124397000Y-58124113D02*
X125452000Y-58124113D01*
X124427000Y-58084113D02*
X125452000Y-58084113D01*
X124457000Y-58044113D02*
X125452000Y-58044113D01*
X124488000Y-58004113D02*
X125452000Y-58004113D01*
X124521000Y-57964113D02*
X125452000Y-57964113D01*
X124555000Y-57924113D02*
X125452000Y-57924113D01*
X124591000Y-57884113D02*
X125452000Y-57884113D01*
X124628000Y-57844113D02*
X125452000Y-57844113D01*
X124666000Y-57804113D02*
X125452000Y-57804113D01*
X124707000Y-57764113D02*
X125452000Y-57764113D01*
X124749000Y-57724113D02*
X125452000Y-57724113D01*
X124767000Y-62199888D02*
X125267000Y-62199888D01*
X124793000Y-57684113D02*
X125452000Y-57684113D01*
X124839000Y-57644113D02*
X125452000Y-57644113D01*
X124887000Y-57604113D02*
X125452000Y-57604113D01*
X124938000Y-57564113D02*
X125452000Y-57564113D01*
X124992000Y-57524113D02*
X125452000Y-57524113D01*
X125017000Y-62449888D02*
X125017000Y-61949888D01*
X125049000Y-57484113D02*
X125452000Y-57484113D01*
X125109000Y-57444113D02*
X125452000Y-57444113D01*
X125173000Y-57404113D02*
X125452000Y-57404113D01*
X125241000Y-57364113D02*
X125452000Y-57364113D01*
X125314000Y-57324113D02*
X127670000Y-57324113D01*
X125394000Y-57284113D02*
X127590000Y-57284113D01*
X125481000Y-57244113D02*
X127503000Y-57244113D01*
X125577000Y-57204113D02*
X127407000Y-57204113D01*
X125687000Y-57164113D02*
X127297000Y-57164113D01*
X125815000Y-57124113D02*
X127169000Y-57124113D01*
X125974000Y-57084113D02*
X127010000Y-57084113D01*
X126208000Y-57044113D02*
X126776000Y-57044113D01*
X127532000Y-57364113D02*
X127743000Y-57364113D01*
X127532000Y-57404113D02*
X127811000Y-57404113D01*
X127532000Y-57444113D02*
X127875000Y-57444113D01*
X127532000Y-57484113D02*
X127935000Y-57484113D01*
X127532000Y-57524113D02*
X127992000Y-57524113D01*
X127532000Y-57564113D02*
X128046000Y-57564113D01*
X127532000Y-57604113D02*
X128097000Y-57604113D01*
X127532000Y-57644113D02*
X128145000Y-57644113D01*
X127532000Y-57684113D02*
X128191000Y-57684113D01*
X127532000Y-57724113D02*
X128235000Y-57724113D01*
X127532000Y-57764113D02*
X128277000Y-57764113D01*
X127532000Y-57804113D02*
X128318000Y-57804113D01*
X127532000Y-57844113D02*
X128356000Y-57844113D01*
X127532000Y-57884113D02*
X128393000Y-57884113D01*
X127532000Y-57924113D02*
X128429000Y-57924113D01*
X127532000Y-57964113D02*
X128463000Y-57964113D01*
X127532000Y-58004113D02*
X128496000Y-58004113D01*
X127532000Y-58044113D02*
X128527000Y-58044113D01*
X127532000Y-58084113D02*
X128557000Y-58084113D01*
X127532000Y-58124113D02*
X128587000Y-58124113D01*
X127532000Y-58164113D02*
X128614000Y-58164113D01*
X127532000Y-58204113D02*
X128641000Y-58204113D01*
X127532000Y-58244113D02*
X128667000Y-58244113D01*
X127532000Y-58284113D02*
X128692000Y-58284113D01*
X127532000Y-58324113D02*
X128716000Y-58324113D01*
X127532000Y-58364113D02*
X128739000Y-58364113D01*
X127532000Y-58404113D02*
X128760000Y-58404113D01*
X127532000Y-58444113D02*
X128782000Y-58444113D01*
X127532000Y-58484113D02*
X128802000Y-58484113D01*
X127532000Y-58524113D02*
X128821000Y-58524113D01*
X127532000Y-58564113D02*
X128840000Y-58564113D01*
X127532000Y-58604113D02*
X128857000Y-58604113D01*
X127532000Y-58644113D02*
X128874000Y-58644113D01*
X127532000Y-58684113D02*
X128890000Y-58684113D01*
X127532000Y-58724113D02*
X128906000Y-58724113D01*
X127532000Y-58764113D02*
X128920000Y-58764113D01*
X127532000Y-58804113D02*
X128934000Y-58804113D01*
X127532000Y-58844113D02*
X128947000Y-58844113D01*
X127532000Y-58884113D02*
X128960000Y-58884113D01*
X127532000Y-58924113D02*
X128972000Y-58924113D01*
X127532000Y-58965113D02*
X128983000Y-58965113D01*
X127532000Y-59005113D02*
X128993000Y-59005113D01*
X127532000Y-59045113D02*
X129003000Y-59045113D01*
X127532000Y-59085113D02*
X129012000Y-59085113D01*
X127532000Y-59125113D02*
X129020000Y-59125113D01*
X127532000Y-59165113D02*
X129028000Y-59165113D01*
X127532000Y-59205113D02*
X129035000Y-59205113D01*
X127532000Y-59245113D02*
X129042000Y-59245113D01*
X127532000Y-59285113D02*
X129048000Y-59285113D01*
X127532000Y-59325113D02*
X129053000Y-59325113D01*
X127532000Y-59365113D02*
X129057000Y-59365113D01*
X127532000Y-59405113D02*
X129061000Y-59405113D01*
X129112000Y-59645113D02*
G75*
G02*
X123872000Y-59645113I-2620000J0D01*
G01*
X123872000Y-59645113D02*
G75*
G02*
X129112000Y-59645113I2620000J0D01*
G01*
%TO.C,C8*%
X105386000Y-54132888D02*
X103857000Y-54132888D01*
X105386000Y-54172888D02*
X103861000Y-54172888D01*
X105386000Y-54212888D02*
X103865000Y-54212888D01*
X105386000Y-54252888D02*
X103870000Y-54252888D01*
X105386000Y-54292888D02*
X103876000Y-54292888D01*
X105386000Y-54332888D02*
X103883000Y-54332888D01*
X105386000Y-54372888D02*
X103890000Y-54372888D01*
X105386000Y-54412888D02*
X103898000Y-54412888D01*
X105386000Y-54452888D02*
X103906000Y-54452888D01*
X105386000Y-54492888D02*
X103915000Y-54492888D01*
X105386000Y-54532888D02*
X103925000Y-54532888D01*
X105386000Y-54572888D02*
X103935000Y-54572888D01*
X105386000Y-54613888D02*
X103946000Y-54613888D01*
X105386000Y-54653888D02*
X103958000Y-54653888D01*
X105386000Y-54693888D02*
X103971000Y-54693888D01*
X105386000Y-54733888D02*
X103984000Y-54733888D01*
X105386000Y-54773888D02*
X103998000Y-54773888D01*
X105386000Y-54813888D02*
X104012000Y-54813888D01*
X105386000Y-54853888D02*
X104028000Y-54853888D01*
X105386000Y-54893888D02*
X104044000Y-54893888D01*
X105386000Y-54933888D02*
X104061000Y-54933888D01*
X105386000Y-54973888D02*
X104078000Y-54973888D01*
X105386000Y-55013888D02*
X104097000Y-55013888D01*
X105386000Y-55053888D02*
X104116000Y-55053888D01*
X105386000Y-55093888D02*
X104136000Y-55093888D01*
X105386000Y-55133888D02*
X104158000Y-55133888D01*
X105386000Y-55173888D02*
X104179000Y-55173888D01*
X105386000Y-55213888D02*
X104202000Y-55213888D01*
X105386000Y-55253888D02*
X104226000Y-55253888D01*
X105386000Y-55293888D02*
X104251000Y-55293888D01*
X105386000Y-55333888D02*
X104277000Y-55333888D01*
X105386000Y-55373888D02*
X104304000Y-55373888D01*
X105386000Y-55413888D02*
X104331000Y-55413888D01*
X105386000Y-55453888D02*
X104361000Y-55453888D01*
X105386000Y-55493888D02*
X104391000Y-55493888D01*
X105386000Y-55533888D02*
X104422000Y-55533888D01*
X105386000Y-55573888D02*
X104455000Y-55573888D01*
X105386000Y-55613888D02*
X104489000Y-55613888D01*
X105386000Y-55653888D02*
X104525000Y-55653888D01*
X105386000Y-55693888D02*
X104562000Y-55693888D01*
X105386000Y-55733888D02*
X104600000Y-55733888D01*
X105386000Y-55773888D02*
X104641000Y-55773888D01*
X105386000Y-55813888D02*
X104683000Y-55813888D01*
X105386000Y-55853888D02*
X104727000Y-55853888D01*
X105386000Y-55893888D02*
X104773000Y-55893888D01*
X105386000Y-55933888D02*
X104821000Y-55933888D01*
X105386000Y-55973888D02*
X104872000Y-55973888D01*
X105386000Y-56013888D02*
X104926000Y-56013888D01*
X105386000Y-56053888D02*
X104983000Y-56053888D01*
X105386000Y-56093888D02*
X105043000Y-56093888D01*
X105386000Y-56133888D02*
X105107000Y-56133888D01*
X105386000Y-56173888D02*
X105175000Y-56173888D01*
X106710000Y-56493888D02*
X106142000Y-56493888D01*
X106944000Y-56453888D02*
X105908000Y-56453888D01*
X107103000Y-56413888D02*
X105749000Y-56413888D01*
X107231000Y-56373888D02*
X105621000Y-56373888D01*
X107341000Y-56333888D02*
X105511000Y-56333888D01*
X107437000Y-56293888D02*
X105415000Y-56293888D01*
X107524000Y-56253888D02*
X105328000Y-56253888D01*
X107604000Y-56213888D02*
X105248000Y-56213888D01*
X107677000Y-56173888D02*
X107466000Y-56173888D01*
X107745000Y-56133888D02*
X107466000Y-56133888D01*
X107809000Y-56093888D02*
X107466000Y-56093888D01*
X107869000Y-56053888D02*
X107466000Y-56053888D01*
X107901000Y-51088113D02*
X107901000Y-51588113D01*
X107926000Y-56013888D02*
X107466000Y-56013888D01*
X107980000Y-55973888D02*
X107466000Y-55973888D01*
X108031000Y-55933888D02*
X107466000Y-55933888D01*
X108079000Y-55893888D02*
X107466000Y-55893888D01*
X108125000Y-55853888D02*
X107466000Y-55853888D01*
X108151000Y-51338113D02*
X107651000Y-51338113D01*
X108169000Y-55813888D02*
X107466000Y-55813888D01*
X108211000Y-55773888D02*
X107466000Y-55773888D01*
X108252000Y-55733888D02*
X107466000Y-55733888D01*
X108290000Y-55693888D02*
X107466000Y-55693888D01*
X108327000Y-55653888D02*
X107466000Y-55653888D01*
X108363000Y-55613888D02*
X107466000Y-55613888D01*
X108397000Y-55573888D02*
X107466000Y-55573888D01*
X108430000Y-55533888D02*
X107466000Y-55533888D01*
X108461000Y-55493888D02*
X107466000Y-55493888D01*
X108491000Y-55453888D02*
X107466000Y-55453888D01*
X108521000Y-55413888D02*
X107466000Y-55413888D01*
X108548000Y-55373888D02*
X107466000Y-55373888D01*
X108575000Y-55333888D02*
X107466000Y-55333888D01*
X108601000Y-55293888D02*
X107466000Y-55293888D01*
X108626000Y-55253888D02*
X107466000Y-55253888D01*
X108650000Y-55213888D02*
X107466000Y-55213888D01*
X108673000Y-55173888D02*
X107466000Y-55173888D01*
X108694000Y-55133888D02*
X107466000Y-55133888D01*
X108716000Y-55093888D02*
X107466000Y-55093888D01*
X108736000Y-55053888D02*
X107466000Y-55053888D01*
X108755000Y-55013888D02*
X107466000Y-55013888D01*
X108774000Y-54973888D02*
X107466000Y-54973888D01*
X108791000Y-54933888D02*
X107466000Y-54933888D01*
X108808000Y-54893888D02*
X107466000Y-54893888D01*
X108824000Y-54853888D02*
X107466000Y-54853888D01*
X108840000Y-54813888D02*
X107466000Y-54813888D01*
X108854000Y-54773888D02*
X107466000Y-54773888D01*
X108868000Y-54733888D02*
X107466000Y-54733888D01*
X108881000Y-54693888D02*
X107466000Y-54693888D01*
X108894000Y-54653888D02*
X107466000Y-54653888D01*
X108906000Y-54613888D02*
X107466000Y-54613888D01*
X108917000Y-54572888D02*
X107466000Y-54572888D01*
X108927000Y-54532888D02*
X107466000Y-54532888D01*
X108937000Y-54492888D02*
X107466000Y-54492888D01*
X108946000Y-54452888D02*
X107466000Y-54452888D01*
X108954000Y-54412888D02*
X107466000Y-54412888D01*
X108962000Y-54372888D02*
X107466000Y-54372888D01*
X108969000Y-54332888D02*
X107466000Y-54332888D01*
X108976000Y-54292888D02*
X107466000Y-54292888D01*
X108982000Y-54252888D02*
X107466000Y-54252888D01*
X108987000Y-54212888D02*
X107466000Y-54212888D01*
X108991000Y-54172888D02*
X107466000Y-54172888D01*
X108995000Y-54132888D02*
X107466000Y-54132888D01*
X108999000Y-54092888D02*
X103853000Y-54092888D01*
X109002000Y-54052888D02*
X103850000Y-54052888D01*
X109004000Y-54012888D02*
X103848000Y-54012888D01*
X109005000Y-53972888D02*
X103847000Y-53972888D01*
X109006000Y-53892888D02*
X103846000Y-53892888D01*
X109006000Y-53932888D02*
X103846000Y-53932888D01*
X109046000Y-53892888D02*
G75*
G02*
X103806000Y-53892888I-2620000J0D01*
G01*
X103806000Y-53892888D02*
G75*
G02*
X109046000Y-53892888I2620000J0D01*
G01*
%TO.C,R5*%
X197274000Y-53594000D02*
X198384000Y-53594000D01*
X198384000Y-51674000D02*
X198384000Y-55514000D01*
X198384000Y-55514000D02*
X208524000Y-55514000D01*
X208524000Y-51674000D02*
X198384000Y-51674000D01*
X208524000Y-55514000D02*
X208524000Y-51674000D01*
X209634000Y-53594000D02*
X208524000Y-53594000D01*
%TO.C,R11*%
X37770000Y-53594000D02*
X38720000Y-53594000D01*
X38720000Y-52674000D02*
X38720000Y-54514000D01*
X38720000Y-54514000D02*
X42560000Y-54514000D01*
X42560000Y-52674000D02*
X38720000Y-52674000D01*
X42560000Y-54514000D02*
X42560000Y-52674000D01*
X43510000Y-53594000D02*
X42560000Y-53594000D01*
%TO.C,C2*%
X156267000Y-36446000D02*
X156933000Y-36446000D01*
X156267000Y-41786000D02*
X156267000Y-36446000D01*
X156267000Y-41786000D02*
X156933000Y-41786000D01*
X159043000Y-36446000D02*
X159709000Y-36446000D01*
X159043000Y-41786000D02*
X159709000Y-41786000D01*
X159709000Y-41786000D02*
X159709000Y-36446000D01*
%TO.C,J5*%
X63430000Y-73346000D02*
X63430000Y-76006000D01*
X71110000Y-73346000D02*
X63430000Y-73346000D01*
X71110000Y-73346000D02*
X71110000Y-76006000D01*
X71110000Y-76006000D02*
X63430000Y-76006000D01*
X72380000Y-73346000D02*
X73710000Y-73346000D01*
X73710000Y-73346000D02*
X73710000Y-74676000D01*
%TO.C,R10*%
X153340000Y-74168000D02*
X154290000Y-74168000D01*
X154290000Y-73248000D02*
X154290000Y-75088000D01*
X154290000Y-75088000D02*
X158130000Y-75088000D01*
X158130000Y-73248000D02*
X154290000Y-73248000D01*
X158130000Y-75088000D02*
X158130000Y-73248000D01*
X159080000Y-74168000D02*
X158130000Y-74168000D01*
%TO.C,R6*%
X197274000Y-58928000D02*
X198384000Y-58928000D01*
X198384000Y-57008000D02*
X198384000Y-60848000D01*
X198384000Y-60848000D02*
X208524000Y-60848000D01*
X208524000Y-57008000D02*
X198384000Y-57008000D01*
X208524000Y-60848000D02*
X208524000Y-57008000D01*
X209634000Y-58928000D02*
X208524000Y-58928000D01*
%TO.C,OC1*%
X172909000Y-53661000D02*
X172909000Y-55896000D01*
X172909000Y-57896000D02*
X172909000Y-60131000D01*
X172909000Y-60131000D02*
X178109000Y-60131000D01*
X178109000Y-53661000D02*
X172909000Y-53661000D01*
X178109000Y-60131000D02*
X178109000Y-53661000D01*
X172909000Y-55896000D02*
G75*
G02*
X172909000Y-57896000I0J-1000000D01*
G01*
%TO.C,U1*%
X115208000Y-57840000D02*
X115208000Y-61600000D01*
X115208000Y-61600000D02*
X116468000Y-61600000D01*
X122028000Y-57840000D02*
X122028000Y-61600000D01*
X122028000Y-61600000D02*
X120768000Y-61600000D01*
X122258000Y-56800000D02*
X121928000Y-56560000D01*
X122258000Y-56320000D01*
X122258000Y-56800000D01*
G36*
X122258000Y-56800000D02*
G01*
X121928000Y-56560000D01*
X122258000Y-56320000D01*
X122258000Y-56800000D01*
G37*
%TO.C,D1*%
X182449513Y-54172243D02*
G75*
G02*
X184054000Y-52506000I4454487J-2683757D01*
G01*
X183154000Y-59556000D02*
G75*
G02*
X183074569Y-54269891I3750000J2700000D01*
G01*
X184304000Y-53056000D02*
G75*
G02*
X189658731Y-53166629I2600000J-3800000D01*
G01*
X189654000Y-60556000D02*
G75*
G02*
X184412533Y-60734800I-2750000J3700000D01*
G01*
X190754000Y-54306000D02*
G75*
G02*
X190651584Y-59554261I-3850000J-2550000D01*
G01*
%TO.C,PS1*%
X95548500Y-49118500D02*
X95548500Y-26498500D01*
X132468500Y-26498500D02*
X95548500Y-26498500D01*
X132468500Y-49118500D02*
X95548500Y-49118500D01*
X132468500Y-49118500D02*
X132468500Y-26498500D01*
X132708500Y-46358500D02*
X132708500Y-49358500D01*
X132708500Y-49358500D02*
X129708500Y-49358500D01*
%TO.C,dev_board1*%
X47946000Y-51756000D02*
X98866000Y-51756000D01*
X47946000Y-66996000D02*
X47946000Y-51756000D01*
X47946000Y-66996000D02*
X98866000Y-66996000D01*
X47946000Y-68326000D02*
X47946000Y-69656000D01*
X47946000Y-69656000D02*
X49276000Y-69656000D01*
X50546000Y-69656000D02*
X50546000Y-66996000D01*
X98866000Y-51756000D02*
X98866000Y-69656000D01*
X98866000Y-54416000D02*
X47946000Y-54416000D01*
X98866000Y-69656000D02*
X50546000Y-69656000D01*
%TO.C,J6*%
X204806000Y-39254000D02*
X211546000Y-39254000D01*
X204806000Y-45074000D02*
X204806000Y-39254000D01*
X204806000Y-45074000D02*
X211546000Y-45074000D01*
X206526000Y-45074000D02*
X206526000Y-39254000D01*
X209626000Y-45074000D02*
X209626000Y-39254000D01*
X210626000Y-45074000D02*
X210626000Y-39254000D01*
X211546000Y-43134000D02*
X211546000Y-39254000D01*
X211546000Y-45074000D02*
X211546000Y-43734000D01*
X212156000Y-43874000D02*
X211546000Y-43434000D01*
X212156000Y-42994000D01*
X212156000Y-43874000D01*
G36*
X212156000Y-43874000D02*
G01*
X211546000Y-43434000D01*
X212156000Y-42994000D01*
X212156000Y-43874000D01*
G37*
%TO.C,FL1*%
X137009500Y-43973500D02*
X137009500Y-33973500D01*
X139129500Y-31853500D02*
X149129500Y-31853500D01*
X149129500Y-46093500D02*
X139129500Y-46093500D01*
X151249500Y-33973500D02*
X151249500Y-43973500D01*
X151629500Y-46473500D02*
X148629500Y-46473500D01*
X151629500Y-46473500D02*
X151629500Y-43473500D01*
X137009500Y-33973500D02*
G75*
G02*
X139129500Y-31853500I2120000J0D01*
G01*
X139129500Y-46093500D02*
G75*
G02*
X137009500Y-43973500I0J2120000D01*
G01*
X149129500Y-31853500D02*
G75*
G02*
X151249500Y-33973500I-1J-2120001D01*
G01*
X151249500Y-43973500D02*
G75*
G02*
X149129500Y-46093500I-2120001J1D01*
G01*
%TO.C,R7*%
X165958000Y-54976000D02*
X165958000Y-58816000D01*
X165958000Y-58816000D02*
X167798000Y-58816000D01*
X166878000Y-54026000D02*
X166878000Y-54976000D01*
X166878000Y-59766000D02*
X166878000Y-58816000D01*
X167798000Y-54976000D02*
X165958000Y-54976000D01*
X167798000Y-58816000D02*
X167798000Y-54976000D01*
%TO.C,R8*%
X37770000Y-59690000D02*
X38720000Y-59690000D01*
X38720000Y-58770000D02*
X38720000Y-60610000D01*
X38720000Y-60610000D02*
X42560000Y-60610000D01*
X42560000Y-58770000D02*
X38720000Y-58770000D01*
X42560000Y-60610000D02*
X42560000Y-58770000D01*
X43510000Y-59690000D02*
X42560000Y-59690000D01*
%TO.C,J4*%
X77923000Y-45780000D02*
X77923000Y-44450000D01*
X79253000Y-45780000D02*
X77923000Y-45780000D01*
X80523000Y-43120000D02*
X90743000Y-43120000D01*
X80523000Y-45780000D02*
X80523000Y-43120000D01*
X80523000Y-45780000D02*
X90743000Y-45780000D01*
X90743000Y-45780000D02*
X90743000Y-43120000D01*
%TD*%
M02*
